<svg xmlns="http://www.w3.org/2000/svg" viewBox="0 0 1012.72 809.81"><defs><style>.cls-1,.cls-2{fill:#fff;}.cls-1{stroke:#000;stroke-miterlimit:10;stroke-width:6px;}.cls-3{fill:#ffb846;}.cls-4,.cls-5{fill:none;stroke:#fff;stroke-width:5px;}.cls-5{stroke-linecap:round;}.cls-6{fill:#6250fe;}</style></defs><g id="Layer_2" data-name="Layer 2"><g id="All"><g id="Coding"><g id="Coding-2" data-name="Coding"><g id="Desk"><path id="Path" d="M809.16,526.25h-4.92q-114.12-.36-228.12-.6-224.82-.54-449.64-1.2c-5.52,0-11.16-.36-16.68-.6h-2.16c0,4.08-.12,7.92,0,11.88.48,13.68,1.08,27.24,1.68,40.92,1.08,26.52,2,52.92,3.12,79.44.72,17.28,1.32,34.68,2,52q1.44,38.88,3,77.88a23.06,23.06,0,0,1,0,2.88,2.31,2.31,0,0,1-2.4,2.28,2.39,2.39,0,0,1-2.52-2.16,18.32,18.32,0,0,1-.36-3.6c-.48-12.24-1-24.36-1.44-36.6-1.08-26.76-2.16-53.64-3.12-80.4-.72-18.48-1.44-37.08-2.16-55.56-1.08-26-2-52.08-3.12-78.12-.12-3.6,0-7.2,0-10.44-.48-.48-.48-.6-.6-.6-3.48-2.52-3.6-3.48-.72-6.72,5.88-6.6,11.88-13.08,17.76-19.68q73.44-81.36,146.88-162.84c1.56-1.68,3.12-2.76,5.52-2.76l632.28,2.88q51.84.18,103.8.48h2.28c2.64.24,3.36,1.08,3.12,3.72-.24,4.08-.36,8.28-.48,12.36q-1.08,43.2-2.28,86.4c-1,36-2,72-3,108-.6,20.88-1.08,41.88-1.68,62.76,0,1.2-.12,2.4-.24,3.6a2.28,2.28,0,0,1-2.52,2,2.47,2.47,0,0,1-2.4-2.28,7.27,7.27,0,0,1,0-2.28c.6-22.08,1.2-44,1.8-66.12.48-19.92,1.08-40,1.56-59.88,1-37.2,2-74.4,3-111.6.24-9,.48-17.88.72-26.88v-2.88c-1.2,1.08-2,1.68-2.76,2.4q-49,46.44-97.92,92.76c-29.88,28.32-59.64,56.64-89.64,84.84a7.7,7.7,0,0,0-2.64,6.24q1.8,137.7,3.48,275.52c0,1.32,0,2.64-.12,4a2.28,2.28,0,0,1-2.4,2.16,2.22,2.22,0,0,1-2.28-1.92c-.24-1.32-.24-2.64-.36-4-.36-30.48-.72-60.84-1.08-91.32q-1.08-91.44-2.4-182.88A28.3,28.3,0,0,0,809.16,526.25Z"/><path id="Shape" d="M895.68,552.77a52.45,52.45,0,0,1,15.72,5.64c-.36-1.08-.6-2.16-1-3.12a50.55,50.55,0,0,1-2.4-23.52c1.08-7.92,4.56-14.52,11.4-19,1.2-.72,2.28-1.68,3.6-2.52a60.81,60.81,0,0,1-1.08-6.48c-.24-13.8,2.16-26.88,10-38.64a38.89,38.89,0,0,1,16.44-14,21.21,21.21,0,0,1,11.52-1.68,16.29,16.29,0,0,1,14.28,13.68c1.56,8.16.48,16.08-1.68,24a103.43,103.43,0,0,1-9.72,23.52c-1,1.68-1.8,3.48-2.88,5.4.84.48,1.56,1,2.28,1.32,12.48,4.92,17.4,14.76,18.24,27.36a31.54,31.54,0,0,1-10.92,26.88c-3.48,3.12-7.2,6-10.92,8.88-4.56,3.6-3.6,3.36-2.64,7.56a90.77,90.77,0,0,1,1.68,10,31.15,31.15,0,0,1-3.72,17.64,50.24,50.24,0,0,1-19,20.76c-3.72,2.28-7.68,4.2-11.52,6.24a46.73,46.73,0,0,0-12.12,9c1.32.12,2.28.24,3.12.24,10.32,0,20.76,0,31.08-.12a23.12,23.12,0,0,1,2.88.12,2.57,2.57,0,0,1,2.4,2.28,24.16,24.16,0,0,1-.24,5.88c-8.4,39-16.92,78-25.32,116.88-.12.6-.36,1.32-.48,1.92a3.14,3.14,0,0,1-3.24,2.64c-1.92,0-4,.24-5.88.36-12.12.48-24.24,1.08-36.24,1.56a14.46,14.46,0,0,1-2.28,0c-2.76,0-3.12-.36-3.72-3.12-1.2-6.84-2.4-13.68-3.6-20.64-4.08-23.64-8-47.28-12.12-70.92-1.8-10.56-3.6-21-5.4-31.56-.12-.48-.12-1.08-.24-1.68-.12-2.64.72-3.6,3.36-3.6h31.08c1.08,0,2.16-.12,3.24-.12a14.93,14.93,0,0,0,0-8.88,34.23,34.23,0,0,0-13.8-21.12c-4.2-3-8.4-5.88-12.48-9a53.87,53.87,0,0,1-14.88-17.16,32,32,0,0,1-3.12-22.8,24.34,24.34,0,0,1,8.16-13.8c4-3.24,5.4-6.48,2.16-10.92-5.28-13.44-3.36-26.28,4.08-38.16,5-7.92,13-11.88,22.08-13.08,5.76-.72,10.44,1.68,13.92,6.36,3.24,4.32,4.32,9.48,4.56,14.76.48,8.64-1.08,16.92-2.88,25.32C897,546.17,896.4,549.29,895.68,552.77Zm-33.12,132.6c5.28,31,10.56,61.68,15.84,92.76,14-.6,27.84-1.2,41.64-1.92.36-1.44.6-2.52.84-3.6C927,744.77,933,716.81,939.12,689c1-4.2,1-4.2-2.16-7.32a7.11,7.11,0,0,0-.72-.48c-.48.6-1,1.08-1.44,1.68-1.8,2.4-3.48,4.8-5.28,7.08s-3.36,2.28-5.4.24c-.72-.72-1.32-1.44-1.92-2.16l-6.36-7.08c-.84.72-1.56,1.32-2.16,1.92-2.28,2.16-4.56,4.32-6.84,6.6-.6.48-1.08,1.08-1.68,1.56-1.8,1.32-3,1.08-4.92-.72-2.88-2.76-5.88-5.52-8.88-8.4-.36.36-1.08.84-1.68,1.44-1.68,1.68-3.36,3.36-5.16,5-2.52,2.4-3.48,2.52-6.12.24-1.56-1.32-3.12-2.76-4.68-4.08l-4.68-4C866.88,682.13,864.84,683.69,862.56,685.37Zm40.92-.12a18.88,18.88,0,0,0,2.28-2.16c2.4-2.28,4.68-4.56,7.08-6.84,2.64-2.52,3.72-2.4,6.24.36a24,24,0,0,1,1.68,1.92c1.92,2,3.72,4.2,5.76,6.36.48-.6,1-1,1.2-1.32,1.92-2.52,3.72-5.16,5.64-7.56,1.68-2.16,3.24-2.16,5.16-.24.72.72,1.44,1.56,2.64,2.76,1.56-7.44,3.12-14.4,4.68-21.36-5.88-.72-85.32-.24-88.08.6,1.08,7.08,2.16,14.16,3.72,21.6,1.56-1.2,2.76-2,3.84-2.88,3.84-2.88,4.08-2.76,7.8.36,2.64,2.28,5.16,4.56,8,7.08,2.52-2.4,4.8-4.8,7.08-7,2.76-2.64,3.72-2.64,6.48,0C897.72,679.73,900.48,682.37,903.48,685.25Zm4.68-71.52c1.92,3.48,4,6.36,4.92,9.48s1.2,6.6,1.92,10.44c2.16-4,4.08-7.44,5.88-11,5.16-10.32,6.48-21.36,4.8-32.76A43.84,43.84,0,0,0,921,575.33a11.69,11.69,0,0,0-1.2-1.8,116.74,116.74,0,0,1,.12,13c-.48,6.12-2.88,11.76-6,17.16C912,607,910,610.49,908.16,613.73Z"/><path d="M551.4,728.33A28.53,28.53,0,0,1,553.68,743c-.72,5.88-3.48,10.32-9.36,12.24-4.44,1.44-8.52.72-11.88-2.52s-3.84-7.44-2.64-11.76a17,17,0,0,1,4.92-7.68c2.76-2.52,5.64-4.68,8.88-7.32a41.27,41.27,0,0,0-3.24-3.24,33.39,33.39,0,0,0-19.92-7.44c-19.32-1.08-35.4,6-48.48,19.92a34.34,34.34,0,0,0-5.28,7.8c-1.32,2.4-2.28,4.92-1.56,7.8a2.33,2.33,0,0,1-1.68,2.88,2.17,2.17,0,0,1-3-1.2,10.52,10.52,0,0,1-.6-4.68A27.64,27.64,0,0,1,467,733a66.09,66.09,0,0,1,31.08-20.28,60.35,60.35,0,0,1,22.68-2.52c11,.84,20.52,4.8,27.84,13.44.48-.12.84-.24,1.2-.36,18.72-7.92,37.56-8.4,56.76-1.8a202.25,202.25,0,0,1,26.52,11.76c6.84,3.6,13.8,7.08,21.36,9A210.23,210.23,0,0,0,688,748.13a42.39,42.39,0,0,0,5.52-.12c1.44-.12,2.64.12,3.12,1.68a2.78,2.78,0,0,1-1.92,3.36,13.1,13.1,0,0,1-4.8.48c-4.8-.36-9.6-.84-14.28-1.56-5.16-.84-10.32-1.92-15.48-2.88-9.12-1.68-17.52-5.16-25.68-9.24-8.76-4.44-17.4-8.88-26.64-12.36-11-4.08-22.2-6.24-34-4.92a74.7,74.7,0,0,0-19.68,4.68A8.13,8.13,0,0,0,551.4,728.33Zm-4.68,2.52a30.62,30.62,0,0,0-9.84,7.92,10,10,0,0,0-2.28,6,5.61,5.61,0,0,0,5.76,5.76,7.74,7.74,0,0,0,7.92-6.48A20.4,20.4,0,0,0,546.72,730.85Z"/><path d="M484.44,798.77h-90a18.16,18.16,0,0,1-3.6-.24,2.47,2.47,0,0,1,.12-4.92,18.58,18.58,0,0,1,2.64-.12l181.56-.36a23.12,23.12,0,0,1,2.88.12c1.56.36,2.52,1.44,2.28,2.64a2.57,2.57,0,0,1-2.4,2.28c-1.2.12-2.4.12-3.6.12h-90A.91.91,0,0,1,484.44,798.77Z"/><path d="M978.6,294.65c1.92-2.16,3.72-4.2,5.4-6.24a16.46,16.46,0,0,1,1.92-2.16c1.56-1.56,3-1.68,4.56-.24,2.64,2.4,5.16,4.92,7.68,7.56,1.44,1.56,1.44,3,.24,4s-2.4,1-4.08-.48c-1.92-1.8-3.72-3.6-5.88-5.76-1.56,1.8-3.12,3.48-4.56,5.16-1,1.08-1.8,2.16-2.76,3.24-1.92,1.92-3.24,1.92-5.28.12l-6-5.64a24,24,0,0,0-1.92,1.68c-1.44,1.44-2.88,3-4.32,4.44-3,3.12-3.72,3.24-7.08.48-2.16-1.8-4.44-3.6-7-5.64l-2.88,3.6c-.72.84-1.32,1.92-2.28,2.28a3.74,3.74,0,0,1-3-.12,1.9,1.9,0,0,1-.6-2.88c2.16-2.88,4.32-5.76,6.6-8.4,1.08-1.2,2.64-.72,3.84.24,1.68,1.32,3.24,2.64,4.8,4,1.08.84,2.16,1.8,3.48,2.76,1.44-1.44,2.76-2.88,4.2-4.2,1-1,1.92-2,3-3.12,2.4-2.4,3.72-2.4,6-.12,1.2,1.2,2.4,2.52,3.6,3.72A18.9,18.9,0,0,1,978.6,294.65Z"/><path d="M737.88,738.89a12.42,12.42,0,0,1-11,12.12,9.3,9.3,0,0,1-10.08-8.52,12.26,12.26,0,0,1,9.72-12.84C732.72,728.33,737.76,732.53,737.88,738.89Zm-9.48-4.32c-3.6,0-7,4-6.36,7.56a4.11,4.11,0,0,0,4.68,3.48,7.11,7.11,0,0,0,5.88-7.2A3.82,3.82,0,0,0,728.4,734.57Z"/><path d="M161,781.73h15c1.8.24,2.88,1.08,2.88,2.52s-1.08,2.76-3,2.76c-3.72,0-7.44-.12-11.16-.24-5.28-.12-10.44-.24-15.72-.48a13.52,13.52,0,0,1-3.84-.6,2.26,2.26,0,0,1-1.8-2.76,2.47,2.47,0,0,1,2.52-2.16c.84,0,1.68.12,2.64.12h12.36A2.7,2.7,0,0,1,161,781.73Z"/><path d="M600.36,795.65c-1.2,0-2.4.12-3.6,0a2.47,2.47,0,0,1-2.28-2.4,2.23,2.23,0,0,1,2-2.52,45.11,45.11,0,0,1,8,.36c1.32.12,1.92,1.32,1.8,2.64a2.21,2.21,0,0,1-2.16,2c-1.32.12-2.52,0-3.84,0Z"/><path class="cls-1" d="M685.1,317c73.2.36,195.84.84,318.36,1.32a14.74,14.74,0,0,1,3.24.24,2.21,2.21,0,0,1,2,2.52c-.24.84-1.2,2.16-1.92,2.16-1.92.24-3.12,1.44-4.32,2.64q-94.86,90-189.72,179.88a13.29,13.29,0,0,1-10.08,4q-221.22-.72-442.44-1.2-120.42-.36-240.84-.72c-6.72,0-13.44-.72-20.28-1.08-1.56-.12-3.12-.48-3.84-2s.24-2.88,1.32-4.08c8.16-9,16.2-18,24.36-27q70.2-77.76,140.28-155.52a8.65,8.65,0,0,1,7.32-3.12C390.86,315.72,513.26,316.2,685.1,317Z"/></g><g id="Ipad"><path class="cls-2" d="M634,463.76c.48.24,1,.72,1.44.72,4.8,0,9.6-.12,14.4-.24a5.65,5.65,0,0,0,1.92-.48,2.33,2.33,0,0,1,3.12,1,2.71,2.71,0,0,1-.24,3.36,10.73,10.73,0,0,1-7.44,4.2c-4.32.24-8.76.48-13.08.6-3,.12-6.12-.12-9.12-.12h-1.32c-2-.24-4.32-.36-5-2.76s1.2-3.48,2.88-4.68a8.41,8.41,0,0,0,2.4-2.28c-1.08,0-2.16-.12-3.36-.12l-55.92-.72a14.74,14.74,0,0,1-3.24-.24c-2.4-.48-3.24-2.4-1.8-4.32a17.78,17.78,0,0,1,2.88-3.12c7.2-7.2,14.4-14.28,21.48-21.48,1.2-1.2,2.28-2.28,3.48-3.6-3.36-3.6-2.76-7.44-1.56-11.52,3.48-11,5.28-22.44,7.56-33.84,1.44-6.84,3.36-13.56,4.56-20.4,2.4-14.28,6.72-28.2,10-42.36.6-2.76,1.08-5.52,1.8-8.28a10.41,10.41,0,0,1,4.2-5.64c2.88-2.28,6.48-3,9.84-4.08,4.68-1.56,9.48-1.2,14.16-1.44l4.44-.36c.84-2.16,1.56-4.08,2.4-6,.72-1.56,2-2,3.72-2,4.32,0,8.76-.12,13.08-.12,9.48-.12,19-.36,28.44-.24,15.36.12,30.72.72,46.08.84,5.76.12,11.28,1,16,4.8a6.87,6.87,0,0,0,2.76,1c3.72.6,7.56.84,11.28,1.8a30.06,30.06,0,0,1,8.16,3.36c4.32,2.64,6.48,6.6,5.16,11.64a115.81,115.81,0,0,1-4,12.48,11.86,11.86,0,0,0-.24,8.4c2.64,7.8,4.44,15.72,6.72,23.52,2.52,8.64,5,17.4,7.44,26a4.55,4.55,0,0,1-.6,3,11.5,11.5,0,0,1-2,2.16q-35.1,34.56-70.08,69.24a8.54,8.54,0,0,1-7,2.64q-36-.54-72-.84c-1.2,0-2.4.12-3.72.12C634.09,463.28,634,463.52,634,463.76Z"/><path d="M615.77,466.36h-4.32L558.77,466a9.87,9.87,0,0,1-3.24-.24,3,3,0,0,1-1.68-5,16.38,16.38,0,0,1,2-2L581,434.32a25.27,25.27,0,0,1,2.64-2c-.6-1-1-1.56-1.32-2-2.16-3.12-2.64-6.24-1.68-10.2,9.24-35.88,18.24-71.88,27.36-107.76,2-7.8,7.8-12.6,16-12.84,4-.12,7.8-.12,11.76-.12h3a32,32,0,0,1,2-4.92,6.07,6.07,0,0,1,5.88-3.36c11.76-.12,23.52-.36,35.4-.48,17.64-.24,35.4-.24,53-.84a30.09,30.09,0,0,1,17.88,4.92,52.59,52.59,0,0,1,4.56,4c3,.12,6.72.24,10.56.36a18.16,18.16,0,0,1,9.84,3.24,10.71,10.71,0,0,1,4.44,12.24c-1.32,5.4-2.64,10.8-4.08,16.2a11.66,11.66,0,0,0,.12,6.72c4.68,15.36,9.36,30.6,13.92,46,.24.6.36,1.32.6,1.92a4.41,4.41,0,0,1-1.32,5.28L790.13,392c-23.88,23.88-47.88,47.76-71.76,71.76a9.62,9.62,0,0,1-7.44,3.12c-16.08-.12-32-.12-48.12-.24a5.6,5.6,0,0,0-4.8,2c-1.8,2.16-3.84,4.2-5.64,6.36a8,8,0,0,1-6.36,2.76L619.85,477a20.55,20.55,0,0,1-5.4-1.08c-2.64-1-3.24-3.24-1.56-5.52A14.29,14.29,0,0,1,615.77,466.36ZM739.25,435c-.12-.24-.12-.48-.24-.72h-3.84L593.81,435a14.61,14.61,0,0,1-4-.12,3.71,3.71,0,0,0-3.72,1.32l-23,22.32a23.69,23.69,0,0,0-1.8,2.16h4.2c19.08.12,38.16.12,57.24.24l87.36.36a5.94,5.94,0,0,0,4.8-2c4.08-4.2,8.28-8.4,12.48-12.48C731.45,443,735.29,439,739.25,435Zm2.16-15q15.12-57.6,30.12-115c-3.12-1.2-6.12-1.08-9-1-45.84.12-91.56.36-137.4.6-7.08,0-10.68,2.88-12.36,9.6-8.76,34.44-17.4,68.88-26.16,103.32-.24,1-.36,2-.6,3.48C637.85,420.64,689.33,420.28,741.41,420Zm34.68-111.72c-.48,1.44-.84,2.52-1.08,3.48-6.24,23.64-12.36,47.16-18.6,70.8-3.24,12.6-6.6,25.08-9.84,37.68-.48,2-1.2,3.84-3.24,4.56a11.46,11.46,0,0,1-3.48.36c-23.52.12-47.16.36-70.68.48q-39.78.18-79.44.48c-1.08,0-2.28.12-3.72.12,1.68,3.24,4.2,3.6,7,3.6l145-.72c6.6,0,11.16-3.6,12.72-10,2-8.28,4.08-16.44,6.24-24.72,6.72-27,13.44-53.88,20.16-80.88C777.41,311.8,777.77,310.12,776.09,308.32Zm10.8,75.48c-4-13.08-7.8-25.8-11.64-38.52a1.52,1.52,0,0,0-.72.12c-3.24,13.2-6.6,26.52-10,39.84h4.92c.84,0,1.8-.24,2.64-.24,2,0,3.24,1,3.36,2.4s-1,2.28-2.76,2.64c-1.2.24-2.4.24-3.6.36-1.92.24-3.84.36-5.88.6-2.16,8.76-4.32,17.28-6.48,25.8a3.65,3.65,0,0,0,.84.6c9.12-9.24,18.12-18.36,27.48-27.72-2-.84-3.84-1.32-3.6-3.36C781.85,383.44,784.61,384.4,786.89,383.8Zm-39-85c0-.24.12-.48.12-.84-3-1.56-5.88-3.12-9.6-3-30.12.48-60.12.84-90.24,1.32h-1.68c-1.68.12-2.16,1.08-1.92,2.52ZM619,471.16c.48.24.72.48,1,.48l25.8.72a4.15,4.15,0,0,0,2.4-.84,51.5,51.5,0,0,0,4.56-5h-4c-7.2,0-14.4.24-21.6-.12C623.09,466.12,621.05,468.4,619,471.16Z"/><path class="cls-3" d="M692,308.08c22.08-.24,44.28-.36,66.36-.6a14.65,14.65,0,0,1,3.24.12c2.16.24,3.12,1.32,2.88,3.48a19.18,19.18,0,0,1-.6,2.52c-8.4,32.64-16.8,65.16-25.2,97.8a19.86,19.86,0,0,1-.72,2.52c-.84,2.4-1.56,2.76-4.08,2.52-1.08-.12-2.16-.12-3.24-.24l-132.84-.72c-5,0-5.64-.84-4.32-5.52q12.6-48.24,25.08-96.48a20.68,20.68,0,0,1,.84-2.52,3.35,3.35,0,0,1,3.24-2.28h1.92c22.56-.24,45-.48,67.44-.6Z"/><circle id="Oval" class="cls-4" cx="633.98" cy="330.7" r="8"/><circle id="Oval-Copy" class="cls-4" cx="723.98" cy="370.7" r="8"/><path id="Line-3" class="cls-5" d="M656.5,327.5h43"/><path id="Line-3-Copy-2" class="cls-5" d="M678,370.8h21"/><path id="Line-3-Copy" class="cls-5" d="M656.5,337.5h66"/><circle id="Oval-Copy-2" class="cls-4" cx="616.98" cy="395.7" r="8"/><path id="Line-3-Copy-4" class="cls-5" d="M639.33,392.5h29.32"/><path id="Line-3-Copy-3" class="cls-5" d="M639.34,402.5h45.31"/></g><g id="Keyboard"><path class="cls-2" d="M541.21,409.4c-.12,2.52-.12,5-.48,7.44a9.2,9.2,0,0,1-1.92,3.72c-4.32,5-8.4,10.32-13.08,15.12-8.4,8.64-17.16,17-25.8,25.56-1.8,1.8-3.6,3.12-6.24,1.68-.6-.36-1.44-.12-2.28-.12L444,461.72l-146.16-2.88c-22.2-.48-44.52-1-66.72-1.32a16,16,0,0,0-4.08.6c-1.32.36-2.4.36-3.24-.72a2.57,2.57,0,0,1,.24-3.36c1.2-1.56,2.52-3,3.72-4.56C238.21,436,249,423,260.29,410.12a46.81,46.81,0,0,1,18-13.2c1.92-.72,3.6-1.44,5.64-.36a6.21,6.21,0,0,0,2.64.24q122.58,1.26,245,2.64a21,21,0,0,0,3.84-.48c2.16-.48,3.36-.24,4.2,1.92,1,2.76,1.56,5.64,2.28,8.4A1.78,1.78,0,0,1,541.21,409.4Z"/><path d="M353.57,463.36c-29-.6-64.32-1.44-99.6-2.16-9.24-.24-18.48-.48-27.84-.6-1.92,0-3.6-.24-4.8-2.16s-1.44-2.76.12-4.68c6.48-8.28,13-16.44,19.44-24.6,5.28-6.72,10.56-13.32,16-19.92A49.43,49.43,0,0,1,268,399.16a21,21,0,0,1,12.6-3.72c37.44.36,74.76.48,112.2.72,47.76.24,95.52.6,143.28.84,5.16,0,7.08,1.68,8.4,6.72,1,3.84.12,7.56-.24,11.4-.24,3.48-1.92,6-4.32,8.4-13.2,13.08-26.4,26.4-39.48,39.6a10.47,10.47,0,0,1-8.4,3.36C448,465.4,404,464.44,353.57,463.36Zm181.08-61c-1.56-.12-2.4-.12-3.24-.12-19.2-.12-38.4-.36-57.6-.36q-96.66-.54-193.44-1.2a16.59,16.59,0,0,0-9.24,2.64,44.26,44.26,0,0,0-11,10.08q-16,20.16-31.8,40.32a7.07,7.07,0,0,0-.6,1.56c87.84,1.92,175.32,4,263,5.88,1.08-5.88,4.2-10.56,7.68-15.12,10.56-14.16,22.32-27.36,33.84-40.8C533,404.44,533.57,403.72,534.65,402.4Zm-37.92,55.68,1.08.72a11.62,11.62,0,0,1,1.8-2.28c12-12.12,23.88-24.24,36-36.12,4.32-4.2,3.72-9.24,3.72-14.4a7.12,7.12,0,0,0-2.16,1.56c-1.56,1.8-3.24,3.6-4.8,5.4-10.68,12.48-21.72,24.72-31.32,38.16C499.61,453.28,498.29,455.8,496.73,458.08Z"/><path d="M393.89,414.4l-111.6-.72c-1.2,0-2.4,0-3.6-.12a2.21,2.21,0,0,1-2-2.16,2.25,2.25,0,0,1,1.92-2.64,18.16,18.16,0,0,1,3.6-.24c39.12.24,78.36.36,117.48.6,35.4.24,70.92.36,106.32.6a14.46,14.46,0,0,1,2.28,0,2.77,2.77,0,0,1,2.64,2.88,2.55,2.55,0,0,1-2.76,2.28h-2.64C468.29,414.76,431.09,414.52,393.89,414.4Z"/><path d="M383.21,427.72c-36.48-.48-72.84-1-109.32-1.56a18.16,18.16,0,0,1-3.6-.24,2.13,2.13,0,0,1-2-2.16,2.25,2.25,0,0,1,1.92-2.64,21.29,21.29,0,0,1,3.84-.24q83.34,1.08,166.56,2.28l53,.72a19.44,19.44,0,0,1,2.64.12,2.21,2.21,0,0,1,2,2.52,4.41,4.41,0,0,1-1.92,2.28,7.62,7.62,0,0,1-2.88.24c-22.68-.36-45.36-.6-68-1-14,0-28.2-.24-42.24-.36Z"/><path d="M371.69,437.8,481,439.24a11.68,11.68,0,0,1,2.88.24,2.28,2.28,0,0,1,2,2.52,2.36,2.36,0,0,1-2.28,2.28,19.44,19.44,0,0,1-2.64.12l-134.76-1.8-82.44-1.08a21.94,21.94,0,0,1-4-.24c-1.56-.36-2.4-1.32-2.16-2.76a2.36,2.36,0,0,1,2.4-2.16,18,18,0,0,1,3.6,0q54,.54,108,1.44Z"/></g><g id="PC"><path class="cls-2" d="M507,280.88c-6.36,20.16-13,40.08-17.64,61,2.52.12,4.92.36,7.2.48,11.28.36,22.68.48,34,.84a114,114,0,0,1,12.72,1.2,19,19,0,0,1,8.88,3.84,8.44,8.44,0,0,1,2.4,2.64c1.2,2.16,0,4.2-2.52,4.56a7.84,7.84,0,0,1-1.68,0c-13.56-1-27-.36-40.56.12-27.72,1.08-55.44.72-83,.12-6.72-.12-13.56-.6-20.28-.72a6.05,6.05,0,0,1-5.16-2.88c-2.28-3.6-3.84-7.44-2.76-11.76,2-8.16,4.2-16.2,6.48-24.36,2.64-9.72,5.4-19.32,8-29,.24-1.08.48-2.16.72-3.48h-4.08c-18.72,0-37.56.24-56.28-.12-16.2-.36-32.4-1.56-48.72-2.16-9.6-.36-19.2-.6-28.8-1-4.68-.12-5.52-.84-7.2-5.16a19.12,19.12,0,0,1-.72-9.72c2.4-17.88,4.44-35.88,7.32-53.76,3.12-20,7.2-40,10.56-59.88,1.68-9.6,2.52-19.2,4.32-28.8,3.48-18.12,6-36.36,11-54.12.48-1.56.84-3.12,1.32-4.68-2.52-2.64-2.64-3.48-1.08-6.6,3-5.76,7.8-9,13.92-10.32a7.38,7.38,0,0,1,1.68-.12c3.12.12,6.24.48,9.36.48q177.66.36,355.32.6a28.57,28.57,0,0,1,4.56.12,7.63,7.63,0,0,1,3.48,1.56c1.56,1.32,2.28,3.24,4.44,4.2.6.24.84,2.16.72,3.24-1.44,9.48-3,19-4.56,28.44-3.6,22.32-7.2,44.76-10.92,67.08-3.84,23.4-7.68,46.92-11.4,70.32-2.76,16.68-5.4,33.36-8.16,50a11.13,11.13,0,0,1-11,9.6c-5.4,0-10.92-.36-16.32-.48-8.64-.24-17.28-.36-25.8-.6-32-1-64.08-1.8-96.12-1A15.89,15.89,0,0,1,507,280.88Zm-57.24,1.56v.24l48.72.72h1.32c1.2-.24,1.44-1,1.08-2.28C483.73,281.6,466.69,282.08,449.77,282.44Z"/><path d="M508.25,286c-4.8,18.36-9.6,36.48-14.4,55h4c13.56,0,27,0,40.56.24a43.72,43.72,0,0,1,8.76,1.08,19.76,19.76,0,0,1,10.8,7,13.09,13.09,0,0,1,2.28,4c1.08,3.24-.72,5.88-4.08,6.24a19.38,19.38,0,0,1-2.64,0l-145-.72c-7.92,0-10.8-3.72-12.72-9a11.87,11.87,0,0,1,0-7.08c4.56-18,9-35.88,13.56-53.88.24-1.08.48-2,.72-3.36-1.2-.12-2.16-.12-3.12-.24-42.6-.24-85.08-.48-127.68-.84a30.66,30.66,0,0,1-7.44-.48c-6.36-1.44-9.12-7.08-7.44-13.32a127.48,127.48,0,0,0,2.64-13.8l12.24-74.88c4.08-24.6,8-49.32,12.12-73.92,2.64-16.08,5.28-32.28,7.92-48.36,1-5.64,4.2-9.72,8.88-12.72a14.77,14.77,0,0,1,7.8-1.92c49.56.12,99,.36,148.56.36l216.36.36c1.44,0,2.88-.12,4.2-.12a10.08,10.08,0,0,1,10.2,9.12c.6,4.44-.48,8.64-1.08,13q-5,35.1-10.32,70.2c-3.24,21.6-6.36,43.2-9.6,64.68-3.36,22.92-6.72,46-10.08,68.88-1.56,10.44-8.28,16-18.72,15.24-1.8-.12-3.72-.12-5.52-.12-42.72-.36-85.56-.6-128.28-.84A10.71,10.71,0,0,1,508.25,286ZM683.33,51h-3.72l-362.88-.72a12.06,12.06,0,0,0-12.48,10.56Q299,93.46,293.57,126c-5.4,32.64-10.68,65.16-16.08,97.8-.48,2.64-.84,5.28-1.2,8.28q189,1.44,377.4,2.76C663.53,173.56,673.37,112.6,683.33,51ZM270.41,267.52a29.28,29.28,0,0,0,3.12.12l40.92.36c32.88.12,65.64.24,98.52.48q112,.54,223.8,1.2a19.14,19.14,0,0,0,6.36-1.08c3.6-1.32,6-3.72,6.48-7.8.6-4.68,1.44-9.24,2.16-13.92.36-2.16.6-4.44,1-6.84q-189-1.44-377.4-2.76C273.65,247.48,272.09,257.32,270.41,267.52ZM502.73,286l-87.36-.72c-1.2,4.68-2.28,9.12-3.48,13.56-3.84,15-7.56,30-11.28,45a7.88,7.88,0,0,0-.12,4.08c1.2,4.32,3,5.52,7.92,5.64l143.64.72a15.68,15.68,0,0,0,2.76-.36c-1.32-1.44-2.16-2.52-3.12-3.36-3.72-3.12-8.16-4.08-12.72-4.2-14.64-.12-29.28-.12-43.8-.12-.84,0-1.68.12-2.52.12-.48,1.08-.6,2.16-1.2,2.76a3.65,3.65,0,0,1-2.76,1.2,2,2,0,0,1-1.8-2.4,12,12,0,0,1,.48-2.88c4.8-18.12,9.48-36.24,14.28-54.36C501.89,289.24,502.25,287.8,502.73,286ZM269.09,273c-.36,4.32,1.56,6.24,6.24,6.24q124.92.72,249.72,1.56c40.68.24,81.36.72,122,1.08,6.12,0,10.44-3.24,11.52-9.24.6-3.48,1.08-6.84,1.56-10.32,2.88-19.92,5.88-40,8.76-59.88,3.12-21.48,6.36-43,9.48-64.44,3.24-21.84,6.48-43.8,9.6-65.64.72-4.8,1.32-9.72,1.92-14.64.24-1.68.24-3.48-1.56-4.8-.24.84-.48,1.44-.6,2-1.32,8.4-2.64,16.8-4.08,25.2l-10.08,63c-3.36,21.12-6.84,42.24-10.2,63.24-3,18.36-6,36.84-8.88,55.2-1.08,7-5.4,10.8-11.64,12.48a30.2,30.2,0,0,1-8.76.84q-50.4-.18-100.8-.6l-262.8-1.44A6.89,6.89,0,0,0,269.09,273Z"/><path d="M244.37,66.52H212a19.38,19.38,0,0,1-2.64,0c-2.28-.24-3.12-1.32-2.76-3.48,2-14.4,4.2-28.92,6.24-43.32.6-3.72,1.08-7.56,1.68-11.28.48-3,1.2-3.72,4.2-3.72h1c21.36.24,42.72.48,64.08.84,6.12.12,6.72.84,5.88,7.08l-6.84,47.88a7.38,7.38,0,0,0-.12,1.68c-.24,3.6-.48,4-4.32,4.08h-34Z"/><path class="cls-2" d="M241.77,16.77a2.85,2.85,0,0,1-2.76-3,2.83,2.83,0,1,1,5.64.36A2.87,2.87,0,0,1,241.77,16.77Z"/><path class="cls-2" d="M235.45,13.2A2.76,2.76,0,0,1,232.81,16a2.63,2.63,0,0,1-3-2.28,2.92,2.92,0,0,1,2.76-3A2.87,2.87,0,0,1,235.45,13.2Z"/><path class="cls-2" d="M223.57,10.56a2.44,2.44,0,0,1,2.28,2.64A2.62,2.62,0,0,1,223.21,16a2.59,2.59,0,0,1-2.52-2.76A3,3,0,0,1,223.57,10.56Z"/><path class="cls-2" d="M263.9,40.62c-1.56-1.2-2.76-2-3.84-3-1.44-1.32-1.68-2.52-.84-3.72s2.4-1.44,4.08-.36a48.12,48.12,0,0,1,4.92,3.72c1.92,1.68,2.28,3.6.72,5.52a65,65,0,0,1-6.48,6.36,2.28,2.28,0,0,1-3.24-.12,2.36,2.36,0,0,1,0-3.48A43.59,43.59,0,0,1,263.9,40.62Z"/><path class="cls-2" d="M230.78,40c.84,1,1.56,1.92,2.28,2.88a7,7,0,0,1,1.32,2.16,4.78,4.78,0,0,1-.84,2.88c-1,1-2.28.72-3.24-.36-1.56-1.8-3.12-3.6-4.56-5.52A3.48,3.48,0,0,1,226,37.5c1.32-1.56,2.64-3.12,4.08-4.56,1.08-1.08,2.28-1.32,3.48-.24a2.39,2.39,0,0,1,.36,3.48C232.94,37.5,231.86,38.7,230.78,40Z"/><path class="cls-2" d="M252,36.3a14.15,14.15,0,0,1-1,1.92c-1.92,2.64-3.84,5.28-5.88,7.92a3.4,3.4,0,0,1-1.2,1.08,2.34,2.34,0,0,1-3-.12,6.15,6.15,0,0,1-.72-2.64A2.73,2.73,0,0,1,241,43c1.92-2.64,3.84-5.28,5.88-7.8a5.22,5.22,0,0,1,2.4-1.56C250.82,33.3,251.9,34.5,252,36.3Z"/><path d="M234.41,135.88l-32.76.72a11.59,11.59,0,0,1-2.88-.12,2.39,2.39,0,0,1-2.16-3c1.44-10.2,3-20.52,4.56-30.72,1.08-7.08,2-14.28,3-21.36.12-.84.24-1.68.36-2.64a3,3,0,0,1,3-2.52h2.64l66.12.72a14.52,14.52,0,0,1,2.28.12c1.68.36,2.28,1.32,2,3.12-1.08,6.36-2.16,12.6-3.12,19-1.56,11-3.12,22-4.56,33a2.83,2.83,0,0,1-2.52,2.64,23.3,23.3,0,0,1-2.88.24c-11.16.36-22.2.6-33.12.84Z"/><path class="cls-2" d="M230.08,89.22a2.85,2.85,0,0,1-2.76-3,2.83,2.83,0,1,1,5.64.36A2.87,2.87,0,0,1,230.08,89.22Z"/><path class="cls-2" d="M223.77,85.65a2.76,2.76,0,0,1-2.64,2.76,2.63,2.63,0,0,1-3-2.28,2.92,2.92,0,0,1,2.76-3A2.87,2.87,0,0,1,223.77,85.65Z"/><path class="cls-2" d="M211.89,83a2.44,2.44,0,0,1,2.28,2.64,2.62,2.62,0,0,1-2.64,2.76A2.59,2.59,0,0,1,209,85.65,3,3,0,0,1,211.89,83Z"/><path d="M232.49,145c10.92.24,21.84.36,32.64.6a19.44,19.44,0,0,1,2.64.12c2,.36,2.88,1.32,2.52,3.36-1.92,13.32-3.84,26.52-5.76,39.84-.48,3.6-1,7.08-1.56,10.68-.48,3-1.44,4-4.32,4.32A19.44,19.44,0,0,1,256,204c-21.6.12-43.2.12-64.8.24-3.84,0-4.56-1-4.08-4.8,2.4-16.56,4.68-33,7.08-49.56.12-.6.24-1.32.36-1.92.48-2.76,1.32-3.48,4.2-3.48h4.92C213.29,144.64,222.89,144.76,232.49,145Z"/><path class="cls-2" d="M220.08,156.22a2.85,2.85,0,0,1-2.76-3,2.83,2.83,0,1,1,5.64.36A2.87,2.87,0,0,1,220.08,156.22Z"/><path class="cls-2" d="M213.77,152.65a2.76,2.76,0,0,1-2.64,2.76,2.63,2.63,0,0,1-3-2.28,2.92,2.92,0,0,1,2.76-3A2.87,2.87,0,0,1,213.77,152.65Z"/><path class="cls-2" d="M201.89,150a2.44,2.44,0,0,1,2.28,2.64,2.62,2.62,0,0,1-2.64,2.76,2.59,2.59,0,0,1-2.52-2.76A3,3,0,0,1,201.89,150Z"/><path d="M424,69.16c-1.32,7.56-2.64,14.64-4,21.84-4.68,25.8-9.36,51.72-14,77.52-3.36,18.72-6.84,37.56-10.2,56.28a12.66,12.66,0,0,1-.72,2.88,2.49,2.49,0,0,1-2.76,1.8,2.42,2.42,0,0,1-2-2.64,18.53,18.53,0,0,1,.48-3.6Q401.93,161.86,413,100.6c1.92-10.44,3.84-20.76,5.76-31.56-1.32-.12-2.4-.24-3.6-.24-8.4-.12-16.8-.12-25.2-.12-24.48-.12-48.84-.36-73.32-.48a29.24,29.24,0,0,1-3.24-.12,2.46,2.46,0,0,1-2.52-2.52c0-1.56,1.08-2.28,2.52-2.52a18.58,18.58,0,0,1,2.64-.12l219.6,1.44c42.24.24,84.48.6,126.6.84h3c1.8.12,2.88,1.2,2.88,2.52s-1.08,2.4-2.88,2.52c-1.2.12-2.4,0-3.6,0L513.05,69.16q-42.84-.36-85.68-.48A25.11,25.11,0,0,1,424,69.16Z"/><path d="M526.49,83.92h16.08a16.12,16.12,0,0,1,4.2.36c2.28.48,3.24,2.16,2.76,4.44a3.59,3.59,0,0,1-.48,1.2c-4.2,9.84-8.4,19.68-12.36,29.52-1.44,3.48-3.84,4.8-7.56,4.68-9.24-.24-18.6,0-27.84,0a19,19,0,0,1-4.56-.48c-2-.6-2.88-2.16-2.4-4.32.24-1.08.72-2,1-3.12,3-9.48,6-18.84,9-28.32,1.2-3.84,1.32-3.84,5.52-3.84,5.52.12,11.16,0,16.68,0Z"/><path id="Line" class="cls-5" d="M502.5,117.5l41-29"/><path id="Line-Copy" class="cls-5" d="M530.5,117.5l-22-29"/><path d="M466.37,83.56h16.32a23.12,23.12,0,0,1,2.88.12c3.12.48,4.44,2.4,3.36,5.28-4.08,10.56-8,21.24-13.2,31.32-1.2,2.4-3,3.36-5.76,3.36-9.84-.12-19.68.12-29.4.12a14.74,14.74,0,0,1-3.24-.24c-2.76-.48-4-2.28-3.12-4.92,1.32-4.2,2.88-8.28,4.2-12.36l5.76-18.72c1.08-3.6,1.44-3.84,5.28-3.84,5.64.12,11.28,0,16.92-.12Z"/><path class="cls-5" d="M441.5,117.5l41-29"/><path class="cls-5" d="M469.5,117.5l-22-29"/><path d="M577.37,123.76H564.29c-1.32,0-2.64,0-4-.12-3.36-.36-4.56-2.28-3.48-5.4,1.2-3.84,2.76-7.56,4-11.4,2-6.48,4-13,5.88-19.44,1.08-3.48,1.44-3.72,5-3.72h33a21.85,21.85,0,0,1,4,.12c2.76.48,3.84,2.4,3,5a64.51,64.51,0,0,1-2.4,6.12c-3.48,8.16-7,16.2-10.44,24.36-1.32,3.24-3.36,4.68-7.08,4.44-4.8-.24-9.6-.12-14.4-.12Z"/><path class="cls-5" d="M565.5,117.5l41-29"/><path class="cls-5" d="M593.5,117.5l-22-29"/><path d="M482.45,184.36c-11.28.36-22.68.72-34,1.2a11.59,11.59,0,0,1-2.88-.12,2.36,2.36,0,0,1-2.16-2.4,2.47,2.47,0,0,1,2.16-2.52,18,18,0,0,1,2.64-.24c16.08-.36,32-.84,48.12-1.2l20.64-.36a29.24,29.24,0,0,1,3.24.12,2.21,2.21,0,0,1,2,2.52,4.66,4.66,0,0,1-2,2.28,7.62,7.62,0,0,1-2.88.24c-11.52.24-23.16.36-34.68.6C482.45,184.6,482.45,184.48,482.45,184.36Z"/><path d="M341.93,178.48h33.72a22.18,22.18,0,0,1,2.88.12,2.21,2.21,0,0,1,2,2.52,4.41,4.41,0,0,1-1.92,2.28,5.84,5.84,0,0,1-2.52.24h-68.4a11.84,11.84,0,0,1-2.88-.36c-1.2-.36-2-1.2-1.68-2.4a4.41,4.41,0,0,1,1.92-2.28,7.62,7.62,0,0,1,2.88-.24c11.28.12,22.68.12,34,.12Z"/><path d="M354.29,92.32c11,.12,22.08.36,33,.48a11.84,11.84,0,0,1,2.88.36,2.28,2.28,0,0,1,1.68,2.52,2.43,2.43,0,0,1-2,2.28,18.58,18.58,0,0,1-2.64.12L322,97a11.68,11.68,0,0,1-2.88-.24,2.33,2.33,0,0,1-2-2.28,2.22,2.22,0,0,1,2-2.52,11.68,11.68,0,0,1,2.88-.24C332.93,92,343.61,92.08,354.29,92.32Z"/><path d="M543.53,198.88H514.85a19.44,19.44,0,0,1-2.64-.12,2.57,2.57,0,0,1-2.4-2.28c-.24-1.2.72-2.4,2.28-2.76a10.32,10.32,0,0,1,1.92-.12c19.8-.24,39.6-.6,59.4-.84a10.32,10.32,0,0,1,1.92.12,2.46,2.46,0,0,1,.12,4.92,11.68,11.68,0,0,1-2.88.24h-29Z"/><path d="M473.09,199.72H450.53a29.24,29.24,0,0,1-3.24-.12,2.39,2.39,0,0,1-2.28-2.4,2.56,2.56,0,0,1,2.16-2.52,18,18,0,0,1,2.64-.24l47-.36h1.68a2.46,2.46,0,0,1,2.52,2.52c0,1.56-1.08,2.28-2.4,2.64a18.58,18.58,0,0,1-2.64.12h-22.8A.44.44,0,0,0,473.09,199.72Z"/><path d="M358.25,111.64c9,.24,15.36.48,21.84.72h1c2,.24,3.12,1.2,3,2.76-.12,1.32-1.2,2.28-3,2.4a23.06,23.06,0,0,1-2.88,0c-11.52-.24-23-.36-34.56-.6a29.42,29.42,0,0,1-3.24-.24,2.45,2.45,0,0,1-2.16-2.76c.12-1.44,1.08-2,2.52-2.16h1.92C348.65,111.64,354.77,111.64,358.25,111.64Z"/><path d="M359.21,132.76c-5.88.12-11.76.36-17.64.48a7.62,7.62,0,0,1-2.88-.24,4,4,0,0,1-1.68-2c-.36-1.2.48-2,1.56-2.52a5.28,5.28,0,0,1,1.92-.24h36.84a4.92,4.92,0,0,1,1.32.12c1.8.36,2.88,1.68,2.64,3.12s-1.32,2.16-3.24,2c-6.36-.12-12.6-.36-19-.48C359.21,132.88,359.21,132.88,359.21,132.76Z"/><path d="M357.53,146.56h-17a2.62,2.62,0,0,1-2.64-2.4c-.12-1.2.84-2.28,2.4-2.64a7.38,7.38,0,0,1,1.68-.12c9.6,0,19.2,0,28.8.12a18.32,18.32,0,0,1,3.6.36c1.92.36,2.88,1.68,2.52,3.12s-1.32,2-3.24,1.92l-14-.36a11.58,11.58,0,0,0-2,0Z"/><path d="M363.05,214.24c-3.6-.36-7.2-.72-10.68-1-7-.48-13.92-1-20.88-1.32-2.28-.12-3.48-1.08-3.6-2.52s1.2-2.64,3.48-2.64c5.16.12,10.2.48,15.36.84l14,1.08a30.15,30.15,0,0,1,3.24.48,2.37,2.37,0,0,1,1.92,2.88A2.66,2.66,0,0,1,363.05,214.24Z"/><path d="M335.21,220.12c5.4.36,10.92.6,16.32,1a5.9,5.9,0,0,1,2.52.48,2.3,2.3,0,0,1,1.68,2.76,2.22,2.22,0,0,1-2.28,1.92h-2.28c-8.52-.48-16.92-.84-25.44-1.32a4.92,4.92,0,0,1-1.32-.12,2.5,2.5,0,0,1-2-2.64,2.24,2.24,0,0,1,2-2.28,11.68,11.68,0,0,1,2.88-.24h7.8A1.89,1.89,0,0,1,335.21,220.12Z"/><path d="M340.85,154.84h7.8c1.92,0,3,.84,3.12,2.16s-.84,2.76-2.88,2.88c-5.28.36-10.68.6-16,.84a7,7,0,0,1-1.56-.24,2.32,2.32,0,0,1-1.8-2.76,2.13,2.13,0,0,1,2.16-2c1.8-.12,3.72-.12,5.52-.24,1.2-.12,2.4-.24,3.6-.24Z"/><path d="M459.41,213.52c-1.56-1.2-2.76-2-3.84-3-1.44-1.32-1.68-2.52-.84-3.72s2.4-1.44,4.08-.36a48.12,48.12,0,0,1,4.92,3.72c1.92,1.68,2.28,3.6.72,5.52A65,65,0,0,1,458,222a2.28,2.28,0,0,1-3.24-.12,2.36,2.36,0,0,1,0-3.48A43.59,43.59,0,0,1,459.41,213.52Z"/><path d="M339.89,194.32h5.88a10.32,10.32,0,0,1,1.92.12c1.56.36,2.4,1.32,2.28,2.64a2.47,2.47,0,0,1-2.28,2.4,10.32,10.32,0,0,1-1.92.12h-11.4a9.84,9.84,0,0,1-2.64-.24,2.49,2.49,0,0,1-2.16-2.52,2.43,2.43,0,0,1,2.4-2.52C334.73,194.2,337.25,194.32,339.89,194.32Z"/><path d="M464.21,158.8c-1-1.08-1.92-2-2.76-3-1-1.2-1.08-2.4,0-3.48s2.4-.84,3.6,0c.6.48,1.08,1.08,1.68,1.56,3.84,3.84,4,5.76.36,9.72a47.69,47.69,0,0,1-3.36,3.6,2.62,2.62,0,0,1-3.6.36c-1.08-.84-1.2-2.28-.12-3.84C461.45,161.92,462.77,160.36,464.21,158.8Z"/><path d="M426.29,212.92c.84,1,1.56,1.92,2.28,2.88a7,7,0,0,1,1.32,2.16,4.78,4.78,0,0,1-.84,2.88c-1,1-2.28.72-3.24-.36-1.56-1.8-3.12-3.6-4.56-5.52a3.48,3.48,0,0,1,.24-4.56c1.32-1.56,2.64-3.12,4.08-4.56,1.08-1.08,2.28-1.32,3.48-.24a2.39,2.39,0,0,1,.36,3.48C428.45,210.4,427.37,211.6,426.29,212.92Z"/><path d="M435.65,160.24c1,1.44,1.68,2.52,2.28,3.6.84,1.56.6,3-.48,3.84s-2.64.48-3.72-1a33.8,33.8,0,0,1-2.88-4.32c-1-1.8-1-3.72.6-5.16a34.07,34.07,0,0,1,5.64-4.44,2.48,2.48,0,0,1,3.72.84c.72,1.44.24,2.52-1,3.48S437.21,159,435.65,160.24Z"/><path d="M543.05,178.48c1.92,0,4-.12,5.88,0s3.12,1.08,3.12,2.64-1.2,2.64-3.12,2.64c-4.2,0-8.52,0-12.72-.12-2,0-3.12-1.08-3.12-2.52s1.08-2.52,3.12-2.52a65.05,65.05,0,0,1,6.84-.12Z"/><path d="M447.53,209.2a14.15,14.15,0,0,1-1,1.92c-1.92,2.64-3.84,5.28-5.88,7.92a3.4,3.4,0,0,1-1.2,1.08,2.34,2.34,0,0,1-3-.12,6.15,6.15,0,0,1-.72-2.64,2.73,2.73,0,0,1,.72-1.44c1.92-2.64,3.84-5.28,5.88-7.8a5.22,5.22,0,0,1,2.4-1.56C446.33,206.2,447.41,207.4,447.53,209.2Z"/><path d="M363.29,200.08c-1.2,0-2.4.12-3.6,0a2.28,2.28,0,0,1-2.16-2.4,2.32,2.32,0,0,1,2.16-2.52,42.35,42.35,0,0,1,7.8-.12,3.42,3.42,0,0,1,2,2,2,2,0,0,1-1.8,2.64,27.91,27.91,0,0,1-4.44.48Z"/><path d="M365.33,160.24a38,38,0,0,1-3.84-.36,2.28,2.28,0,0,1-2-2.52A2.43,2.43,0,0,1,362,155c2.28,0,4.56-.12,6.84,0a2.36,2.36,0,0,1,2.52,2.4,2.3,2.3,0,0,1-2.4,2.52c-1.2.12-2.4,0-3.6,0Z"/><path d="M337.37,58.48a2.85,2.85,0,0,1-2.76-3,2.83,2.83,0,1,1,5.64.36A2.87,2.87,0,0,1,337.37,58.48Z"/><path d="M329.45,56.2A2.76,2.76,0,0,1,326.81,59a2.63,2.63,0,0,1-3-2.28,2.92,2.92,0,0,1,2.76-3A2.87,2.87,0,0,1,329.45,56.2Z"/><path d="M317.57,53.56a2.44,2.44,0,0,1,2.28,2.64A2.62,2.62,0,0,1,317.21,59a2.59,2.59,0,0,1-2.52-2.76A3,3,0,0,1,317.57,53.56Z"/><path d="M462.41,263.08A10.17,10.17,0,0,1,452,252.88a10.86,10.86,0,0,1,10.68-10.68,10.27,10.27,0,0,1,10.56,10.2A10.58,10.58,0,0,1,462.41,263.08Zm5.52-10.68a5,5,0,0,0-5-4.92,5.53,5.53,0,0,0-5.64,5.52,5,5,0,0,0,5.4,4.92A5.53,5.53,0,0,0,467.93,252.4Z"/><path class="cls-2" d="M219.52,117.41c.49,1.87,1,3.57,1.56,5.27.79,2.38,1.57,2.81,4.51,2.47.39,0,.69-.17,1.08-.17a2,2,0,0,1,2.25,1.27c.3.94-.29,1.62-1.17,2.13-3,1.53-8.33.08-9.61-2.64a34,34,0,0,1-1.76-5.27c-.29-1-.49-2-2.06-2.38a1.6,1.6,0,0,1-1.27-2c.19-1,1.08-1.36,2.06-1.53a4.76,4.76,0,0,1,1.07,0c2-.08,2.94-.93,3-2.63,0-1.11-.29-2.3-.39-3.4a45.2,45.2,0,0,1-.69-6.21,6.37,6.37,0,0,1,3-5.44,4.68,4.68,0,0,1,5.59.17c1,.85,1.27,2,.68,2.72-.78,1.11-1.86.94-3,.34l-.69-.25a2.83,2.83,0,0,0-1.47,2.8c.1,2,.49,3.83.69,5.7.09,1.1.39,2.12.39,3.23C223.24,114,222,115.88,219.52,117.41Z"/><path class="cls-2" d="M252.31,100.18c-1.09.71-1.63,1.11-2.28,1.51a2.07,2.07,0,0,1-2.93-.2,3.35,3.35,0,0,1-.43-2.52c.54-1.62,4.23-3.24,6.51-2.93s3.58,1.71,3.79,4.24c.11,1.41,0,2.93.11,4.44s.22,2.93,2.17,3.44a2.29,2.29,0,0,1,1.74,2.63,105.57,105.57,0,0,1-1.52,11.71c-1.2,5.56-6.29,7.68-12.37,5.86-.22-.1-.33-.1-.54-.2-1.3-.71-2-1.82-1.3-2.93s1.62-1.41,2.92-1.21c5.32,1.11,6.62.3,7.49-4.75.22-1.51.43-3.13.54-4.64a22.45,22.45,0,0,0,0-2.73C251.55,109.47,253.18,104.62,252.31,100.18Z"/><path class="cls-2" d="M235.28,170.71a8.81,8.81,0,0,1,2.31,4,8.59,8.59,0,0,1,0,4.5,8.5,8.5,0,0,1-2.31,3.93l-4,3.92a8.6,8.6,0,0,1-4,2.25,9.5,9.5,0,0,1-4.62,0,8.67,8.67,0,0,1-4.06-2.28,8.43,8.43,0,0,1-2.35-3.95,8.8,8.8,0,0,1,0-4.5,8.43,8.43,0,0,1,2.32-3.93l2.25-2.19a.83.83,0,0,1,1-.17.93.93,0,0,1,.62.8,10.44,10.44,0,0,0,.59,3.06.84.84,0,0,1-.23.93l-.78.8a4,4,0,0,0-1.27,2.92,3.92,3.92,0,0,0,1.22,2.94,4.1,4.1,0,0,0,3,1.24,4.15,4.15,0,0,0,3-1.21l4-3.87a4.11,4.11,0,0,0,0-5.88,4.2,4.2,0,0,0-.66-.52.79.79,0,0,1-.35-.69,2.16,2.16,0,0,1,.65-1.74l1.31-1.21a.89.89,0,0,1,.56-.26,1,1,0,0,1,.62.15A13.15,13.15,0,0,1,235.28,170.71Z"/><path class="cls-2" d="M245.28,164.12a8.81,8.81,0,0,1,2.31,4,8.59,8.59,0,0,1,0,4.5,8.5,8.5,0,0,1-2.31,3.93L243,178.72a.83.83,0,0,1-1,.17.92.92,0,0,1-.63-.81,10.12,10.12,0,0,0-.59-3.06.82.82,0,0,1,.24-.92l.77-.81a4,4,0,0,0,1.27-2.91,3.88,3.88,0,0,0-1.21-2.94,4.12,4.12,0,0,0-3-1.24,4.17,4.17,0,0,0-3,1.21l-4,3.86a4.09,4.09,0,0,0,0,5.89,3.71,3.71,0,0,0,.65.52.77.77,0,0,1,.35.69,2.11,2.11,0,0,1-.65,1.73l-1.3,1.21a.84.84,0,0,1-.57.26,1,1,0,0,1-.62-.14,14.83,14.83,0,0,1-1.24-1,8.73,8.73,0,0,1-2.32-8.48A8.43,8.43,0,0,1,228.5,168l4-3.92a8.6,8.6,0,0,1,4-2.25,9.31,9.31,0,0,1,4.63,0A9,9,0,0,1,245.28,164.12Z"/></g><g id="Mail-Bubble"><path d="M637.73,140.68h-5.16c-1.8,0-3.72.12-5.52.12-2.88,0-4-1.32-3.36-4.08,1-4.8,2-9.6,3.12-14.4,6.84-31.2,13.8-62.4,20.64-93.6.12-.72.36-1.44.48-2.28.84-3.48,2.52-4.92,6.24-4.92,17.16,0,34.2,0,51.36-.12q115.92-.18,231.72-.48c1.44,0,2.88-.24,4.2-.12a2.81,2.81,0,0,1,2.64,3.84c-2.64,8.4-5.4,16.8-7.92,25.2-8.4,27.72-16.8,55.56-25.08,83.28-.12.36-.24.84-.36,1.2-1.08,3.36-2.4,4.32-6,4.32-11.64.12-23.4.36-35,.48q-75.78.9-151.56,1.68c-19.8.24-39.72.48-59.52.6a6.33,6.33,0,0,0-5.28,2.4c-3.36,3.84-6.84,7.68-10.32,11.4a14.38,14.38,0,0,1-1.44,1.32,3.15,3.15,0,0,1-3.6.84,2.7,2.7,0,0,1-1.56-3.24c.36-3.12.6-6.24,1-9.48C637.49,143.56,637.61,142.36,637.73,140.68Z"/><path id="Path-Copy" class="cls-3" d="M624.49,119.91h-5.16c-1.8,0-3.72.12-5.52.12-2.88,0-4-1.32-3.36-4.08,1-4.8,2-9.6,3.12-14.4,6.84-31.2,13.8-62.4,20.64-93.6.12-.72.36-1.44.48-2.28.84-3.48,2.52-4.92,6.24-4.92,17.16,0,34.2,0,51.36-.12Q808.21.45,924,.15c1.44,0,2.88-.24,4.2-.12a2.81,2.81,0,0,1,2.64,3.84c-2.64,8.4-5.4,16.8-7.92,25.2-8.4,27.72-16.8,55.56-25.08,83.28-.12.36-.24.84-.36,1.2-1.08,3.36-2.4,4.32-6,4.32-11.64.12-23.4.36-35,.48q-75.78.9-151.56,1.68c-19.8.24-39.72.48-59.52.6a6.33,6.33,0,0,0-5.28,2.4c-3.36,3.84-6.84,7.68-10.32,11.4a14.38,14.38,0,0,1-1.44,1.32,3.15,3.15,0,0,1-3.6.84,2.7,2.7,0,0,1-1.56-3.24c.36-3.12.6-6.24,1-9.48C624.25,122.79,624.37,121.59,624.49,119.91Z"/><path class="cls-2" d="M712.61,33.68h31.44a14.52,14.52,0,0,1,2.28.12,3.13,3.13,0,0,1,2.76,4,19.86,19.86,0,0,1-.72,2.52c-4.08,12.36-8,24.6-12.12,37a38.82,38.82,0,0,0-1.56,4c-.72,2.4-2.28,3.12-4.68,3.12-19.68.12-39.48.36-59.16.72-4.68.12-6.48-1.32-5.28-6.48,3.24-13.44,6.36-26.88,9.48-40.44,1.08-4.44,1.8-5,6.6-5h31.08A.9.9,0,0,0,712.61,33.68Zm29.16,9a1.66,1.66,0,0,1-.36-.48c-1,.72-1.92,1.32-2.88,2-8.28,5.4-16.56,10.8-25,16.08a32.53,32.53,0,0,1-5,2.4,6.32,6.32,0,0,1-7-1.32c-6.6-6.24-13.32-12.48-20-18.72a17,17,0,0,0-1.92-1.32c-3,12.84-5.88,25.32-8.88,38.28l59.4-.72C734.09,66.68,737.93,54.68,741.77,42.68Zm-56.52-4.56c.12.6.12,1,.24,1.08,6.48,6,12.84,12.12,19.32,18a3.23,3.23,0,0,0,2.4.36A20,20,0,0,0,710.45,56c8.16-5.16,16.32-10.44,24.48-15.72a12.12,12.12,0,0,0,1.56-1.44Z"/><path class="cls-2" d="M823.73,81.08c-16.92-.24-33.72-.48-50.64-.84a14.74,14.74,0,0,1-3.24-.24,2.43,2.43,0,0,1-2-2.28,2.24,2.24,0,0,1,1.8-2.4,12.15,12.15,0,0,1,3.6-.24c12,.12,24,.36,36,.48l66,1.08a14.74,14.74,0,0,1,3.24.24,2.22,2.22,0,0,1,1.92,2.28,2.24,2.24,0,0,1-1.8,2.4,11.68,11.68,0,0,1-2.88.24C858.41,81.68,841,81.32,823.73,81.08Z"/><path class="cls-2" d="M825.77,42.32c-13.8.24-30.36.6-46.92.84a20,20,0,0,1-3.84-.24,2.14,2.14,0,0,1-1.8-2.4,2.22,2.22,0,0,1,1.92-2.28,14.74,14.74,0,0,1,3.24-.24c15-.36,30.12-.6,45.12-.84,18.6-.36,37.32-.6,55.92-1h3a2.37,2.37,0,0,1,2.4,2.16c.24,1.32-.72,2.4-2.28,2.76a11.68,11.68,0,0,1-2.88.24C862.61,41.72,845.57,42,825.77,42.32Z"/><path class="cls-2" d="M845,55.52h20.52a14.74,14.74,0,0,1,3.24.24,2.47,2.47,0,0,1,2.16,2.52,2.68,2.68,0,0,1-2.16,2.52,2.64,2.64,0,0,1-1,.12c-13.8.12-27.6.36-41.4.48-1.32,0-2.64-.12-4-.24-2.16-.24-3.24-1.44-3.12-3S820.61,56,822.77,56H845Z"/><path class="cls-2" d="M790.49,62.36h-14c-2-.12-3.12-1.08-3-2.64s1.08-2.4,2.88-2.52c2.52-.12,5-.12,7.44-.12,6.12,0,12.12-.12,18.24-.12a23.12,23.12,0,0,1,2.88.12,2.54,2.54,0,0,1,2.4,2.64,2.3,2.3,0,0,1-2.52,2.4c-1.68.12-3.48,0-5.16,0h-9.12Z"/><path d="M930.44,164.08c-19.68-.36-39.36-.6-59.28-1-.48,1.08-.84,2-1.32,3a9.86,9.86,0,0,1-11.76,5.4,8.86,8.86,0,0,1-5.88-6.12c-.24-.84-.36-1.68-.6-2.76-20.4.24-40.8.36-61.44.6-1.2,3.24-3,6-6.36,7.44a10.48,10.48,0,0,1-6.36.48,9.87,9.87,0,0,1-7.44-9.24,10.24,10.24,0,0,1,7.2-10.2c5-1.56,9,.36,13,6.36,20.76-.24,41.88-.36,63.24-.6.36-.36,1-1.08,1.56-1.8,4.68-4.44,11.4-3.48,14,.72,1.08,1.68,2.52,1.56,4,1.56,17.76.24,35.52.6,53.28.84h4.56c4-5.16,7.32-6.6,11.52-4.92a9,9,0,0,1,5.28,9,8.81,8.81,0,0,1-7,8C936.56,171.88,933.56,169.84,930.44,164.08Zm-150.12-7.56a5,5,0,0,0-5,4.92,4.48,4.48,0,0,0,4.56,4.8,5.15,5.15,0,0,0,5.16-4.92A4.57,4.57,0,0,0,780.32,156.52ZM865.64,162a3.75,3.75,0,0,0-3.48-4,4.71,4.71,0,0,0-4.92,4.56c-.12,2.4,1.32,4.08,3.6,4.08A5,5,0,0,0,865.64,162Zm76.8,0a3.34,3.34,0,0,0-3.12-3.48,3.68,3.68,0,0,0-.24,7.32A3.71,3.71,0,0,0,942.44,162Z"/><path d="M1005.92,178.84c-6.6-.72-12.84-1.32-19-2-7.2-.72-14.28-1.56-21.48-2.4-1.68-.24-3.72-.12-4.56-2s.6-3.12,1.68-4.32C970,158.92,977.48,149.8,985,140.8c.84-1,1.8-1.92,2.64-2.88,1.32-1.32,2.76-1.2,4,.24a7.65,7.65,0,0,1,1,1.68c5.28,10.44,10.68,21,15.84,31.56a8.9,8.9,0,0,1,.72,4.32C1009,178.12,1007.84,179,1005.92,178.84Z"/><path id="Line-2" class="cls-5" d="M987.5,149.5l-2,11"/><circle class="cls-2" cx="985" cy="169" r="3"/></g><g id="Man"><path class="cls-2" d="M209.17,450.55a49.55,49.55,0,0,0,.84,11.88c1.92,12.84,4.08,25.56,5.88,38.4,1,6.84,1.68,13.68,2.28,20.52a48.09,48.09,0,0,1,.12,7.2c-.36,4.2-1.92,6.12-5.88,7.2a32.07,32.07,0,0,1-5.76,1c-12.12,1.08-24.24.6-36.24-.12-6.36-.36-12.6-.48-19-.6-7.44-.12-14.64,1.8-21.84,3.84S115.45,544.15,108,545a31.12,31.12,0,0,1-12-.84c-5-1.44-8.28-4.56-9.36-9.84C83.89,520,81,505.87,78.25,491.59c-1.56-8.28-2.76-16.56-4.2-24.84a27,27,0,0,0-.6-2.64c-1.68-.24-3.36-.36-4.92-.6a12.1,12.1,0,0,1-9.72-6.36,30,30,0,0,1-3-7.92,105,105,0,0,1-1.56-26.76c.48-7.92.72-16,1-23.88.48-15.36,1-30.72,4-45.84.72-3.48,1.56-7,2.64-10.44,2.52-8.4,7.56-14.76,15.6-18.24,5.64-2.52,11.52-4.56,17.4-6.6,2.16-.72,4.08-1.2,4.44-4,.24-1.92,1.92-3.12,3.72-3.72,3.72-1.2,4.44-4.32,4.56-7.44a76.15,76.15,0,0,0-.6-10.44c-1.32-15.36,1.92-29.4,11-42.12,7.2-10,15.48-18.6,26.64-24.24a52.48,52.48,0,0,1,8.16-3.24c4.2-1.08,7.56.72,9.12,4.68a30.94,30.94,0,0,1,1.56,5,8.83,8.83,0,0,0,4.08,6.36,16.22,16.22,0,0,1,3.36,3c2.16,2.4,2.76,4.56,1,7.08-2.76,4-3.24,8.4-3.6,13-1.08,14.16-8.64,23-22.08,27.36-1.68.48-3.36,1.08-5,1.44-1.92.36-2.64,1.56-3,3.36-.84,4.92-.48,9.72-.48,14.52,2.28.6,4.68.72,6.24,1.92s1.8,3.6,2.88,6c3,1.08,6.72,2.4,10.32,3.72,9.12,3.36,18.12,6.72,27.24,10.2a24.22,24.22,0,0,1,10.2,7.44c6,7.68,11.88,15.36,17.76,23,5.28,6.84,10.44,13.68,15.6,20.52.6.72,1.32,1.44,2.16,2.52,2.52-1,5.16-1.92,7.8-3l10.8-4.68c7.8-3.36,14.76-7.68,19.56-14.76,5.64-8,13.2-13.8,21.48-18.84a18.53,18.53,0,0,1,4.08-2c3.12-1.08,5.16.24,5.28,3.6v1.56h12.6c.6,0,1.32-.12,1.92-.12a3.39,3.39,0,0,1,3.48,1.92c.72,1.56,0,2.76-.84,4s-1.92,2-3.24,3.6a33.81,33.81,0,0,1,3.72.12c1.56.12,3,.48,3.6,2.28a3.34,3.34,0,0,1-1.68,4,33,33,0,0,1-5.88,2.76c-1.68.6-3.6.84-5.4,1.32-4.68,1.32-8.28,4.2-11.4,8.4,1.68-.36,3-.72,4.2-1a9.87,9.87,0,0,1,3.24-.24,3.1,3.1,0,0,1,2.52,4.8,5.57,5.57,0,0,1-1.92,2.16,114.59,114.59,0,0,1-10.8,7.44,19.42,19.42,0,0,1-6.84,1.92c-4.2.72-8.4,1.2-12.6,1.8a18.38,18.38,0,0,0-9.36,4.44c-1.2,1.08-2.64,2-3.72,3.12a20.43,20.43,0,0,0-2.16,3.12c-1.08,1.68-2,3.36-3.24,4.92-1.68,2.16-1.92,2.64-.48,4.56,3.84,5.16,7.92,10.08,11.88,15.12,1.2,1.56,2.88,2.76,4.08,4.32,1.44,1.92,3,2.28,5.28,1.56,8.88-2.4,17.64-4.92,26.64-6.6,12.6-2.52,25.32-4.44,38-6.48a46,46,0,0,1,8.16-.36c1.92,0,3.12-.72,3.72-2.4,1-2.64,1.92-5.28,2.76-8,1.44-4.68,2.88-9.36,5.64-13.56,1.32-2,3.48-2.88,5.28-4.2a3.24,3.24,0,0,1,2.88.6,3.44,3.44,0,0,1,.24,2.88,5.25,5.25,0,0,0-.48,5c1.56-1.08,3.12-2.16,4.44-3.24,2.88-2.28,5.64-4.56,8.4-6.72a29.06,29.06,0,0,1,13.08-5.64c3.84-.72,5.16.6,4.56,4.92l3.48-.72c1.2-.24,2.64-.24,3.12,1a4.64,4.64,0,0,1,0,3.36,38.9,38.9,0,0,1-3.6,5.52c2.64-.6,4.8-1,7-1.44a15,15,0,0,1,2.28-.36c3,.12,4.44,2.88,2.64,5.4a12,12,0,0,1-2.76,2.76c-1.8,1.44-3.72,2.76-5.52,4.08a11.34,11.34,0,0,0-4.56,5.76,24.26,24.26,0,0,1-8.16,10.8c-2.16,1.68-4.32,3.36-6.6,4.8-9.36,5.88-18.72,11.64-28.08,17.52a5,5,0,0,0-1.8,1.32c-2,2.88-5,4.44-8,6.12-11.4,6-22.44,12.6-34.44,17.4-13,5.16-26,10-39.12,14.88-7.92,3-15.48,1.08-22.68-2.4a43.8,43.8,0,0,1-6.6-3.6c-12-9.12-25.08-16.68-34.92-28.44l-1.44-1.8C209.65,450.31,209.41,450.43,209.17,450.55Z"/><path class="cls-2" d="M196.45,763.63c6.84-.6,13.56-1.32,20.28-1.92a21.31,21.31,0,0,1,5.52.24c2.52.48,3.6,2.28,2.52,4.56a109.93,109.93,0,0,1-5.16,9.84,6.74,6.74,0,0,1-6.72,3.24l-18.84-1.8a9.43,9.43,0,0,1-3.12-1,3.5,3.5,0,0,1-2.16-4c.6-3.36,1.44-6.72,2.16-10.2a5.61,5.61,0,0,1,.6-1.2c1.32-1.8,3.48-1.68,4.44.36A10,10,0,0,1,196.45,763.63Z"/><path class="cls-2" d="M300.49,793.39c-4-.6-8-1-11.88-1.8-4.32-1-5.4-3-4.32-7.2.6-2.28,1.2-4.68,1.92-7s1.56-3.12,4.08-2.88c7.08.84,14,1.68,21,2.76,3.6.6,4.44,2.64,2.88,6-1,1.92-2,3.84-2.88,5.88a6.54,6.54,0,0,1-6.84,4c-1.32-.12-2.64,0-4,0Z"/><path class="cls-6" d="M178.08,605.29c-4.92-.36-9.6-.6-14.16-1-10.56-.84-21.12-1.8-31.2-5.16-14.16-4.68-24.24-13.8-29.76-27.72-2.76-7-5.52-14-6.6-21.48-.12-.84-.24-1.68-.36-2.64a2.5,2.5,0,0,1,1.56-2.64,2.36,2.36,0,0,1,2.88.72c.36.36.6.84,1.2,1.56,5.16-1.32,10.32-2.64,15.48-3.84,7.68-1.8,15.24-3.72,22.92-5.16a70.39,70.39,0,0,1,13.32-1c10,0,19.8.12,29.76.24s20,.84,30-1.08c2.64-.48,5.16-1.08,7.2-2.88a3.44,3.44,0,0,0,1.32-2.4c.12-2.4,1-3,3.24-2.88s4.32.36,6.48.36l58,.72c17.28.24,34.44.24,51.72.72a141.86,141.86,0,0,1,36.12,5.76c13.2,3.84,17.4,9.24,18.6,23.76.6,8-.6,16-2.28,23.76-4.08,19-10.32,37.44-17,55.56-7.44,19.92-15.24,39.72-22.68,59.52q-14,37.62-28,75.48a8.26,8.26,0,0,1-6.36,5.64,50.13,50.13,0,0,1-21.12.24,32.11,32.11,0,0,1-15.48-8c-4.32-3.84-5.64-8.28-4.2-14q9.9-38.7,19.2-77.4c4.32-17.76,8.28-35.64,11.16-53.76.72-4.68,1.32-9.48,2-14.64-20.52-1.56-40.8-2.16-61.32-3.48-.48,3.84-.84,7.44-1.2,10.92-1.92,18.24-3.84,36.48-5.76,54.6-1.68,15.72-3.24,31.44-4.8,47.16-1.08,10.92-2.28,22-3.36,32.88a8.46,8.46,0,0,1-4,6.6c-4.68,3.36-9.36,6.36-15.12,7.44a28.77,28.77,0,0,1-13.56-.36,58.68,58.68,0,0,1-15.84-7.68,10.11,10.11,0,0,1-4.32-8c-2.88-36.84-4.92-73.8-4.44-110.76.12-10.92.36-21.84.6-32.76A6,6,0,0,1,178.08,605.29Z"/><path d="M404.72,382.88c1.32-.6,2.52-1.2,3.84-1.8a3.8,3.8,0,0,1,4.32.24,3.75,3.75,0,0,1,1.08,4.44,31,31,0,0,1-3,5,11.37,11.37,0,0,1-1.32,1.56,9.15,9.15,0,0,0,4.2-.6c1.32-.48,2.64-1.08,4-1.44,2.64-.6,4.56.84,4.2,3.48a19.4,19.4,0,0,1-2.28,6.72c-2.28,3.84-5.4,7.08-9.84,8.16s-6.72,3.84-8.16,8.16c-2.64,8-8.76,13-16.32,16.56a53.21,53.21,0,0,0-5.52,3.48c-1.32,1-2.64,1.92-4,2.76-3.36,2.16-6.84,4.2-10.32,6.36-1.8,1.08-3.6,1.92-5.76,3.12.6,4-2,5-5.64,6.36-8.52,3.12-16.68,7.08-25,10.44-16.08,6.72-32.28,13.32-48.36,19.8a117.62,117.62,0,0,1-14,4.2,18.75,18.75,0,0,1-12.24-1.08,43.2,43.2,0,0,1-8.16-4.08,118,118,0,0,1-27-23,69.49,69.49,0,0,0-7.2-7.44l.36,3.24c2.64,16,5.4,31.8,8,47.76,1,6.36,1.56,12.72,2.28,19.2a4.92,4.92,0,0,0,.12,1.32c1.08,9.48-6.72,14.76-14,13.8-4.08-.48-8.16-1.32-12.36-1.44-17-.6-34.08-1.8-50.88.84-11.4,1.8-22.68,4.56-34,6.84-3.72.72-7.56,1.32-11.28,1.8A17.09,17.09,0,0,1,95,547.4c-6.36-1.08-10.56-4.68-11.88-11a116.29,116.29,0,0,1-1.92-13A249.93,249.93,0,0,0,74,483.56c-1.08-3.84-1.8-7.92-2.76-11.76-.48-1.92-1.2-3.72-1.8-5.52-1.2-.12-2.16-.36-3.12-.48A12.31,12.31,0,0,1,55,456.44a52.93,52.93,0,0,1-1.8-12.24c-.72-16.56-.72-33.12.12-49.68.6-11.76,1-23.52,1.56-35.28A99.78,99.78,0,0,1,58,338.6c2.64-10.08,8.88-16.8,18.72-20.28,5.88-2,11.88-3.72,17.76-5.52,1.56-.48,2.76-1,3.24-2.76s1.8-2.64,3.6-3c1.08-.24,2.16-.48,3.6-.72-.24-4.44-.48-8.88-.72-13.56-3.84-.24-6.12-2.76-7.56-5.76-7.32-14.16-14-28.56-17.52-44.28a46.11,46.11,0,0,1-.84-14.64c.72-6.6,4-11.64,9.24-15.6a48.29,48.29,0,0,1,16.44-7.8,4.37,4.37,0,0,0,3.48-2.64c3.36-8.16,10.08-10.8,18.24-11.4,4.8-.36,9.36.72,13.92,1.56,1.32.24,2.52.48,4,.84.72-.84,1.32-1.8,1.92-2.64a12.58,12.58,0,0,1,2.4-2.64c3-2.52,6.48-1.8,7.92,1.8a28.5,28.5,0,0,1,1.32,5c1.92.24,3.84,0,5.4.72,2,.84,3,3,3.72,5.16a17.24,17.24,0,0,1-.84,12.72,11.93,11.93,0,0,0-.6,9.72,37.64,37.64,0,0,1,1.44,7.32,10.21,10.21,0,0,0,3.24,6.24c2,1.92,4,3.72,5.88,5.76,3,3.12,3.36,5.16.48,8.28-3.48,3.6-4.56,7.68-4.2,12.48a35.21,35.21,0,0,1-.36,4.92c-1,9.12-6,15.36-14,19.08-5.16,2.4-10.56,4-16.32,6.12-1.08,4-.6,8.52-.48,13.32,1.32.12,2.4.24,3.48.24,3.36.24,4.8,1.32,5.4,4.56.36,2,1.44,2.76,3.36,3.36,7.68,2.16,15.24,4.68,22.8,7a48.25,48.25,0,0,1,24,16.32c5,6.12,10,12.48,14.88,18.72,6.12,7.8,12.12,15.72,18.36,23.76,2.52-1.44,4.8-2.64,7.08-4a8.76,8.76,0,0,1,4.92-1.44,3.37,3.37,0,0,0,2.28-.84c5.64-4.08,11.28-8.28,16.8-12.36a22.65,22.65,0,0,0,6.72-7.56A24.83,24.83,0,0,1,282,343.4c4.32-2.16,8.4-4.56,12.6-6.84,1-.48,1.92-1.08,2.88-1.44,3.12-1.32,5.4,0,5.64,3.48.12,1.56,0,3,0,4.8,2.76.6,5.52-.36,8.16-.72,1.92-.24,3.84-1,5.76-1.2,4-.36,6.24,2.28,5,6.12a50.48,50.48,0,0,1-2,4.68,20.34,20.34,0,0,1,2.64-.12c2.88-.12,4.56,1.44,4.68,4.32A7.59,7.59,0,0,1,324.2,363a19.78,19.78,0,0,1-10.08,4.2c-1.92.24-4,.36-5.88.72-1.2.12-2.28.48-4.2.84,1.68.48,2.52.72,3.48,1.08a5.92,5.92,0,0,1,4.2,4.92c.36,2.4-.84,4.2-2.88,5.52-1.32.84-2.88,1.56-4.2,2.4a107.15,107.15,0,0,0-10.44,7.2,13.63,13.63,0,0,1-8.88,3.36c-3,0-6.12.12-9.12.12a11.23,11.23,0,0,0-6.72,2.16c-1.44,1.08-3.12,2-4.68,3.12a3.9,3.9,0,0,0-2,3.12,7.66,7.66,0,0,1-1.8,3.36c-1.08,1.44-2.4,2.76-3.84,4.32,1.8,2,3.48,4,5.16,6,2.88,3.36,5.76,6.48,8.52,10,1.44,1.92,3,2.28,5.4,1.92Q288.08,424.94,300,423c12.84-2.28,25.8-4.44,38.64-6.6l2.28-.36c3.36-.6,6.72-1.2,9.36,1.92,2.16-2.28,3.72-4.68,4-7.56.12-1.32.48-2.64.48-3.84a19.8,19.8,0,0,1,4.56-12c2-2.64,4.08-5.4,6.24-8,1.2-1.44,2.4-3,4.56-2.52s2.88,2.4,3.36,4.44c.24,1,.24,1.92.48,3.24,2.4-2.28,4.56-4.2,6.6-6.24a15.45,15.45,0,0,1,9.12-4.56,56,56,0,0,0,8.52-2.28c4.32-1.44,6-.24,6.36,4.32C404.48,382.4,404.6,382.52,404.72,382.88Zm-301.92-71c-1.8,4.32-1.8,4.32-6.12,5.64-5.76,1.8-11.52,3.48-17.16,5.28-9.12,2.88-14.88,9-16.68,18.36a131.64,131.64,0,0,0-2.52,18.12c-.84,11.64-1,23.28-1.68,34.92-1,16.8-.84,33.6-.24,50.4a45.12,45.12,0,0,0,1.2,9c1.08,4.8,3.84,7,8.76,7.08,1,0,1.92-.12,2.88-.12A2.52,2.52,0,0,1,74,462.68c1.44,5.88,2.88,11.88,4.56,17.64a266,266,0,0,1,7.92,43.44,97.57,97.57,0,0,0,1.8,11.64,8.05,8.05,0,0,0,7.56,6.72,40.52,40.52,0,0,0,9.36-.36c7.2-1.32,14.4-2.76,21.48-4.56,23-5.76,46.44-5.52,70-4.32,4.44.24,8.88,1.2,13.32,1.44,5.4.36,8.28-2.52,7.92-7.8s-.84-10.68-1.68-16c-1.44-9.84-3.24-19.56-4.92-29.4-2.16-12.6-4.32-25.08-6.48-37.68-.84-5.16-1.8-10.32-2.52-15.48-.36-2.4.72-4,2.28-4.08s2.52,1.08,2.88,3.6c.72,4.92,1.56,9.84,2.52,14.88a4.88,4.88,0,0,0,1,2.28c4.32,4.92,8.88,9.6,13.2,14.52a116.39,116.39,0,0,0,25.68,21.6,40.83,40.83,0,0,0,6.48,3.24,15,15,0,0,0,10.2.84c4.2-1.2,8.4-2.28,12.48-3.84,11-4.32,22.08-8.76,33-13.32,13.8-5.76,27.48-11.64,41.28-17.4a2.79,2.79,0,0,0,1.8-2.76c.72-9.48-1.44-18.12-7.8-25.56a4.28,4.28,0,0,0-4.32-1.56c-9,1.44-18.12,2.64-27.12,4.2-12.84,2.28-25.68,4.8-38.52,7.2a5.93,5.93,0,0,0-1.92.6c-3.48,1.92-3.48,1.92-6.12-1.08-4.8-5.64-9.72-11.28-14.52-16.8C238.16,395.48,222,376.28,207.08,356c-4-5.4-8.28-10.44-12.6-15.48a42.23,42.23,0,0,0-20.28-13.68c-8-2.52-16-5-24.12-7.32-3.24-1-5.64-2.28-6-6a6.16,6.16,0,0,0-.6-1.44C130,311.12,116.36,310.52,102.8,311.84Zm56.76-88.08A32.4,32.4,0,0,1,139,235.4a27.08,27.08,0,0,0-.36,4.2c.12,3.12.48,6.24.72,9.48.12,1.56.48,3.12-1.08,4.2s-2.88.24-4.2-.6a25.9,25.9,0,0,0-4.08-2,5,5,0,0,0-4.68.24c-3,1.8-4.8,6.6-3.84,10.08,1.2,4.56,4.08,7,8.28,7.08.72,0,1.56-.12,2.28-.12,3-.12,4.08,1,4.08,4.08a23.6,23.6,0,0,1-.36,2.88,38.12,38.12,0,0,1-7.8,15.36c-1.8,2.16-3.6,3.48-6.36,1.56-4.2,4.32-8,1.92-12.36-.72.36,5.28.6,10.08,1,14.88H135c0-2.4-.12-4.56,0-6.72.24-3,.6-6,1.08-9.12.24-1.68,1.32-2.52,3.12-2.76a52.31,52.31,0,0,0,17.76-6.24c4.92-2.88,8.28-7.2,8.88-13.08.36-4,.48-8,.6-12.12a5.33,5.33,0,0,1,1.92-4.56,37.1,37.1,0,0,0,4-4.68c-2.28-2.28-4.2-4.32-6.24-6.24a14.43,14.43,0,0,1-4.92-9.6C160.64,228.68,160,226.52,159.56,223.76ZM398.12,384.32c-.12-.24-.24-.36-.36-.6a28.33,28.33,0,0,1-5.28,1.32c-4.44.24-7.8,2.4-10.68,5.52l-.72.72-10.44,10.8c-1,1.08-2,1.68-3.48.84a2.58,2.58,0,0,1-1.08-3.36,25.13,25.13,0,0,0,1-2.76c.36-1.56.72-3.12,1.08-4.8-4.8,4.44-8.64,9.24-8.52,16A18.68,18.68,0,0,1,355,420c-.48.6-.72,1.2-1.2,1.92,4.68,6.24,5.88,13.44,7,21.12,3.12-1.92,5.88-3.6,8.64-5.28a72.26,72.26,0,0,0,7.08-4.68,24.26,24.26,0,0,1,7.08-4.44c7-3,11.88-7.92,14.28-15.24A26.22,26.22,0,0,1,399,410.6a7.07,7.07,0,0,1,4.8-4.92c1.8-.6,3.72-1.32,5.52-2a13.54,13.54,0,0,0,6.72-6.72c-2.16.48-3.72,1.08-5.28,1.08-5.88.36-10.2,3.36-13.92,7.56-.48.48-.84,1-1.32,1.44a6,6,0,0,1-1,.84,2.52,2.52,0,0,1-3,0,2.43,2.43,0,0,1-.6-3.24,5,5,0,0,1,1.2-1.56c2.4-2.28,4.8-4.44,7.08-6.72s4-4.56,6-6.84c-6,1-11.64,2.16-15.36,7.2A30.31,30.31,0,0,1,385.4,401c-.84.72-1.56,1.56-2.4,2.16-1.56,1.32-3,1.44-4.08.48s-.84-2.64.6-4.32c.36-.36.84-.72,1.2-1.08,1.92-1.92,4-3.72,5.88-5.64,2.88-3,5.88-5.88,10.2-6.84C397.16,385.64,397.64,384.8,398.12,384.32ZM260.72,394.4c2-1.32,3.72-2.28,5.28-3.48a17.22,17.22,0,0,1,10.44-3.36c3,0,5.88-.12,8.88-.12a7.06,7.06,0,0,0,5-1.8,56,56,0,0,1,13-8.76c1.08-.48,1.92-1.2,3.36-2-1.08-.48-1.56-.84-1.92-.72-1.56.36-3.12.72-4.68,1.2-2.64.84-5.28,1.92-8,2.64a3.73,3.73,0,0,1-2.88-.84c-1.08-1-.6-2.16.24-3.24l1.44-1.8c2.16-1.92,4.2-3.84,6.48-5.52A20.31,20.31,0,0,1,309,362a50.64,50.64,0,0,0,9.24-1.92c1.08-.36,2.4-.84,2.76-2.28-5.4.12-10.56.36-15.72.48a12.36,12.36,0,0,0-6.24,1.56c-3.12,1.68-6.24,3.24-9.36,4.8a8.15,8.15,0,0,1-2.4.84A2.07,2.07,0,0,1,284.6,364a4.71,4.71,0,0,1,.72-2.88c.36-.6,1.44-1,2.16-1.32,2.52-1.32,5.16-2.4,7.56-3.84a19.71,19.71,0,0,1,11.88-2.88c4.68.36,7.32-2.52,9.72-6.24-.6-.12-1-.24-1.2-.12-4.92.72-9.84,1.56-14.88,1.92a24.12,24.12,0,0,0-10.8,3.24c-1.8,1.08-3.6,2-5.4,3.12-.72.36-1.32,1-2,1s-2.16-.24-2.52-.84-.24-2,0-3c.12-.48.72-.84,1.2-1.08,4.56-2.4,9-4.8,13.68-7a4.91,4.91,0,0,0,3-3.6,25.88,25.88,0,0,0-2.4,1.08c-3.72,2-7.44,4.2-11.16,6.12a21,21,0,0,0-9.36,8.88,27.47,27.47,0,0,1-8.28,9.12c-4.68,3.48-9.24,6.84-13.92,10.32-.72.6-1.44,1.2-2.28,1.92A44.7,44.7,0,0,1,260.72,394.4ZM253.4,405c1.2-1.32,2-2.28,3-3.24a2.22,2.22,0,0,0,.48-2.64,43.09,43.09,0,0,0-8.52-15.6,11.18,11.18,0,0,0-4.92-3.6c-2.4,1.44-4.8,2.76-7.32,4.32C241.88,391.16,247.52,397.88,253.4,405Z"/><path d="M190.4,774.56c2.28.12,4.32.12,6.24.36,4.92.36,9.84.72,14.64,1.2a6.38,6.38,0,0,0,4.8-1.44c2.28-1.68,4.56-3.24,7.2-5V764a9.84,9.84,0,0,1,.24-2.64,2.42,2.42,0,0,1,4.8.24,42.39,42.39,0,0,1,.12,5.52,4.26,4.26,0,0,0,2.88,4.8q5.94,2.52,11.52,5.4,10.08,5.22,20.16,10.8a22.32,22.32,0,0,1,3.36,2.52A4.06,4.06,0,0,1,268,795a3.85,3.85,0,0,1-3.72,2.64,33.78,33.78,0,0,1-4.92.24c-5.64-.36-11.28-.6-16.92-1.2-16.08-1.56-32-3.24-48.12-4.92a30.15,30.15,0,0,1-3.24-.48c-4.56-1-6.48-3.12-6.36-7.68.24-6.24.84-12.36,1.32-18.6a5.1,5.1,0,0,1,.24-1.32,2.38,2.38,0,0,1,4.68.48,65.3,65.3,0,0,1-.36,6.84A13.42,13.42,0,0,1,190.4,774.56Z"/><path d="M285.2,787.88c4.2.72,8,1.44,11.88,1.8a7.16,7.16,0,0,0,3.36-1c3-1.08,5.88-2.4,8.76-3.48a3.26,3.26,0,0,0,2.28-2c.6-1.56,1.32-3,2-4.44,1-1.68,2.4-2.28,3.72-1.56s1.56,1.92,1,3.72-1.32,3.24-2.16,5a35.42,35.42,0,0,0,4,1.68c6.84,2.4,13.8,4.68,20.64,7.08,3.84,1.32,7.44,3,11.16,4.56,2.16,1,4.2,2.4,3.72,5.16s-2.64,3.72-5,4a91.88,91.88,0,0,1-14,.84c-7.68-.24-15.48-.72-23.16-1.56-9.48-1.08-19-2.52-28.44-3.84a19.18,19.18,0,0,1-2.52-.6,6.16,6.16,0,0,1-4.44-5.88,24.58,24.58,0,0,1,.72-6.72c1.44-4.8,3.12-9.48,4.8-14.28,1-2.76,2.28-3.6,3.84-3s2,2.16,1,5c-.84,2.16-1.56,4.32-2.4,6.48A7.78,7.78,0,0,1,285.2,787.88Z"/><path d="M100.54,172.89c0,1.8.12,3,0,4.2a2.43,2.43,0,0,1-2,2.28,2.29,2.29,0,0,1-2.64-1.44,13.15,13.15,0,0,1-.72-3.12c-.84-7.2-1.56-14.52-2.28-21.72-.12-.72-.36-1.68,0-2.16A4.41,4.41,0,0,1,95.14,149c.72-.12,1.68.72,2.28,1.44.48.48.48,1.44.6,2.16C99,159.45,99.7,166.53,100.54,172.89Z"/><path d="M88.06,183c.12,1.8-.36,2.88-1.68,3.24a2.53,2.53,0,0,1-3-1.44c-.12-.24-.24-.6-.36-.84l-8.28-21.24a10,10,0,0,1-.72-2.52c-.12-1.32.36-2.52,1.8-2.76.84-.12,1.92.6,2.76,1.08.36.12.48.72.6,1.08l8.28,20.88C87.7,181.53,87.94,182.49,88.06,183Z"/><path d="M117.94,153.33c-.36,2.4-.72,4.92-1.2,7.56-.6,3.84-1.2,7.68-1.8,11.64a15.43,15.43,0,0,1-.48,2.28,2.56,2.56,0,0,1-5-.84,14.7,14.7,0,0,1,.24-2.28c1-6.24,1.92-12.48,2.76-18.72.36-2.4,1.08-3.48,2.64-3.24C116.74,149.73,117.94,151.17,117.94,153.33Z"/><path d="M159.92,271.76c-4.32-.36-7.8-1.56-10-5.28a8.32,8.32,0,0,1-1-3.36,2,2,0,0,1,1.92-2.28,7.26,7.26,0,0,1,2.52,1c.24.12.36.6.48.84.84,2.52,2.88,3.48,5.28,3.72.6.12,1.32.12,1.92.24a2.52,2.52,0,0,1-.24,5A3.38,3.38,0,0,1,159.92,271.76Z"/><path d="M159.56,239c0,2.88-1,4.44-2.52,4.8-1.8.48-3.24-.48-4.08-2.88a16.22,16.22,0,0,1-.6-3.48,3,3,0,0,1,2-3.36,3.83,3.83,0,0,1,4.2,1.92A16.56,16.56,0,0,1,159.56,239Z"/></g><g id="Chair"><path class="cls-2" d="M195.23,582.41c4.92.24,9.48.48,14,.6l65.4,2.16c4.92.12,9.84.36,14.76.6,1.44,0,2.76-.48,4.2-.36a29.2,29.2,0,0,1,6.6,1.2c1.92.6,3.6,1.92,5.4,2.88a8.73,8.73,0,0,1,4.68,6c.48,2.28-.6,3.48-3,3.48l-65-1.44c-42.72-.84-85.56-1.68-128.28-2.4l-26.52-.36c-1.2,0-2.4.24-3.6.24-2.76,0-4-1.56-3.6-4.44a6,6,0,0,0-.12-2.52c-7.2-37.2-14.52-74.52-21.72-111.72-6.84-34.92-13.56-69.72-20.28-104.64a22.07,22.07,0,0,1,.36-6.84A35,35,0,0,1,43.07,352a24.69,24.69,0,0,1,11.4-10.44c5.76-2.76,11.88-4.32,18-5.76,11.52-2.64,23-5.28,34.8-5.52,9.12-.24,18.36-.36,27.48-.12,7.56.24,15.24.6,22.8,2.16,6.24,1.32,12.24,3.24,17.52,7,1.2.84,2.4,1.56,3.6,2.28a21.74,21.74,0,0,1,11,14.28c.36,1.32.48,2.64,2.28,3.12.84.24,1.44,1.8,1.8,2.88.48,1.92.24,3.84,1.8,5.52.48.48.36,1.44.36,2.16v3.6q-.36,102.06-.6,204.24C195.23,579.05,195.23,580.49,195.23,582.41Z"/><path d="M80.6,599.68c-2.16-.48-2.76-2.28-3.12-4.32-4.08-21.24-8.16-42.36-12.24-63.6-6.24-32.4-12.48-64.92-18.6-97.32-3.72-19.56-7.56-39.12-11.28-58.8A40,40,0,0,1,35.12,361c1.8-10.92,8.28-17.88,18.36-22,12.36-5,25.08-7.8,38.16-9.72,24.12-3.48,48-3.48,71.76,3A126.42,126.42,0,0,1,178,337.84c7,2.88,11.4,8.28,14.28,15a64,64,0,0,1,5,19.92c1.08,12.84,2.4,25.68,2.52,38.52q.36,53.64-.12,107.28c-.12,16.08-1.44,32.28-2,48.36-.24,4.92,0,9.72,0,14.88.24,0,.6.24,1.08.12,18.12-.84,36.24.24,54.36.72,12.72.36,25.56,1,38.28,1.68a58.85,58.85,0,0,1,12.84,2.28,11,11,0,0,1,8.28,9.6,7,7,0,0,1-.36,3.48,10.54,10.54,0,0,0-.72,5c1.44,13.8,2.88,27.6,4.32,41.28,1.2,11.64,2.4,23.16,3.6,34.8,1.44,14,2.88,28,4.32,42,1.44,13.56,2.76,27.12,4.2,40.68,1,9.6,2,19.32,3,28.92.12,1.56.24,3,.36,4.56s-.6,2.64-2.16,2.76a2.39,2.39,0,0,1-2.76-2.16c-.36-2.52-.72-5.16-1-7.8-1.92-18.6-3.84-37.32-5.76-55.92-1.8-17.88-3.6-35.76-5.52-53.64-2-19.92-4.2-40-6.24-59.88-.6-5.28-1.08-10.68-1.56-16,0-.48-.24-1.08-.36-1.92L198.56,601c.24,3.12.48,5.64.84,8.28,2.4,21.72,4.8,43.32,7.08,65,2.28,20.76,4.68,41.64,7,62.4,1.8,16.92,3.72,33.84,5.52,50.76.24,2.52.6,5,.84,7.44a7.27,7.27,0,0,1,0,2.28,2.31,2.31,0,0,1-2.16,2,2.25,2.25,0,0,1-2.52-1.68,19.74,19.74,0,0,1-.6-3.84c-2.4-21.72-4.8-43.32-7.08-65-2-18.84-4.08-37.68-6.12-56.64s-4.2-37.68-6.24-56.52c-.48-4.8-1.08-9.48-1.56-14.52L87.2,599.56c-.24.84-.6,1.68-.72,2.4-2.88,18.48-5.76,37.08-8.64,55.56C75,676.36,72,695.2,69.08,714S63.2,752,60.2,770.92c-1.2,7.32-2.28,14.64-3.36,22a19.18,19.18,0,0,1-.6,2.52A2.42,2.42,0,0,1,53.6,797a2.31,2.31,0,0,1-2-2.16,14.74,14.74,0,0,1,.24-3.24c1.8-11.88,3.72-23.64,5.52-35.52,3-18.84,5.88-37.68,8.88-56.52s5.88-37.92,8.88-56.88c2.16-13.92,4.32-27.84,6.48-41.64C80.72,600.52,80.6,600.16,80.6,599.68Zm110.88-4c.12-1.44.24-2.52.24-3.6.48-13.68,1.08-27.48,1.56-41.16.6-16,1.2-31.8,1.56-47.76.24-13.92,0-28,0-41.88-.12-25.2.84-50.4-1.2-75.6-.6-7.68-1.32-15.48-3.24-22.92-1.44-5.52-3.36-10.8-7.32-15.24a21,21,0,0,0-4-3.36,70.91,70.91,0,0,0-18.84-7.44c-21-5.4-42.24-5.64-63.6-2.88-14,1.8-27.84,4.56-41.16,10-8.4,3.36-13.68,8.88-15.24,18a40.24,40.24,0,0,0,.36,13.68l17.64,92.16c7,36.12,13.8,72.12,20.76,108.24,1.2,6,2.28,12,3.6,18.24Q137,595.06,191.48,595.72Zm115.68,1.56c-.72-3.36-1.8-4.92-4.68-5.64a56.5,56.5,0,0,0-10.92-2c-10-.6-19.8-1-29.76-1.32s-20-.84-30.12-1-20.52-.12-30.72-.24c-1.2,0-2.52.24-3.84.36v8.28C233.84,596.32,270.32,596.8,307.16,597.28Z"/><path d="M31.93,798.22l-16.2.72c-3.72.12-7.44.36-11,.36a11.84,11.84,0,0,1-2.88-.36A2.45,2.45,0,0,1,0,796.18a2.31,2.31,0,0,1,2.16-2,4.86,4.86,0,0,1,1.32,0l25.08-1.08a19.06,19.06,0,0,1,4.56.24,2.61,2.61,0,0,1,1.8,3.36C34.45,798,33.37,798.82,31.93,798.22Z"/></g></g></g></g></g></svg>