<svg xmlns="http://www.w3.org/2000/svg" xmlns:xlink="http://www.w3.org/1999/xlink" viewBox="0 0 1200 1200"><defs><style>.cls-1{isolation:isolate;}.cls-2{fill:#ededf4;}.cls-3{fill:#4b8a1b;}.cls-4{fill:#185737;}.cls-5{fill:#c4d5bf;}.cls-6{fill:#d33737;}.cls-7{fill:#510202;}.cls-8{fill:#9b0000;}.cls-11,.cls-9{opacity:0.5;mix-blend-mode:overlay;}.cls-9{fill:url(#linear-gradient);}.cls-10{fill:#098820;}.cls-11{fill:url(#linear-gradient-2);}</style><linearGradient id="linear-gradient" x1="689.93" y1="494.93" x2="912.32" y2="813.54" gradientUnits="userSpaceOnUse"><stop offset="0" stop-color="#fef1ef"/><stop offset="1" stop-color="#fead9c"/></linearGradient><linearGradient id="linear-gradient-2" x1="366.52" y1="374.23" x2="568.38" y2="786.22" gradientUnits="userSpaceOnUse"><stop offset="0" stop-color="#dffcc4"/><stop offset="1" stop-color="#f863fa"/></linearGradient></defs><g class="cls-1"><g id="Layer_1" data-name="Layer 1"><path class="cls-2" d="M122.29,681.35c-10.7,93.68,1.46,198,87.45,253.42,36.68,23.65,82.25,37.73,126,38.66h633c238-233.6,24.38-275.4,18.65-311.31s28.82-63.74,39-97.19c23.78-78.12,20-160.12-47.82-215-61.72-49.89-126.37-47.2-192.91-9.88C736.8,367.47,684.34,408,628.07,373.93c-17.61-15-31.68-33.52-46.73-50.22-45.38-50.39-99.59-97.14-176.42-97.14C259.37,234.94,202,410.9,234.79,532.59c4.31,16,12.47,44.5-1.89,58.14-9.2,8.74-24.8,7-36.43,7.57C146.23,600.67,127.8,633.2,122.29,681.35Z"/><path class="cls-3" d="M796.7,508.32c-2.55-2.23-4.46-3.9-5.62-4.93C706.15,554.81,670.52,625,679.14,723.87l5.67,0c-3.75-45.81,3.05-86.66,20.17-121.42C723.31,565.3,754.15,533.64,796.7,508.32Z"/><path class="cls-4" d="M942.49,632.67C898.59,591.81,846.14,545.24,818,520.4l-1.24-1.09-11.48-10.09-2-1.77-.56-.5-.12-.1h0l-1.32-1.17L793,498.5l-1.35-1.19-1.53.92c-88.49,53-125.25,125.53-115.66,228.32l.21,2.22,2.23,0,8.38,0,1.82,0h.42c6.66,0,16.21.1,27.87.14h.56c11.12,0,23.35.06,36.38.06,44.48,0,98-.26,145.78-1.25,118.47-2.44,121-7.58,122.42-10.34C1022,714.35,1024.65,709.15,942.49,632.67ZM684.81,723.9l-5.67,0c-8.62-98.91,27-169.06,111.94-220.48,1.16,1,3.07,2.7,5.62,4.93-42.55,25.32-73.39,57-91.72,94.16C687.86,637.24,681.06,678.09,684.81,723.9Zm29.38.16-24.42-.12c-7.84-94.24,28.39-163.67,110.72-212.15h0l.11-.06L812,521.79C765.17,549.81,706.76,633.63,714.19,724.06Zm180.75-1.14c-61.1,1.22-130.79,1.3-178.78,1.14q-.49-6-.61-11.87v-.25c-1.64-85.32,53.61-162.59,98.05-188.78l0,0C996.16,684,1014.37,710.86,1015.84,715.25,1012.33,717.11,992.9,721,894.94,722.92Z"/><path class="cls-5" d="M812,521.79l-11.43-10.06-.11.06h0C718.16,560.27,681.93,629.7,689.77,723.94l24.42.12C706.76,633.63,765.17,549.81,812,521.79Z"/><path class="cls-6" d="M813.61,523.15C767.07,550.58,708.68,634,716.16,724.06c48,.15,117.68.08,178.78-1.13,98-1.95,117.4-5.82,120.89-7.68C1014.37,710.86,996.16,684,813.61,523.15Z"/><path class="cls-7" d="M931.29,683.26c4.14,2,9.54,8.29,9.52,9.55s-6.67.27-10-.1a18.52,18.52,0,0,1-8.16-2.48c-2.3-1.49-5.62-5.66-2.76-8.18C922.47,679.78,928.69,682,931.29,683.26Z"/><path class="cls-7" d="M859.53,587.24c3.94,2.34,8.72,9.14,8.59,10.39s-6.67-.35-9.94-1a18.59,18.59,0,0,1-7.9-3.22c-2.15-1.7-5.07-6.15-2-8.4C851.06,583,857.05,585.76,859.53,587.24Z"/><path class="cls-7" d="M830.74,696.5c4.49,1,11.2,5.85,11.48,7.08s-6.42,1.81-9.73,2.22a18.55,18.55,0,0,1-8.52-.5c-2.59-.92-6.78-4.2-4.59-7.32C821.35,695.18,827.92,695.9,830.74,696.5Z"/><path class="cls-7" d="M878.42,647.78c4,2.26,8.93,8.94,8.82,10.19s-6.67-.2-10-.79a18.63,18.63,0,0,1-8-3c-2.19-1.65-5.21-6-2.18-8.35C869.85,643.7,875.9,646.36,878.42,647.78Z"/><path class="cls-8" d="M1020.49,717.46c-1.38,2.76-4,7.9-122.42,10.34-47.83,1-101.3,1.25-145.78,1.25-13,0-24.67,0-35.78-.06-.35-5.62-1.07-11.23-1-16.8q.12,5.91.61,11.87c48,.16,117.68.08,178.78-1.14,98-1.94,117.39-5.81,120.9-7.67-1.47-4.39-19.68-31.29-202.21-192.06,1.45-1,2.89-1.92,4.32-2.79,28.19,24.84,80.64,71.41,124.54,112.27C1024.65,709.15,1022,714.35,1020.49,717.46Z"/><path class="cls-9" d="M942.49,632.67C898.59,591.81,846.14,545.24,818,520.4l-1.24-1.09-11.48-10.09-2-1.77-.56-.5-.12-.1h0l-1.32-1.17L793,498.5l-1.35-1.19-1.53.92c-88.49,53-125.25,125.53-115.66,228.32l.21,2.22,2.23,0,8.38,0,1.82,0h.42c6.66,0,16.21.1,27.87.14h1.16c11.11,0,22.75.06,35.78.06,44.48,0,98-.26,145.78-1.25,118.47-2.44,121-7.58,122.42-10.34C1022,714.35,1024.65,709.15,942.49,632.67Z"/><path class="cls-5" d="M660.72,476.87C660,538.76,636,596.83,593,640.67c-43.69,44.52-101.77,69-163.54,69s-119.85-24.52-163.53-69c-2-2-4-4.15-5.92-6.26-.43-.47-.86-.93-1.27-1.41-2.85-3.17-5.62-6.4-8.27-9.7-.6-.75-1.21-1.51-1.8-2.27s-1.19-1.52-1.77-2.28-1.17-1.53-1.74-2.3-1.37-1.83-2-2.76c-.46-.62-.91-1.25-1.36-1.89s-1.11-1.56-1.65-2.35c-1.76-2.54-3.46-5.09-5.1-7.69l-1.21-1.91-1.5-2.45-1.46-2.46c-.48-.82-1-1.65-1.44-2.47s-.95-1.67-1.41-2.5c-.93-1.67-1.84-3.35-2.71-5-.45-.84-.89-1.69-1.32-2.54l-1.28-2.55c-.42-.86-.84-1.72-1.25-2.58s-.74-1.55-1.11-2.33c-.1-.2-.18-.4-.27-.61-.35-.74-.69-1.49-1-2.24s-.78-1.74-1.15-2.62-.81-1.85-1.2-2.79l-.9-2.16c-.4-1-.8-2-1.18-3-.31-.77-.6-1.55-.9-2.32-.08-.2-.16-.4-.23-.61-.3-.81-.61-1.61-.89-2.42s-.6-1.65-.9-2.49-.67-1.94-1-2.9-.61-1.82-.9-2.73c-.24-.74-.48-1.48-.71-2.22s-.38-1.22-.56-1.83q-.37-1.2-.72-2.4c-.32-1.1-.64-2.2-.94-3.31l-.57-2.09c-.18-.67-.35-1.33-.52-2-.24-.9-.47-1.8-.68-2.71q-.28-1.12-.54-2.25c-.27-1.11-.52-2.23-.76-3.35-.21-.94-.41-1.87-.61-2.81l-.51-2.54c-.47-2.43-.91-4.86-1.31-7.32q-.18-1-.33-2-.7-4.53-1.23-9.12c-.19-1.58-.36-3.17-.51-4.76q-.44-4.5-.7-9c-.1-1.86-.19-3.71-.26-5.57s-.12-3.91-.14-5.87h15.62v-3c0,1,0,2,0,3,1.28,57.34,23.58,111,63.09,151.75,40.75,42,94.91,65.06,152.52,65.06S541.21,670.58,582,628.62c39.51-40.7,61.81-94.41,63.1-151.75,0-1,0-2,.05-3v3Z"/><path class="cls-6" d="M645.05,476.87c-1.29,57.34-23.59,111-63.1,151.75-40.74,42-94.9,65.06-152.52,65.06s-111.77-23.1-152.52-65.06c-39.51-40.7-61.81-94.41-63.09-151.75h38.8c1.54,2.44,3.42,4.95,5.07,7.26a22.15,22.15,0,0,0,6,6.28c6.89,4.27,17.47-.81,18.42-8.86,1.86,4.89,8.75,7,13,4,1.37-1,2.63-2.4,4.31-2.44a6.39,6.39,0,0,1,3.29,1.31,40.44,40.44,0,0,0,51.63-7.55Z"/><path class="cls-10" d="M672.91,476.87c-.74,65.21-26,126.4-71.32,172.59-46,46.87-107.13,72.68-172.16,72.68s-126.16-25.81-172.15-72.68C212,603.27,186.69,542.08,186,476.87h5.64c0,2,.07,4,.14,5.95s.16,4,.28,5.93c.05.95.11,1.88.18,2.83l0,.42c.13,1.87.29,3.73.46,5.59l.3,2.93c.08.69.15,1.37.23,2.06.36,3.22.8,6.41,1.29,9.58l.42,2.66c.18,1,.36,2.08.55,3.12q.5,2.82,1.07,5.63c.2,1,.41,2,.62,3,.39,1.82.8,3.62,1.24,5.43.25,1.06.51,2.12.79,3.19.22.89.46,1.8.7,2.7s.5,1.86.77,2.8.52,1.87.8,2.79c.2.74.43,1.48.66,2.22s.4,1.34.61,2,.41,1.32.63,2,.44,1.4.68,2.1c.3.91.6,1.81.91,2.71a.36.36,0,0,1,0,.11c.21.6.42,1.21.64,1.82s.49,1.39.75,2.08.39,1.09.6,1.63c.3.81.6,1.62.92,2.42q.87,2.29,1.82,4.58c.29.73.59,1.45.89,2.18.42,1,.83,2,1.26,2.94.3.7.61,1.39.91,2.08l.77,1.69c.36.78.71,1.56,1.08,2.33s.64,1.36,1,2,.52,1.07.79,1.62.6,1.22.9,1.83c1.83,3.65,3.74,7.25,5.76,10.82.32.58.66,1.15,1,1.73.1.18.2.36.31.54.41.72.84,1.44,1.27,2.16.55.94,1.12,1.87,1.69,2.81.44.72.89,1.43,1.33,2.14l1.15,1.81c.45.71.9,1.41,1.36,2.11q1.93,3,3.95,5.87l1.62,2.29c.56.79,1.14,1.58,1.71,2.36,1.14,1.57,2.32,3.13,3.5,4.66.59.77,1.2,1.54,1.8,2.31.77,1,1.54,1.94,2.32,2.89.45.56.9,1.11,1.36,1.66q2.81,3.39,5.74,6.68c.65.74,1.31,1.46,2,2.19,1.07,1.18,2.15,2.34,3.25,3.5l2.83,2.94c44.93,45.79,104.68,71,168.22,71s123.3-25.21,168.22-71c44.23-45.08,68.89-104.79,69.63-168.4Z"/><path class="cls-6" d="M667.28,476.87c-.74,63.61-25.4,123.32-69.63,168.4-44.92,45.79-104.67,71-168.22,71s-123.29-25.21-168.22-71l-2.83-2.94c-1.1-1.16-2.18-2.32-3.25-3.5-.67-.73-1.33-1.45-2-2.19q-2.93-3.28-5.74-6.68c-.46-.55-.91-1.1-1.36-1.66-.78-.95-1.55-1.92-2.32-2.89-.6-.77-1.21-1.54-1.8-2.31-1.18-1.53-2.36-3.09-3.5-4.66-.57-.78-1.15-1.57-1.71-2.36l-1.62-2.29q-2-2.91-3.95-5.87c-.47-.7-.92-1.4-1.36-2.11L228.64,604c-.44-.71-.89-1.42-1.33-2.14-.57-.94-1.14-1.87-1.69-2.81-.43-.72-.86-1.44-1.27-2.16-.11-.18-.21-.36-.31-.54-.33-.58-.67-1.15-1-1.73-2-3.57-3.93-7.17-5.76-10.82-.3-.61-.61-1.22-.9-1.83s-.54-1.08-.79-1.62-.66-1.36-1-2-.72-1.55-1.08-2.33l-.77-1.69-.91-2.08c-.43-1-.84-2-1.26-2.94-.3-.72-.6-1.45-.89-2.18q-.94-2.28-1.82-4.58c-.32-.8-.62-1.61-.92-2.42-.21-.54-.4-1.08-.6-1.63s-.5-1.38-.75-2.08-.43-1.22-.64-1.82a.36.36,0,0,0,0-.11c-.31-.9-.61-1.8-.91-2.71-.24-.7-.46-1.4-.68-2.1s-.43-1.32-.63-2-.42-1.33-.61-2-.46-1.48-.66-2.22c-.28-.92-.55-1.86-.8-2.79s-.53-1.86-.77-2.8-.48-1.81-.7-2.7c-.28-1.07-.54-2.13-.79-3.19-.44-1.81-.85-3.61-1.24-5.43-.21-1-.42-2-.62-3-.38-1.86-.75-3.75-1.07-5.63-.19-1-.37-2.07-.55-3.12l-.42-2.66c-.49-3.17-.93-6.36-1.29-9.58-.08-.69-.15-1.37-.23-2.06l-.3-2.93c-.17-1.86-.33-3.72-.46-5.59l0-.42c-.07-.95-.13-1.88-.18-2.83-.13-2-.21-3.95-.28-5.93s-.12-4-.14-5.95c0-1,0-2,0-3h6.56c0,1,0,2,0,3,0,2,.07,3.92.14,5.87s.16,3.71.26,5.57q.27,4.51.7,9c.15,1.59.32,3.18.51,4.76q.53,4.59,1.23,9.12c.1.68.22,1.36.33,2,.4,2.46.84,4.89,1.31,7.32l.51,2.54c.2.94.4,1.87.61,2.81.24,1.12.49,2.24.76,3.35q.26,1.13.54,2.25c.21.91.44,1.81.68,2.71.17.67.34,1.33.52,2l.57,2.09c.3,1.11.62,2.21.94,3.31.24.8.47,1.6.72,2.4.18.61.37,1.22.56,1.83s.47,1.48.71,2.22c.29.91.6,1.82.9,2.73s.66,1.94,1,2.9.59,1.66.9,2.49.59,1.61.89,2.42c.07.21.15.41.23.61.3.77.59,1.55.9,2.32.38,1,.78,2,1.18,3l.9,2.16q.58,1.41,1.2,2.79c.37.88.76,1.75,1.15,2.62s.68,1.5,1,2.24c.09.21.17.41.27.61.37.78.73,1.56,1.11,2.33s.83,1.72,1.25,2.58l1.28,2.55c.43.85.87,1.7,1.32,2.54.87,1.68,1.78,3.36,2.71,5,.46.83.93,1.67,1.41,2.5s1,1.65,1.44,2.47l1.46,2.46,1.5,2.45,1.21,1.91c1.64,2.6,3.34,5.15,5.1,7.69.54.79,1.09,1.57,1.65,2.35s.9,1.27,1.36,1.89c.66.93,1.34,1.85,2,2.76s1.15,1.54,1.74,2.3,1.17,1.52,1.77,2.28,1.2,1.52,1.8,2.27c2.65,3.3,5.42,6.53,8.27,9.7.41.48.84.94,1.27,1.41,1.92,2.11,3.91,4.21,5.92,6.26,43.68,44.52,101.76,69,163.53,69s119.85-24.52,163.54-69c43-43.84,67-101.91,67.75-163.8Z"/><path class="cls-4" d="M679.82,476.87c-.74,67-26.71,129.93-73.3,177.43-47.3,48.2-110.18,74.75-177.09,74.75S299.65,702.5,252.35,654.3c-46.59-47.5-72.56-110.4-73.3-177.43H186c.74,65.21,26,126.4,71.33,172.59,46,46.87,107.13,72.68,172.15,72.68s126.17-25.81,172.16-72.68c45.32-46.19,70.58-107.38,71.32-172.59Z"/><path class="cls-4" d="M667.28,476.87c-.74,63.61-25.4,123.32-69.63,168.4-44.92,45.79-104.67,71-168.22,71s-123.29-25.21-168.22-71l-2.83-2.94c-1.1-1.16-2.18-2.32-3.25-3.5-.67-.73-1.33-1.45-2-2.19q-2.93-3.28-5.74-6.68c-.46-.55-.91-1.1-1.36-1.66-.78-.95-1.55-1.92-2.32-2.89-.6-.77-1.21-1.54-1.8-2.31-1.18-1.53-2.36-3.09-3.5-4.66-.57-.78-1.15-1.57-1.71-2.36l-1.62-2.29q-2-2.91-3.95-5.87c-.47-.7-.92-1.4-1.36-2.11L228.64,604c-.44-.71-.89-1.42-1.33-2.14-.57-.94-1.14-1.87-1.69-2.81-.43-.72-.86-1.44-1.27-2.16-.11-.18-.21-.36-.31-.54-.33-.58-.67-1.15-1-1.73-2-3.57-3.93-7.17-5.76-10.82-.3-.61-.61-1.22-.9-1.83s-.54-1.08-.79-1.62-.66-1.36-1-2-.72-1.55-1.08-2.33l-.77-1.69-.91-2.08c-.43-1-.84-2-1.26-2.94-.3-.72-.6-1.45-.89-2.18q-.94-2.28-1.82-4.58c-.32-.8-.62-1.61-.92-2.42-.21-.54-.4-1.08-.6-1.63s-.5-1.38-.75-2.08-.43-1.22-.64-1.82a.36.36,0,0,0,0-.11c-.31-.9-.61-1.8-.91-2.71-.24-.7-.46-1.4-.68-2.1s-.43-1.32-.63-2-.42-1.33-.61-2-.46-1.48-.66-2.22c-.28-.92-.55-1.86-.8-2.79s-.53-1.86-.77-2.8-.48-1.81-.7-2.7c-.28-1.07-.54-2.13-.79-3.19-.44-1.81-.85-3.61-1.24-5.43-.21-1-.42-2-.62-3q-.57-2.8-1.07-5.63c-.19-1-.37-2.07-.55-3.12l-.42-2.66c-.49-3.17-.93-6.36-1.29-9.58-.08-.69-.15-1.37-.23-2.06l-.3-2.93c-.17-1.86-.32-3.73-.46-5.59l0-.42c-.07-.95-.13-1.88-.18-2.83q-.18-3-.28-5.93c-.07-2-.12-4-.14-5.95h6.56c0,2,.07,3.92.14,5.87s.16,3.71.26,5.57q.27,4.51.7,9c.15,1.59.32,3.18.51,4.76q.53,4.59,1.23,9.12.15,1,.33,2c.4,2.46.84,4.89,1.31,7.32l.51,2.54c.19.94.4,1.87.61,2.81.24,1.12.49,2.24.76,3.35q.26,1.13.54,2.25c.21.91.44,1.81.68,2.71.17.67.34,1.33.52,2l.57,2.09c.3,1.11.62,2.21.94,3.31q.35,1.2.72,2.4c.18.61.37,1.22.56,1.83s.47,1.48.71,2.22q.44,1.36.9,2.73c.33,1,.66,1.94,1,2.9s.59,1.66.9,2.49.58,1.62.89,2.42c.07.21.15.41.23.61.29.78.59,1.55.9,2.32.38,1,.78,2,1.18,3l.9,2.16q.58,1.41,1.2,2.79c.37.88.76,1.75,1.15,2.62s.67,1.5,1,2.24c.09.21.17.41.27.61.36.78.73,1.56,1.11,2.33s.82,1.73,1.25,2.58.84,1.7,1.28,2.55.86,1.7,1.32,2.54c.87,1.68,1.78,3.36,2.71,5,.46.83.93,1.67,1.41,2.5s1,1.65,1.44,2.47,1,1.64,1.46,2.46,1,1.64,1.5,2.45c.4.64.8,1.28,1.21,1.91,1.64,2.6,3.34,5.15,5.1,7.69.54.79,1.08,1.57,1.65,2.35s.89,1.27,1.36,1.89c.66.93,1.34,1.85,2,2.76s1.14,1.54,1.74,2.3,1.17,1.52,1.77,2.28,1.2,1.52,1.8,2.27c2.65,3.3,5.42,6.53,8.27,9.7.41.48.84.94,1.27,1.41,1.92,2.11,3.91,4.21,5.92,6.26,43.68,44.52,101.76,69,163.53,69s119.85-24.52,163.54-69c43-43.84,67-101.91,67.75-163.8Z"/><path class="cls-4" d="M645.05,476.87c-1.29,57.34-23.59,111-63.1,151.75-40.74,42-94.9,65.06-152.52,65.06s-111.77-23.1-152.52-65.06c-39.51-40.7-61.81-94.41-63.09-151.75h4c1.28,56.27,23.17,109,61.94,148.91,40,41.18,93.13,63.85,149.66,63.85S539.12,667,579.09,625.78c38.77-39.94,60.67-92.64,61.95-148.91Z"/><path class="cls-8" d="M213.77,473.91c0,1,0,2,0,3h0Z"/><path class="cls-8" d="M645.1,473.91v3h-.05C645.07,475.88,645.09,474.9,645.1,473.91Z"/><path class="cls-8" d="M213.77,473.91c0,1,0,2,0,3h0Z"/><path class="cls-8" d="M645.1,473.91v3h-.05C645.07,475.88,645.09,474.9,645.1,473.91Z"/><path class="cls-8" d="M249.86,471a20.13,20.13,0,0,0,2.76,5.92H213.77V471Z"/><path class="cls-8" d="M645.1,471v5.92H354.37a40.07,40.07,0,0,0,4.38-5.92Z"/><rect class="cls-4" x="179.03" y="470.95" width="34.74" height="5.92"/><rect class="cls-4" x="645.1" y="470.95" width="34.74" height="5.92"/><path class="cls-7" d="M592.71,545.63c-3.2-3.21-6.12-10.69-5.69-11.8s6.32,2.15,9.3,3.66a19.5,19.5,0,0,1,6.8,5.1c1.64,2.13,3.35,7-.17,8.18C599.79,551.84,594.73,547.66,592.71,545.63Z"/><path class="cls-7" d="M547.75,602.62c-3-3.43-5.34-11.11-4.83-12.18s6.15,2.6,9,4.32a19.51,19.51,0,0,1,6.41,5.57c1.49,2.25,2.85,7.2-.75,8.15C554.36,609.32,549.62,604.79,547.75,602.62Z"/><path class="cls-7" d="M446.89,642.87c-.11-4.54,2.92-12,4-12.48s3.1,5.92,4.22,9.06a19.48,19.48,0,0,1,1.41,8.38c-.28,2.68-2.38,7.37-5.75,5.81C447.74,652.25,447,645.73,446.89,642.87Z"/><path class="cls-7" d="M344,614.18c1.92-4.11,7.94-9.43,9.13-9.4s.15,6.68-.24,10a19.41,19.41,0,0,1-2.45,8.13c-1.44,2.28-5.4,5.55-7.74,2.66C340.56,623,342.74,616.77,344,614.18Z"/><path class="cls-7" d="M266.3,548c3.54-2.84,11.3-4.94,12.35-4.39s-2.82,6.06-4.64,8.85a19.51,19.51,0,0,1-5.8,6.21c-2.3,1.4-7.3,2.58-8.11-1C259.37,554.32,264.07,549.74,266.3,548Z"/><path class="cls-11" d="M679.84,471H645.1v5.92h0V471H358.75a40.07,40.07,0,0,1-4.38,5.92,40.44,40.44,0,0,1-51.63,7.55,6.29,6.29,0,0,0-3.29-1.3c-1.68,0-2.94,1.47-4.31,2.43-4.29,3-11.18.89-13-4-1,8.05-11.53,13.13-18.42,8.86a22.15,22.15,0,0,1-6-6.28c-1.65-2.31-3.53-4.82-5.07-7.26a20.13,20.13,0,0,1-2.76-5.92H179v5.92h0c.74,67,26.71,129.93,73.3,177.43,47.3,48.2,110.18,74.75,177.08,74.75S559.22,702.5,606.52,654.3c46.59-47.5,72.56-110.4,73.3-177.43h0Z"/></g></g></svg>