<svg xmlns="http://www.w3.org/2000/svg" viewBox="0 0 1201.83 816.56"><defs><style>.cls-1{fill:#ffd622;}.cls-2{fill:#fff;}.cls-3{fill:#6250fe;}</style></defs><g id="Layer_2" data-name="Layer 2"><g id="All"><g id="Remote2"><g id="Remote1"><g id="Beach"><path id="Path" d="M959.94,399.52c4-3.15,8.35-6.53,12.71-9.92A313.41,313.41,0,0,1,1022.38,358c8.35-4.24,16.94-7.75,26.38-9.08,16.45-2.3,32.18.12,47,7.87,11.25,5.93,21.53,13.19,31.7,20.81,15.73,11.86,30.13,25.29,44.16,39.08,7.63,7.51,15.13,15.13,22.51,22.75,2.54,2.66,4.6,5.69,7.38,9.2-4,.24-7.26.72-10.41.72q-136.48-.36-272.85-.6H908.15a21.22,21.22,0,0,1,1.94-3.15c1.94-2.18,3.75-4.35,5.81-6.29,9.07-8.59,18-17.06,27.22-25.53,3-2.78,6.17-5.32,9.2-8,.85-.72,1.57-1.45,2.78-2.54-4.11-.6-7.62-1.09-11.25-1.69-7.87-1.33-15.85-2.91-23.72-3.87-11-1.46-22.14-2.06-33,1a101.6,101.6,0,0,0-23.23,10.17c-5.45,3.14-10.77,6.53-16.09,9.68-6.54,3.87-13.43,7-21.06,8.23-8.23,1.33-16.58,2.17-24.92,1.21a22.26,22.26,0,0,0-16.58,4.84c-5.69,4.47-9.8,10-13.8,15.85-.48.6-.84,1.33-1.33,1.93a2.32,2.32,0,0,1-2.9.85c-1.33-.6-1.45-1.81-1.09-3.15a4,4,0,0,1,.73-1.45c4.72-7.14,9.8-13.79,16.82-18.87a25,25,0,0,1,15-5c1.57,0,3.15,0,4.6.12,8.47,1,16.7-.12,24.92-1.7,5.93-1.09,11.26-3.75,16.46-6.77,3.27-1.94,6.53-4.12,9.8-6,5.81-3.27,11.74-6.54,17.67-9.56,13.67-7,28.31-8.71,43.31-6.9,9.93,1.21,19.73,3,29.65,4.6l10.16,1.45A38,38,0,0,0,959.94,399.52Z"/><path id="Shape" d="M922.62,490.65v-.6c21-.13,42.23-.25,63.28-.49a29.78,29.78,0,0,0,3.27-.12,2.4,2.4,0,0,0,2.42-2.3,2.23,2.23,0,0,0-2.3-2.3,14.78,14.78,0,0,0-2.3-.12c-2.78,0-5.45.12-8.23.12-39.69.37-79.37.61-119.06,1a18.47,18.47,0,0,0-3.63.24,1.93,1.93,0,0,0-1.7,2.42,4.32,4.32,0,0,0,1.94,1.94c.6.36,1.45.12,2.3.12C880,490.65,901.32,490.65,922.62,490.65Zm181.26,109.87v.24l30.61-2.18a2.92,2.92,0,0,0,1.81-.48,3.65,3.65,0,0,0,1.09-2.42c0-.61-1-1.45-1.69-1.7a8.82,8.82,0,0,0-2.54-.12c-8.59.61-17.06,1.09-25.65,1.7-6.42.36-12.71.6-19.12,1-2.42.13-3.63,1.09-3.51,2.55s1.33,2.17,3.87,2C1093.83,601.12,1098.79,600.76,1103.88,600.52Zm-376-108.06v.37H714.5c-1.82,0-2.79.72-2.91,2.06a2.62,2.62,0,0,0,2.42,2.66,19.52,19.52,0,0,0,4.6.12c11.13-.61,22.39-1.33,33.52-2.06a4.68,4.68,0,0,0,2.54-.6,3.93,3.93,0,0,0,1.57-2.18c.12-1.21-.84-1.94-2-2.18a8,8,0,0,0-1.7,0Zm253.37,9.81h0c-10.65.84-21.17,1.69-31.82,2.66a3.34,3.34,0,0,0-1.57.24c-.61.6-1.58,1.45-1.58,2.18s1,1.69,1.7,2a5.77,5.77,0,0,0,2.9.13l18-1.46c5.32-.48,10.65-.84,16.09-1.21,1.94-.12,2.91-1,3-2.42s-1.21-2.42-3.27-2.42C983.72,502,982.51,502.15,981.3,502.27ZM874.7,575.59h8.71a7,7,0,0,0,1.58-.12,2.59,2.59,0,0,0,2.17-2.54,2.4,2.4,0,0,0-2.29-2.42,14.84,14.84,0,0,0-2.3-.12c-7,.48-14,.85-21.06,1.33-1.21.12-2.42.24-3.63.48a2.24,2.24,0,0,0-1.93,2.3c0,1.46,1,2.18,2.42,2.18a20.72,20.72,0,0,0,2.66-.12C865.38,576.32,869.5,576,874.7,575.59ZM1024,487.87V488c4.47-.37,9-.85,13.43-1.21a2.43,2.43,0,0,0,1.33-.24c.72-.61,1.57-1.33,1.69-2.06a2,2,0,0,0-1.69-2.42,18.35,18.35,0,0,0-3.63,0c-5.2.36-10.53.73-15.73,1-1.45.12-2.66.36-2.91,1.93-.24,1.33.85,2.54,2.67,2.79A32.58,32.58,0,0,0,1024,487.87Zm51.78-6.29v.24h-8.22a2.22,2.22,0,0,0-2.3,2.3,2.3,2.3,0,0,0,2.3,2.3,10.43,10.43,0,0,0,1.93.12c4.12,0,8.11-.12,12.22-.12h1.33c1.94-.25,3.15-1.34,2.91-2.91-.12-1.33-1.21-1.93-3.27-1.93ZM751,479.88h0c-1.94.12-4,0-5.93.12-1.69,0-2.78,1-2.66,2.3a2.49,2.49,0,0,0,2.3,2.42c4.23.12,8.59.12,12.82-.12a2.32,2.32,0,0,0,2.18-2.78,2.22,2.22,0,0,0-2.66-1.82C755,479.88,753,479.88,751,479.88ZM860.91,586.6c-2.54.37-5.21.49-7.75,1a2.29,2.29,0,0,0-2.17,2.78c.36,1.46,1.33,1.82,2.66,1.82a2.72,2.72,0,0,0,1-.12c3-.24,6-.49,9.07-.85a3.74,3.74,0,0,0,1.57-.36c1.21-.49,1.94-1.33,1.46-2.54a3,3,0,0,0-2.06-1.7A19.53,19.53,0,0,0,860.91,586.6ZM1116.22,615c4.23-.24,7.62-.36,11-.61,1.81-.12,2.78-1.33,2.54-2.78-.24-1.69-1.45-2.06-2.9-1.94-2.18.12-4.36.12-6.54.25a24,24,0,0,0-4.23.72,2.09,2.09,0,0,0-1.58,2.78C1114.89,614.31,1116,614.8,1116.22,615ZM967.39,597.49v.61c1-.24,2.06-.24,2.78-.85a2.47,2.47,0,0,0,1-2.18c0-.6-.85-1.57-1.33-1.57-3.63-.36-7.38-.6-11.13-.6a2.19,2.19,0,0,0-2.06,2.54,2.13,2.13,0,0,0,2.42,2ZM1156,600.4c1.93-.12,3.63-.12,5.44-.25a2.3,2.3,0,1,0-.24-4.59h-9.92a2.32,2.32,0,0,0-2.42,2.3,2.22,2.22,0,0,0,2.3,2.29C1152.88,600.28,1154.45,600.28,1156,600.4Zm9.92-61.71v.12a23.38,23.38,0,0,0,2.9,0,2.15,2.15,0,0,0,2.18-2.06c-.12-.85-.85-2.06-1.45-2.18a34.37,34.37,0,0,0-7-.24c-.6,0-1.45,1.33-1.57,2.18-.12,1.21.84,1.94,2,2.06A11.84,11.84,0,0,0,1166,538.69Z"/><path d="M850.92,218.14c3-1,5.21-1.81,7.5-2.42a5.1,5.1,0,0,1,6.05,2.79c.73,1.21,1.46,2.54,2.06,3.75.85,1.81.61,3-.6,3.75s-2.67.12-3.76-1.7c-.36-.6-.72-1.33-1.08-2.05s-.73-1.09-1.09-1.82c-2.3-.48-4,.73-5.81,1.7-3.39,1.93-4.12,1.93-6.66-1.09-.12-.12-.24-.37-.48-.49-2.3-2.54-4.36-2.54-6.53,0a7.83,7.83,0,0,0-1.09,1.7c-.73,1-1.58,1.57-2.79,1a2.43,2.43,0,0,1-1.45-2.66,5.2,5.2,0,0,1,.12-.6c1.45-5.21,9.32-7.75,13.43-4.24A12.19,12.19,0,0,1,850.92,218.14Z"/><path d="M981.72,180.39c-.84,1.45-1.57,2.3-2.05,3.39-1.58,3.63-3.27,3.87-6,1l-1.46-1.82c-1.93.61-2.54,1.94-3.14,3.39a9.81,9.81,0,0,1-1.33,3,2.88,2.88,0,0,1-2.42,1,2.72,2.72,0,0,1-1.58-2.18c-.36-3.5,3.39-8.71,6.66-9.8a5.57,5.57,0,0,1,5.32,1.21c.37-.12.49-.12.49-.24,5.08-4.6,9.19-4.11,13.06,1.57.73,1.09,1,2.3,0,3.27s-2.17.85-3.26,0C984.63,183.05,983.54,182,981.72,180.39Z"/><path d="M1094.86,256c7.26-2.91,10.77-1,12.34,6.41.24,1.45.24,2.66-1.21,3.27-1.21.48-2.54-.25-3.27-1.94-.36-.85-.48-1.69-.84-2.54-.85-1.94-1.58-2.3-3.51-1.45-.85.36-1.46,1-2.18,1.33-2.66,1.69-3.87,1.33-5.08-1.45a4.33,4.33,0,0,0-.37-1c-.84-1.7-1.57-1.94-3-.85-.49.36-1,.85-1.45,1.21-1.09.85-2.18,1.09-3.27,0s-.73-2.18,0-3.27a6.81,6.81,0,0,1,11.13-1C1094.13,255.17,1094.49,255.53,1094.86,256Z"/><path d="M850.2,230.48c-1.46-.24-3-.36-4.48-.72a2.22,2.22,0,0,1-1.82-2.66c.25-1.46,1.21-1.94,2.67-1.94,2.29.12,4.59.36,6.77.48a2.28,2.28,0,0,1,.49,4.48C852.62,230.36,851.41,230.36,850.2,230.48Z"/><path d="M975.79,194.43a14.63,14.63,0,0,1-2.9-.25,2.08,2.08,0,0,1-1.81-2.42,1.9,1.9,0,0,1,2-2c2.3-.12,4.6-.24,6.9-.24a2.15,2.15,0,0,1,2.3,1.93,2.25,2.25,0,0,1-1.94,2.66A35.28,35.28,0,0,1,975.79,194.43Z"/><path d="M1088.69,264.12c1.69.61,3.75,1.21,5.8,2.06a2.3,2.3,0,0,1,1.46,2.9c-.37,1.21-1.58,1.82-3.27,1.33a41.65,41.65,0,0,1-5.57-1.81,2.24,2.24,0,0,1-1.57-2.78C1085.78,264.36,1086.87,264,1088.69,264.12Z"/></g><g id="Palm-Tree"><path d="M147.67,323.9c-1.09,5.56-2.3,10.89-3.27,16.33q-8.7,46.83-17.54,93.66a4.25,4.25,0,0,0,1.81,4.71,48,48,0,0,0,14,7.14c11.86,3.51,23.84,6.3,36.3,5.81a23.46,23.46,0,0,0,2.9-.24,1.79,1.79,0,0,0,.85-.36c7.14-63.65,14.16-127.18,27-190.34-2.78-.36-5.32-.6-7.86-1.09a65.59,65.59,0,0,1-6.78-1.45,6.69,6.69,0,0,1-2.9-1.57c-1.09-.85-1.57-1.94-.73-3.15a2.22,2.22,0,0,1,3.15-.72c4.6,2.42,9.8,2.42,14.76,2.9a6.54,6.54,0,0,0,1.33-.12c.24-1,.61-1.94.85-3,5-22.86,9.56-45.85,14.88-68.6,5.57-23.6,11.86-47.07,17.67-70.67,1.57-6.41,2.78-12.82,4.11-19.36.24-1.45.85-2.29,2.3-2.29a2.23,2.23,0,0,1,2.42,2.17,12.35,12.35,0,0,1-.24,3.63c-3.39,13.43-6.66,26.86-10.17,40.3C234.79,167.08,228,197,222,226.85c-3,14.89-6.41,29.65-9.43,44.53-4.36,21.78-8.11,43.68-11,65.7-2.78,21.18-5.56,42.23-8.34,63.41q-4.54,35.2-6.9,70.54c-3,46.83-4.36,93.66-5,140.48-.24,19.48.72,39,2.18,58.33,1.21,16.09,2.3,32.3,3.63,48.39,1,11.14,2.42,22.27,3.51,33.52,1.21,14.16,4.35,28,6.53,42,1.21,7.5,1.45,6.29-4.36,10.53a47.77,47.77,0,0,1-17.3,7.86,175.85,175.85,0,0,1-32.67,4.36c-13.79.6-27.1-2.66-39.93-7.26a21.55,21.55,0,0,1-5.2-2.79c-3-2.17-4.84-5-4.84-8.83,0-9.07-.37-18.27-.25-27.34.37-25.66.61-51.31,1.7-76.84.85-22,2.54-43.92,4.23-65.82q2.37-31.41,5.45-62.8c1.81-18.15,3.87-36.3,6.29-54.33,2.66-20.09,5.57-40.05,8.83-60,2.91-17.91,6.3-35.69,9.68-53.48,4.84-25.53,9.68-50.94,14.64-76.47,4.12-21.3,9.69-42.23,15.13-63.16,6.65-25.29,12.7-50.7,20-75.87,10.65-37.27,22.15-74.42,33.28-111.56a14.65,14.65,0,0,1,.85-2.18A2.21,2.21,0,0,1,216.88,69c-.24,1.33-.6,2.54-1,3.87-3.75,12.22-7.62,24.32-11.25,36.54-7.74,26.38-16,52.64-23.11,79.14-10.29,38.48-20,77.2-29.77,115.92-1,4-1.69,8-2.66,11.85-.36,1.58,0,2.66,1.21,3.39,2.06,1.09,4,2.3,6,3.27A75,75,0,0,0,178,328.25c2.06.24,4.11.36,6.17.73s3,1.45,2.66,3a2.81,2.81,0,0,1-3.26,2.06c-5.45-.85-10.89-1.57-16.22-2.66a58.55,58.55,0,0,1-17.9-6.42A2.78,2.78,0,0,0,147.67,323.9Zm30.25,236.55a151.23,151.23,0,0,1-35-3.87,92.12,92.12,0,0,1-31.82-14c-5.93,54.69-10.41,108.9-12.71,163.72,3.15,1.57,6.17,3.26,9.2,4.59,5.93,2.55,12.1,3.75,18.39,4.84,12.46,2.18,25,3.15,37.75,1.7A74.16,74.16,0,0,0,182,712.67C177.32,662.33,175.14,611.88,177.92,560.45ZM98.67,711.94c-.13,1.46-.25,2.54-.25,3.63-.12,7.26-.36,14.52-.48,21.78-.12,19.61,0,39.09-.24,58.69a7.7,7.7,0,0,0,5,7.74,68.13,68.13,0,0,0,8.71,3.15c10.28,3,20.69,5.32,31.46,4.72a189.92,189.92,0,0,0,31.94-4.36,46.87,46.87,0,0,0,15.25-6.9c2.3-1.57,3.15-3.14,2.54-5.92-1.81-9.2-3.63-18.4-4.84-27.59-1.81-13.92-3.15-28-4.72-42-.24-2.18-.48-4.48-.85-7-13.91,5.45-28.07,5.93-42.35,4.6C125.89,721,111.73,719.08,98.67,711.94Zm26.86-269.71a6.68,6.68,0,0,0-.37,1.58c-5.08,29.16-9,58.44-12.7,87.72-.61,4.24,1.21,6.54,4.11,8.71a2.71,2.71,0,0,0,.61.37c5.44,3.38,11,6.53,17.06,8.47,13.31,4.11,26.86,6.65,40.78,6.53.84,0,1.69-.12,2.54-.12,1.57-33.15,3.14-66.19,4.72-99.34-.37,0-.73-.12-1.21-.12-12.95.72-25.41-1.82-37.64-5.33a46.51,46.51,0,0,1-15.72-7.26A9.91,9.91,0,0,1,125.53,442.23Z"/><path d="M166.91,342.77c-3.27-.72-5.93-1.21-8.59-1.93a2.55,2.55,0,0,1-1.94-3c.36-1.33,1.45-1.94,3.15-1.57,2.66.6,5.32,1.21,8,1.93A2,2,0,0,1,169,341,5.66,5.66,0,0,1,166.91,342.77Z"/><path d="M135.93,606.55c-2.3-.24-4.59-.36-6.89-.72a4.11,4.11,0,0,1-2.54-1.09,3.35,3.35,0,0,1-.49-2.66,2.34,2.34,0,0,1,2.06-1.22c3.14.25,6.29.73,9.44,1.09,1.45.25,2.54,1,2.54,2.54,0,1.34-1.21,2.18-3,2.18-.36,0-.72-.12-1.09-.12Z"/><path d="M163.28,734.21a15.17,15.17,0,0,1-2.9-.24c-1.7-.37-2.67-1.7-2.3-3,.36-1.69,1.57-1.69,3-1.69,2.42,0,4.84-.13,7.14-.25a6.09,6.09,0,0,0,1.57-.24c1.94-.12,3,.49,3.27,1.94s-.85,2.42-2.66,2.78c-1.21.24-2.42.36-3.63.49C165.94,734,164.85,734.09,163.28,734.21Z"/><path d="M166.79,477.45c-2.54-.61-5.08-1.09-7.63-1.7a3.26,3.26,0,0,1-2-1.45,3.35,3.35,0,0,1-.12-2.66,2.93,2.93,0,0,1,2.42-1c2.9.48,5.68,1.21,8.59,1.94,1.57.36,2.66,1.33,2.42,2.66a2.39,2.39,0,0,1-2.54,2.05h-1C166.79,477.32,166.79,477.45,166.79,477.45Z"/><path d="M409.24,49.47c1.94.49,3.27.85,4.6,1.21a349.56,349.56,0,0,1,53.6,19.24c8.35,3.87,16.22,8.35,23.11,14.4a32,32,0,0,1,5.93,6.9c2.78,4.6,1.21,8.35-3.87,10.16-1.09.36-2.18.73-3.87,1.33,1.81.73,2.9,1.21,4.11,1.7a394.92,394.92,0,0,1,60.86,29.28,127.61,127.61,0,0,1,19.85,14.16,22.69,22.69,0,0,1,4.48,5.2c2.42,4,1,7.74-3.51,8.95a26,26,0,0,1-6.9.73c-10-.12-20-1.82-29.77-3.75-1.45-.24-3-.61-4.47-.85a3.46,3.46,0,0,0-.61.85,20.05,20.05,0,0,1,2.66,1.81c2.91,3.27,5.93,6.54,8.59,9.92a11.9,11.9,0,0,1,2.06,5.45,5.3,5.3,0,0,1-5,6.17,26.67,26.67,0,0,1-6.9-.36C525,180,516.45,176.4,508,172.41c-3.51-1.57-6.9-3.39-10.29-5-.24.36-.48.48-.48.72-.61,5.33-2.79,7.51-8.11,7.26a61.73,61.73,0,0,1-11.37-1.93c-8.47-2.18-16.46-5.69-24.32-9.2l-3.76-1.69c.37,1,.61,1.69.85,2.3,3,6.05.61,12-6.05,13.55a24.82,24.82,0,0,1-9.44.36,144.8,144.8,0,0,1-17.3-4,182.85,182.85,0,0,1-35.09-15.73c-.85-.49-1.69-.85-2.66-1.33a1.49,1.49,0,0,1-.36.24,22.88,22.88,0,0,1,1.08,3c1.82,5.81-2.17,10.53-8.22,9.44a41.84,41.84,0,0,1-6.9-2.05A192.37,192.37,0,0,1,338,155.23a582.35,582.35,0,0,1-79.25-53.36c-11-8.84-21.3-18.76-31.83-28.2-.84-.72-1.57-1.33-2.78-2.42v2.42c.36,13,1,25.9,1.09,39a185.78,185.78,0,0,1-6.53,51.55,47.92,47.92,0,0,1-4,10,19.74,19.74,0,0,1-4.47,5.57c-3.39,3-7,2.9-10.41,0-1.33-1.09-2.54-2.42-4-3.75-.12.85-.25,1.57-.37,2.42-.6,14.16-1.93,28.31-5.2,42.23-1.81,7.86-4.36,15.61-6.9,23.35a55.07,55.07,0,0,1-4.11,8.59,13.54,13.54,0,0,1-3,3.87c-2.66,2.42-5.8,2.42-8.1-.36a89.9,89.9,0,0,1-5.21-8c-.6-1-1.08-2.05-1.93-3.75-.85,2.91-1.33,5.21-1.94,7.26A457,457,0,0,1,140,303a122.62,122.62,0,0,1-5.81,11,17.61,17.61,0,0,1-3.27,4.11c-2.78,2.78-5.93,2.54-8-.85a26.29,26.29,0,0,1-2.66-5.92c-.6-1.7-1-3.63-1.57-6.05-.61,1.33-1.09,2.05-1.45,2.9-7.5,18.51-15.61,36.78-24.81,54.69-3.51,6.9-7.14,13.68-11.86,19.72a25.35,25.35,0,0,1-4.23,4.6c-3.63,3-7.14,1.82-8-2.78a29,29,0,0,1-.36-5.57c-.48-15.24,1.94-30,5.69-44.65,2.18-8.34,4.72-16.69,7.14-25,.36-1.09.6-2.3,1.09-4.12-1.46,1-2.3,1.7-3.15,2.18A74.47,74.47,0,0,1,71.65,312c-6.05,3.27-10.28,1-10.77-5.81a52.36,52.36,0,0,1,.85-11.49c1.81-10.89,5.81-21.18,9.92-31.34,4.6-11.25,9.56-22.39,14.4-33.64A16.76,16.76,0,0,0,87.38,225c-1.09.49-2.18,1.09-3.27,1.58A47.33,47.33,0,0,1,77.7,229c-3.51.84-6.53-.73-7.38-4.24a25.88,25.88,0,0,1-.61-8.11,60.94,60.94,0,0,1,5-17.78c5.68-13.19,11.61-26.38,17.42-39.45,4.6-10.28,9.32-20.69,13.91-31,.49-1.21.85-2.42,1.46-4.12-1.58.49-2.54.85-3.63,1.21a54.42,54.42,0,0,1-8.59,1.94c-6.66.6-10.89-3.87-9.44-10.41a49.21,49.21,0,0,1,4.11-11.37c6-12.34,14.16-23.36,23.23-33.52C119,65.69,124.89,59.15,131.3,53.1,144.73,40.52,158.41,28.3,172.08,16c7.26-6.54,15.85-11,24.93-14.52a20.31,20.31,0,0,1,5.44-1c16.22-1.33,32.31.48,48.28,1.69C265.86,3.25,281,5.07,296,6.88s29.89,4,44.77,6.41c19,3.15,38,6.54,56.15,13.07,4.48,1.7,9,3.75,13.31,5.81a19.52,19.52,0,0,1,4.84,3.39c3.87,3.51,3.75,7.26-.36,10.52C413.23,47.17,411.54,48,409.24,49.47ZM220.72,44.75a25.17,25.17,0,0,0,0,3c.37,3.27,1.09,6.53,1.33,9.8a12.49,12.49,0,0,0,4.36,8.83C237.9,76.7,249,87.71,261,97.39a567,567,0,0,0,81.43,54.81,174,174,0,0,0,25.89,12.1,26.38,26.38,0,0,0,4.48,1.21c1,.12,2.54,0,2.9-.6a3.82,3.82,0,0,0,0-3.27,21,21,0,0,0-3.63-5.08c-3-3.15-6.29-6.17-9.43-9.2-1.7-1.57-2.06-2.78-1.21-4s2.17-1.33,4.35,0c2.78,1.69,5.69,3.39,8.47,5.08a209.73,209.73,0,0,0,29.53,16c8.95,3.87,18,7.5,27.83,9.2,3.63.6,7.38,1.45,11.13.48,4.35-1,5.56-3.87,3.14-7.62-1.93-2.91-4.23-5.69-6.41-8.35a6.59,6.59,0,0,0-2.06-1.57c-11.85-6.17-23-13.31-34.12-20.57a19.17,19.17,0,0,0-2.3-1.09c.61,2.06,1.21,3.51,1.58,5.08,1.81,7.14-1.58,10.65-8.6,8.47a88.44,88.44,0,0,1-13.18-5.2,297.11,297.11,0,0,1-59.17-37.63,10.57,10.57,0,0,0-1.94-1.33c1.57,3.5,3.39,6.65,4.6,10,1.57,4.84-1.09,8.47-6.17,9a14.18,14.18,0,0,1-8.59-1.81c-4-2.18-8.11-4.48-11.86-7-18.51-12.58-36.42-26.14-52.39-42a227.89,227.89,0,0,1-23.24-26.13A20.31,20.31,0,0,0,220.72,44.75ZM96.94,288.69c.12,1.33.48,2.54,2.06,2.9s2.54-.48,3-1.93a8.7,8.7,0,0,0,.49-1.58c.48-2.42,1-5,1.57-7.38,8.71-36.18,19.36-71.75,33.52-106.11,12.94-31.83,27.7-62.8,43.31-93.29,9-17.55,18.27-34.85,28.92-51.43a4.31,4.31,0,0,0,.85-1.69,4.28,4.28,0,0,0-1-2.54,2.9,2.9,0,0,0-2.66,0,5.23,5.23,0,0,0-1.69,1.93c-1.94,3-4,6-5.81,9.2-14.76,25.53-28.32,51.66-40.9,78.28-12.34,26-24.32,52.28-34.12,79.38a832,832,0,0,0-27,91.72A7.83,7.83,0,0,0,96.94,288.69Zm377.88-163c.73-.48,1.94-.84,2.42-1.57a2.21,2.21,0,0,0-1-3.15c-1-.6-1.93-1-2.9-1.45q-22.5-10.53-45.13-21c-6.54-3-13.19-6.17-19.85-8.84-33.63-13.55-67.39-26.86-101-40.29C286.3,41,265.25,32.65,243.23,27.21c-1.09-.24-2.18-.61-3.15-.73a2.3,2.3,0,0,0-2.54,1.58,2.14,2.14,0,0,0,1.09,2.78,15.34,15.34,0,0,0,3,1.09,377.49,377.49,0,0,1,46,15c28.19,11,56.26,21.9,84.33,33.16,19.48,7.74,39,15.48,58,24.68,13.8,6.65,27.71,13,41.5,19.36C472.4,124.61,473.49,125.1,474.82,125.7ZM487,145.55c.61,1.21,1,1.81,1.21,2.42,2.3,4,4.6,8,7,12a4.56,4.56,0,0,0,2.06,1.93c9.44,5,19,9.8,29,13.19,3.27,1.09,6.53,1.94,9.8,2.78,1.69.37,3.63,1,5.44-.48-.12-2.42-1.45-4.11-2.78-5.93-4.11-5.32-9.32-9.68-14.52-13.79a18.21,18.21,0,0,0-4.84-2.54c-6.77-2.06-13.55-3.88-20.21-5.93C495.27,148.09,491.52,147,487,145.55Z"/><path d="M9.21,269a39,39,0,0,0,4.36-2.79c3.51-2.78,7-5.68,10.53-8.47a9.85,9.85,0,0,1,2.66-1.93,5.35,5.35,0,0,1,3.39-.12,2.46,2.46,0,0,1,1.21,3.14,40.68,40.68,0,0,1-1.58,5.08C26,273.68,22,283.49,18.53,293.41A349.73,349.73,0,0,0,6,337.82a54.9,54.9,0,0,0-1.09,14.76c.12,1.21.48,2.54.85,4.47a22.15,22.15,0,0,0,2.9-2.78,127.42,127.42,0,0,0,7-10.77c3.26-5.93,6.17-12.22,9.19-18.27a8.17,8.17,0,0,1,1.7-2.78c.72-.61,1.93-1.33,2.78-1.09a3.42,3.42,0,0,1,1.94,2.3,21.62,21.62,0,0,1,.24,4c.12,1.33.12,2.54.24,3.87.24.12.61.37.85.49.36-.61.72-1.21,1.09-1.94,1.81-3.39,3.87-6.65,5.56-10.16,3.87-7.75,7.5-15.61,11.26-23.48a17.06,17.06,0,0,1,1.45-2.54,1.91,1.91,0,0,1,2.9-.48,3.64,3.64,0,0,1,1,2.54,5.35,5.35,0,0,1-.85,2.18c-4.11,8.59-8.1,17.3-12.34,25.89-1.69,3.39-3.63,6.53-5.57,9.68a13.89,13.89,0,0,1-3.14,3.39c-2.42,1.93-4.84,1.21-6-1.7a20.19,20.19,0,0,1-.85-2.54,11.28,11.28,0,0,0-1.33,1.94c-2.3,4.36-4.23,8.95-6.78,13.19a91.25,91.25,0,0,1-7.62,10.77c-1.69,2.05-3.87,4-6.77,2.9S1,357.9.5,355.24c-1.09-6.29-.24-12.46,1-18.63a375.62,375.62,0,0,1,18.39-60.14c1.33-3.51,2.66-7,4-10.41a13.27,13.27,0,0,0,.24-1.81c-2.3,1.81-4,3.26-5.81,4.6a36.56,36.56,0,0,1-5.69,3.87c-4.72,2.54-8.59.36-8.35-5a57.08,57.08,0,0,1,1.82-12c3.27-12.95,9.07-25.05,15.49-36.67,6.65-12,13.91-23.71,20.81-35.57.48-.73.85-1.45,1.45-2.54-1.21.12-2.06.24-2.9.24-4,.49-7-1.33-8.11-5.08a18.4,18.4,0,0,1-.61-6.78A31.71,31.71,0,0,1,37,156.19c3.15-5.2,6.18-10.4,9.68-15.24,14.52-20,28.68-40,44.17-59.29a20.11,20.11,0,0,1,2.18-2.42,2.19,2.19,0,0,1,3.26-.12,2.11,2.11,0,0,1,.25,3L95.12,84C79.39,103.32,65,123.77,50.35,144c-3.26,4.48-6.05,9.2-8.83,13.92a56.16,56.16,0,0,0-3.87,8.71,13.07,13.07,0,0,0-.85,4.84c-.24,4.72,1.7,6.05,6.05,4.48,1.82-.61,3.63-1.45,5.57-2.18a2.78,2.78,0,0,1,3.63.6,2.91,2.91,0,0,1,0,3.39c-.61,1-1.21,1.82-1.82,2.78-12.1,18.28-23.23,37.15-32.42,57-3.88,8.35-7.14,17.06-8.6,26.25L8.85,267C8.85,267.15,9,267.76,9.21,269Z"/></g><g id="Ground"><path d="M1001.69,806.44h-162a18.38,18.38,0,0,1-3.63-.12,2.24,2.24,0,0,1-2.06-2.54,2.15,2.15,0,0,1,2.18-2.06,19.81,19.81,0,0,1,2.66-.12q162.81-.54,325.61-1a15,15,0,0,1,3.27.24,2.08,2.08,0,0,1,1.94,2.3,2.14,2.14,0,0,1-2.06,2.17c-1.33.13-2.66.25-4,.25l-153.8.36h-8.22A.72.72,0,0,1,1001.69,806.44Z"/><path d="M579,804.63c-35.57.24-71.26.6-106.84.85a33.88,33.88,0,0,1-3.63-.13c-1.21-.12-2.18-1-1.93-2.17a2.92,2.92,0,0,1,1.69-2.06,11.65,11.65,0,0,1,3.51-.36c41.38-.37,82.64-.61,124-1,30.5-.24,60.87-.61,91.36-.85a23.36,23.36,0,0,1,2.9.12,2.16,2.16,0,0,1,1.94,2.3,2.07,2.07,0,0,1-2.06,2.18,18.47,18.47,0,0,1-3.63.24q-53.36.36-107.33.85Z"/><path d="M342.36,804.39c-16.46-.25-31-.49-45.5-.73a7.42,7.42,0,0,1-3.26-.48c-.61-.25-1.46-1.33-1.34-1.94a3.6,3.6,0,0,1,1.58-2.18,5.92,5.92,0,0,1,2.54-.24l87.6,1.45a7.77,7.77,0,0,1,2.91.24,3.58,3.58,0,0,1,1.69,2.06,3.15,3.15,0,0,1-1.57,2.18,9.81,9.81,0,0,1-3.27.24C369.34,804.87,354.82,804.63,342.36,804.39Z"/><path d="M212.28,805.23c-2.05,0-4.11.12-6.17,0s-3-1.09-2.9-2.42,1.21-2.3,3-2.3c4.12.13,8.35.25,12.47.49,2.05.12,2.9,1.09,2.9,2.42s-1.09,2.18-3,2.3-4.12,0-6.18,0A.75.75,0,0,1,212.28,805.23Z"/><path d="M1196.74,806c-2.3-.24-4.6-.48-6.78-.73a4.61,4.61,0,0,1-1.81-.6,2.18,2.18,0,0,1-1.33-2.66,2.14,2.14,0,0,1,2.42-1.7l10.4,1.09a2.23,2.23,0,0,1,2.18,2.06,2.08,2.08,0,0,1-2.06,2.42c-1.08.12-2,0-3,.12Z"/></g><g id="Ball"><path class="cls-1" d="M765.38,793.25c-3.39-1.93-6.54-3.63-9.81-5.56,10.89-19.48,12.95-39.21,2.18-59.41,3.15-1.82,6.29-3.75,9.56-5.69C787.4,737.35,790.79,774.14,765.38,793.25Z"/><path class="cls-1" d="M721.09,729.12c4.84.85,9.32,1.58,14,2.3-.73,17.19-3.15,34.25-1.94,51.67-4.48.61-9.08,1.21-13.55,1.94-7.75-9.93-9.08-21.18-6.66-33,.85-4.11,1.7-8.1,2.79-12.22A31.53,31.53,0,0,1,721.09,729.12Z"/><path class="cls-1" d="M740.33,731.42c4.11-.48,7.86-1.09,11.86-1.57a30.7,30.7,0,0,1,5.2,10.53,52.85,52.85,0,0,1-2.06,36.06c-1.33,3.14-2.9,6.17-4.47,9.31-4.24-.84-8.35-1.57-12.59-2.42C737.18,766,739.36,748.85,740.33,731.42Z"/><path class="cls-1" d="M709.59,721c2.3,1.93,4.36,3.75,6.54,5.44,0,.12,0,.49-.12.61-6.17,10.16-8.47,21.41-9.08,33-.48,8.59,1.09,17.06,6.29,24.44.49.61.73,1.33,1.21,2.06-2.54,1.33-5,2.54-7.38,3.75C687.94,775.35,685.15,739.65,709.59,721Z"/><path class="cls-1" d="M762.71,719.2c-4.35,3.51-9.43,5.21-14.76,6.17a61.33,61.33,0,0,1-20,0,25.25,25.25,0,0,1-11.14-4.72c-1-.72-1.69-1.57-2.66-2.42C727.87,708.07,751.1,709.64,762.71,719.2Z"/><path class="cls-1" d="M760.05,796.52c-12,8.35-34.12,9-48.52-2.18C720.36,785.75,749.4,787.08,760.05,796.52Z"/></g><g id="Chair"><path class="cls-2" d="M364.09,612.69c2.3,0,4.35-.12,6.29,0,8.59.37,17.18.73,25.65,1.21,3.51.24,4.48,1.45,3.87,5a45.61,45.61,0,0,1-2,6.9c-.85,2.06-2.67,2.42-4.12.85a5.36,5.36,0,0,0-3.87-1.45,309.54,309.54,0,0,0-43.8-1c-19.24,1-38.48,0-57.72-1.45-7.74-.61-15.61-1-23.35-1.58a51.59,51.59,0,0,1-8.71-1.45,21.26,21.26,0,0,1-6-2.9c-.73-.49-1.09-1.82-1.33-2.91-2.18-10-4.36-20.2-6.54-30.25q-13.43-62.25-26.74-124.39c-3-14.15-6.05-28.31-9-42.59-2.3-11,1.45-20.08,9.68-27.46,3.14-2.79,7-4,11-5.09a94.15,94.15,0,0,1,18.27-2.42c17.91-1.21,35.81-2.3,53.72-1.33,7.87.49,15.73,1.58,23.6,2.54a23.57,23.57,0,0,1,14.88,7.75c1.45,1.57,3.51,2.78,4.72,4.47,1.81,2.42,3.75,5,4.72,7.87a116,116,0,0,1,3.27,12.7c1.69,8,2.9,16,4.71,24a206,206,0,0,1,3.88,27.11c1.33,15.36,2.54,30.61,3.87,46,.48,6.65.72,13.43,1.33,20.08,1.09,12.1,1.94,24.08,1.45,36.18-.36,11.38-1,22.87-1.45,34.24A80.55,80.55,0,0,0,364.09,612.69Z"/><path d="M366.87,608.49c2.05.12,3.75.36,5.44.48,8.83.49,17.79,1,26.74,1.45,3.63.25,4.12.61,4.6,4.24a15.6,15.6,0,0,1-.73,8.47c-1.45,3.63-3.38,6.77-8.35,6.53.49,4.48,1,8.84,1.46,13.19,1.69,14,3.26,28.19,5,42.23s3.39,28.44,5,42.59c1.69,13.92,3.27,28,5,41.87,1.09,9.8,2.3,19.6,3.39,29.52.12.61.12,1.33.24,1.94,0,1.33-.48,2.42-1.94,2.66-1.21.24-2.3-.6-2.78-2.3a10.61,10.61,0,0,1-.24-1.93c-2.42-20.09-4.72-40.18-7.14-60.26-2.3-19.6-4.6-39.33-6.9-58.93-1.93-16.46-3.87-32.91-5.8-49.49a13.85,13.85,0,0,0-.37-1.57c-43.68-1.57-87.36-3.15-131.53-4.72-.24,1.21-.48,2.66-.72,4.11-2.54,18.64-5.2,37.27-7.75,55.91-2.29,16.69-4.59,33.27-6.89,50s-4.72,33.52-7,50.33l-2.18,16a16,16,0,0,1-.48,2.3c-.49,1.21-1.45,1.93-2.54,1.45a4,4,0,0,1-1.7-2.06,10.1,10.1,0,0,1,.12-3.27c1.33-10.16,2.79-20.2,4.24-30.37,2.3-16.82,4.6-33.51,7-50.33s4.59-33.52,7-50.34c2.06-14.64,4.12-29.4,6.18-44a11.2,11.2,0,0,0,.12-2.06c-4.6-3-6.17-7.62-7.26-12.83q-12-54.27-24.08-108.41c-5.21-23.48-10.29-47.07-15.73-70.42-1.45-6.66-2.54-13.19-1.82-20a35.77,35.77,0,0,1,5.33-16.09c5.68-9.08,14-13.19,24.56-13.55l11.86-.37c24.08-.36,48.16-.72,72.24-1.33a28.52,28.52,0,0,1,19.48,6.66c8.22,6.77,14,15.24,16.33,25.65,2.06,9.68,3.87,19.36,5.33,29.16,1.57,10.53,2.66,21.17,3.75,31.7,1.21,11.86,2.3,23.6,3,35.45,1.57,27.71,2.78,55.42,1.09,83.13-.24,4.6-.36,9.2-.48,13.8Zm31.94,6.89a9.44,9.44,0,0,0-1.94-.24C378,614.05,359.12,613,340.25,612l-54.09-2.91a5,5,0,0,1-1.33-.12c-2.66-.36-3.27-.85-3.51-3.51-.12-1.21,0-2.42,0-3.63,0-2.9,0-5.68-.12-8.59-1.21-22.75-3.63-45.37-6.78-67.88a637.1,637.1,0,0,0-13.31-70.3,201.88,201.88,0,0,0-15.73-41.5c-3.51-7-8.35-12.95-15.49-16.7-.24-.12-.6-.36-.84-.49-1.58-1.08-2.06-2.42-1.33-3.63s2.05-1.33,3.87-.48a3.93,3.93,0,0,0,1.21.61,37.57,37.57,0,0,1,16.09,16.94c5,9.8,9.56,19.72,12.83,30.37a378.37,378.37,0,0,1,11.73,50c2.18,13.19,4.48,26.5,6.3,39.69,1.69,12.58,3.14,25.29,4.23,38,1,11.62,1.33,23.23,1.94,34.85a11.1,11.1,0,0,0,.24,1.33c25,1.45,50.21,2.78,75.74,4.11,0-3.38-.12-6.41,0-9.31a590.67,590.67,0,0,0,.49-65.58c-.61-11.38-1-22.87-1.82-34.25-.72-10.52-1.81-21.05-2.9-31.58-1.09-10.16-2.3-20.33-3.75-30.37-1.21-8-2.91-16-4.6-24-2.54-12.1-9.32-21.17-20.08-27.22a15,15,0,0,0-7.63-2.06c-2.54,0-5.08,0-7.62.12-26.38.49-52.76.85-79.14,1.33a30.66,30.66,0,0,0-8.1,1.09c-9,2.54-14,9.08-16.58,17.67-2.18,7.38-1.81,14.76-.24,22.14,8.59,38.72,17.3,77.44,25.89,116.16,5,22.51,9.92,45,14.89,67.64,1.33,6.17,5.08,9.32,11.25,9.56,18.15.72,36.3,1.33,54.45,2.06,14.76.6,29.4,1.08,44.16,1.69l33,1.09c2.78.12,3.63-.49,4.6-3.27A6.66,6.66,0,0,0,398.81,615.38Z"/></g><g id="Man1"><path class="cls-2" d="M474.22,643.61a35.75,35.75,0,0,0-2.06,3.27c-6.29,10.53-11.25,21.66-16,32.91a430.9,430.9,0,0,1-19.6,41.38,158.85,158.85,0,0,0-10.41,24.2c-3.75,10.41-9.74,20.82-13.74,31.1-.72,1.94-.33,3.63,0,5.69.24,1.81,1.12,3.75,1,5.56s-2.18,3.39-4.72,3a99.88,99.88,0,0,1-30.13-8c-3.75-1.69-4.36-3.26-3.39-7.38,1.33-6.17,2.78-12.22,4-18.39a600.43,600.43,0,0,1,14.4-59.89c4-14,9-27.83,13.43-41.75,4.36-13.55,9.32-27,12.47-41,.6-2.78,1.09-5.56,1.69-8.83-1.81.12-3.27.24-4.6.36s-2.78,0-3.26-1.57c-.49-1.33.36-2.18,1.45-2.91a3.28,3.28,0,0,0,1.21-2c2.66-12.71,8-24.44,13.91-35.82a35.44,35.44,0,0,1,8.47-10.89c2.18-1.81,4.48-2.54,7.26-1.33,2.3,1,4.72,1.69,7.26,2.66a7.38,7.38,0,0,0-.84-5.81c-1.46-2-1-3.5,1.45-4.23a27.42,27.42,0,0,1,6.17-1,118.58,118.58,0,0,1,14.76.49c7.62,1,13.79,5,19,10.4a99.56,99.56,0,0,1,17.42,24.32c11,22.39,22.27,44.65,33.16,67.16,3.75,7.74,6.77,15.73,10.16,23.59,8.23,19.48,17.42,38.48,27.22,57.11,3,5.81,5.57,12,8.35,17.91,2.18,4.6,1.58,9.08-.6,13.31a31,31,0,0,1-5.57,8.11c-3.75,3.75-8.11,7.14-12.22,10.53-1.69,1.33-3.39,1.21-5.08-.25a9.69,9.69,0,0,1-1.57-1.69,299.72,299.72,0,0,1-22.87-29.4c-11.62-17.06-24.08-33.64-36.54-50.1a294.6,294.6,0,0,1-29.41-48A24,24,0,0,1,474.22,643.61Z"/><path class="cls-2" d="M414.44,471.43c-2.42-3.75-4.71-7.26-6.89-11a62.23,62.23,0,0,1-4.48-9.08c-1.81-4.47-1-6.65,3-9.07,2-1.21,4.35-2.18,6.41-3.39,5-2.66,9.8-5.44,14.76-8.11,3.63-2,5-1.57,6.66,2.18.72,1.58,1.21,3.27,1.93,4.84,1.21,2.42,2.42,4.84,4.12,7.87a30.79,30.79,0,0,0,1.69-3c4-9.07,8-18,12-27.1,6.29-14.28,12.7-28.56,19-42.84A26.38,26.38,0,0,1,474,370a27,27,0,0,1,14.15-14.4c6.78-3.14,5.57-1.81,4.6-9.07-.36-2.91-.6-5.93-.72-8.83-.13-2.55,1.08-4.12,3.63-4.84,3.38-1.09,6.77-.85,10.16-.49,2.9.36,5.93,1,8.83.73a30.1,30.1,0,0,0,8.59-1.82c3.39-1.09,4.84-.36,4.84,3.15V338c5.57,0,6.05.48,6.66,6.29.24,2.66.48,5.32,1,7.86,1.08,6.05-.73,11-4.6,15.49a45.85,45.85,0,0,1-4.24,4.24,3.29,3.29,0,0,0-1.21,3.51c.37,2.3.61,4.59.85,6.89.24,3.75-.6,5.57-4.11,7-6.66,2.78-13.56,4.6-20.82,3.75h-1a2.11,2.11,0,0,0-.61.85c-5.2,13.79-12.82,26.5-18.75,39.93q-5.62,12.88-10.89,25.77c-.61,1.45-.85,2.91-1.46,4.84,4.84.85,9.44,1.58,14,2.3a30.27,30.27,0,0,1,3.27.36c1.21.25,2.42,1,2.42,2.3a4.11,4.11,0,0,1-1.33,2.79,53.65,53.65,0,0,1-5.45,3.63l6.05,3.38a26.92,26.92,0,0,1,3.87,2.55,3.08,3.08,0,0,1,1.33,3.5,3.2,3.2,0,0,1-2.78,2.42,45.87,45.87,0,0,1-5.08.49c1.45,1.45,2.54,2.66,3.63,3.75,2.42,2.42,3.27,4.36,2.3,5.93-1.45,2.3-3.87,2.3-5.93,1.69a36.75,36.75,0,0,1-7.62-3,4.49,4.49,0,0,0-3.75-.49c-9,3-18,1.94-27.11.12a11.73,11.73,0,0,0-5.44.13c-11.62,3-23.24,5.92-34.73,8.95-10.53,2.78-20.93,5.81-31.46,8.47-10,2.54-20,5.2-30.13,7.26a88.84,88.84,0,0,1-15.12,2c-5,0-8.72-3.18-11.62-7.42a178,178,0,0,1-20.93-42.83c-.85-2.66-1.7-5.2-2.42-7.86-.85-3-.25-4,2.42-5.57,8-5,17.18-6.53,26.13-8.83,5.45-1.46,7.75-.25,10.05,4.84,3.38,7.74,6.29,15.73,9.43,23.59,2.06,5.08.61,5.33,7.26,4.12s13.07-3.15,19.61-4.6c3.63-.85,7.38-1.45,11-1.94a25.27,25.27,0,0,1,4.23-.12c4-.12,7.87-.12,11.86-.36,2.78-.24,5.44-.73,8.23-1.09A32.41,32.41,0,0,0,414.44,471.43Z"/><path class="cls-2" d="M336.64,340.75l-3.27-.73c-5.08-1.33-7.62-5.92-6.05-11a12.92,12.92,0,0,1,6.42-7.62,11.3,11.3,0,0,0,3-2.42c1.58-1.69,3.15-3.39,4.6-5.2,3.27-4,7.62-6,12.71-6.9,7.38-1.33,14.64-2.9,21.9-4.48a75.39,75.39,0,0,0,7.5-2.42c4.11-1.45,6.41,0,6.53,4.48.12,7.5.24,15,.12,22.39A31.07,31.07,0,0,1,386.49,340c-4,7.75-10.89,10.77-19,11.86-1.21.12-2.42.12-3.88.24-.24,2.18-.36,4.36-.6,6.54-.36,3.51-.48,7-1,10.53s-1.81,4.84-5.2,5.44c-7,1.21-13.55.24-19.48-4-2.18-1.58-3.27-3.27-2.91-6.05.85-7.26,1.33-14.4,1.94-21.66A5.75,5.75,0,0,0,336.64,340.75Z"/><path class="cls-3" d="M287.79,464.65H283c-2.54-.12-3.63-1-4.11-3.38a72.43,72.43,0,0,1-.85-7.51c-.73-7.62-1.45-15.36-1.94-23-.72-11.25.61-22.38,2.91-33.39,2.18-10.29,8.35-17.79,17.54-22.75,9.68-5.2,20.09-8.83,30.49-12.58a10.82,10.82,0,0,1,1.94-.49c2.06-.24,2.9.24,3.39,2.18,1,4.11,3.75,6.66,7.14,8.59a18.52,18.52,0,0,0,15,1.33,6.42,6.42,0,0,0,4.6-4.35c.48-1.7,1.21-3.27,1.69-5a3.5,3.5,0,0,1,2.91-2.67,131.92,131.92,0,0,1,27.46-2.9,17.26,17.26,0,0,1,12.59,5.08,39,39,0,0,1,7.14,9.44c7.86,14.28,14,29.28,20.33,44.29a70,70,0,0,0,3.14,6.89c.85,1.58.61,2.54-.48,3.87a36.15,36.15,0,0,1-9.8,7.75,62.64,62.64,0,0,1-16,6.17,4.51,4.51,0,0,0-3.63,3.63A140.64,140.64,0,0,0,400,468.16c-.12.61-.12,1.09-.24,1.58-.73,3.38-1.7,4.23-5.21,4.84-4.6.72-9.07,1.57-13.67,2.42-10.41,1.69-20.81,3.51-31.22,5.2a66.65,66.65,0,0,1-6.9.48c-1.81.12-2.78-.72-3.38-2.42-3.15-8.71-6.54-17.54-9.8-26.25a3.38,3.38,0,0,0-.73-.85c-11.74,3.15-23.72,6.41-35.57,9.56a8.05,8.05,0,0,0,.24,6.29c3.14,7.62,6.17,15.25,9.31,22.87a137.06,137.06,0,0,0,12.95,23.72c2.66,4,6.41,5.8,10.89,6.65,7.26,1.33,14.28.36,21.18-1.57,8.1-2.3,16.21-4,24.32-6.38,4.23-1.21,8.47-2.54,12.7-3.63,4.84-1.21,6.29-1,6.66,3.84.24,3.14.24,6.41.48,9.56.24,3.63.49,7.26.73,10.89.24,3.38-.73,4.59-4.12,5q-5.44.54-10.89.72c-16.82.12-33.51,1.94-50.33,3.15-14.76,1-29.65,0-44.53-1.36-7-.61-7.74-.58-6.66-7.47q3.82-23.42,8-46.83c1.09-6.17,2.3-12.34,3.39-18.51C287.67,468,287.67,466.59,287.79,464.65Z"/><path d="M472.31,647.61c-20.57,44-40.17,88-59.89,132,2.66,1.93,5,3.75,7.26,5.56,7.38,5.69,14.76,11.5,22,17.31a14.22,14.22,0,0,1,3,3c1.57,2.3.72,4.72-1.94,5.32a14.4,14.4,0,0,1-4.6.13,107.36,107.36,0,0,1-24.68-5.45c-12.1-4.11-24.32-8.47-36.42-12.7a32.83,32.83,0,0,1-6.54-3.15c-2.54-1.45-3-3.15-2.42-5.93,5.45-22.14,10.41-44.28,16-66.31,6.18-24.68,13.31-49.24,21.78-73.32,3-8.59,5.81-17.31,8.6-25.9a35.68,35.68,0,0,0,1.08-3.63c-2.78,2.67-5.44,2.06-8.1,1.94-16.7-.24-33.4-.61-50.1-.49-10.16,0-20.45.85-30.61,1A97.84,97.84,0,0,1,299,613c-15.24-4.23-25.41-17.3-26.26-33.15-.6-12.1,1.82-23.6,5.69-35,1.21-3.51,1.94-3.87,5.93-3.87,48.28-.61,96.56-1.34,144.84-1.94l18.51-.36c3.39,0,3.39,0,5.45,3,3.38-.12,6.89-.36,10.4-.36,15.61,0,28.56,5.56,38.12,18.15A90.68,90.68,0,0,1,511.64,575c16,31.82,32.91,63.16,47,96,8.83,20.57,17.66,41.26,26.5,61.83a7.42,7.42,0,0,1,.6,1.45c1,2.18,1.21,2.3,3.51,1.7q5.63-1.63,11.25-3.63c4.6-1.46,9.2-3,13.8-4.48a31.42,31.42,0,0,1,3.14-1c1.57-.36,3.15-.36,4.24,1.09a3.82,3.82,0,0,1,.24,4.6,37.8,37.8,0,0,1-4,5.69q-6.54,7.44-13.43,14.52c-9.44,9.92-18.88,19.72-28.32,29.52l-.73.73c-3.38,3.38-6,3.26-8.95-.61l-5.08-6.9c-21.18-29-42.47-58.08-63.53-87.12a369.32,369.32,0,0,1-24.68-39.32C473.16,648.7,472.92,648.45,472.31,647.61Zm-60,138.18a14.77,14.77,0,0,1-1.33-1.21c-4.36-2.91-4.48-3-2.3-7.87,4.72-10.64,9.44-21.29,14.28-31.82C438.55,710.53,454.28,676,470,641.8c6.05-13.31,12-26.74,16.34-40.66a63.64,63.64,0,0,0,2.78-12.46c1.09-9.8-3.26-19.6-14.15-24a55.28,55.28,0,0,0-7.51-2.54c-10.28-2.3-20.57-4.48-30.85-6.78-9,8.59-20.21,40.3-19.48,48.89a9.36,9.36,0,0,0,2.18-1c.36-.24.36-.85.48-1.21a2.28,2.28,0,0,1,4.36,1.33,16.14,16.14,0,0,1-.61,2.18c-2.42,7.26-4.6,14.64-7.14,21.9-12.46,36.3-24,72.84-32.31,110.35-2.66,12-5.68,24-8.59,35.94-.24,1.21-.36,2.54-.48,3.75,11.74,3.75,23.11,7.38,34.61,11.13C410.48,787.85,411.33,786.88,412.3,785.79Zm154.63-11.25c1.7-1.82,3.15-3.39,4.48-4.84,4.24-4.6,8.59-9.2,13-13.68a3.67,3.67,0,0,0,1-4.11c-1-3.27-1.33-6.66-2.06-9.92a9.62,9.62,0,0,0-.73-2.54c-10.16-23.48-20.2-47.07-30.37-70.55-13.43-31.09-29.64-60.86-44.77-91.11-2.66-5.33-6.29-10.29-9.68-15.25a33.67,33.67,0,0,0-9.43-9.07c-10.77-7-22.63-8.47-35.09-6.29v7a19.74,19.74,0,0,0,2.29.61c7.14,1.57,14.28,2.78,21.06,5.57,10.89,4.47,17.3,13.79,17.42,25.65.12,5.68-1.33,11.13-3,16.45a295.25,295.25,0,0,1-14.28,35.82,7.48,7.48,0,0,0,.12,7.62,325.57,325.57,0,0,0,22.75,36.67c21.66,30.12,43.68,60.13,65.58,90.14A11.92,11.92,0,0,1,566.93,774.54ZM415.56,612.88c1.09-1.21,1.94-2.42,1.46-4-.25,0-.49-.12-.73-.12C415.93,610.22,415.81,611.55,415.56,612.88Z"/><path d="M488.41,496.36c-1.09-.85-1.7-1.33-2.42-1.94-1.7-1.33-3.88-2.42-5.09-4.11-2.54-3.51-6-4-9.8-4.36a16.5,16.5,0,0,1-3.51-.6,2.29,2.29,0,0,1-1.81-2.79,2.43,2.43,0,0,1,2.78-1.81c3.27.36,6.54.84,9.8,1.33a7.72,7.72,0,0,1,2.3,1.09,15.19,15.19,0,0,0,10,1.69c-6.42-4.6-12.47-9.92-21.18-8.95a11.74,11.74,0,0,1-2.9-.12,2.24,2.24,0,0,1-2.06-2.18,2.1,2.1,0,0,1,2.3-2.3c3.75.12,7.5.12,11.13.6a15.72,15.72,0,0,0,8.95-1.45c-12.82-1.21-25-2.18-37.38-.24-22.39,3.75-45,6.9-67.52,10.16-10.29,1.46-20.69,2.79-31.1,4.24-2.18.24-4.36.85-6.53,1.21-2.91.48-4-.12-5-3-2.91-8.22-5.81-16.33-8.72-24.56a6.3,6.3,0,0,1-.6-2.9,4.2,4.2,0,0,1,1.45-2.3c1.09-.61,2.06.12,2.66,1.21a14.65,14.65,0,0,1,.85,2.18c2.66,7.5,5.32,15.12,8.11,22.62.12.49.48,1,.72,1.7,22.27-4,44.89-5.57,67.52-9.92a99.08,99.08,0,0,0-8.11-14.16,22.87,22.87,0,0,1-1.81-2.78c-.73-1.46-.36-2.91.85-3.51a2.24,2.24,0,0,1,3.14,1c1.94,2.79,3.87,5.69,5.57,8.6,1.45,2.29,2.54,4.84,4,7.26,1.57,2.78,2.3,3,5.32,2.54l37.51-5.45c2.3-.36,4.6-.24,7.26-.48q16.15-34.67,32.43-69.94c-.84-.61-1.45-1.09-2.18-1.57a7.92,7.92,0,0,1-3.75-6.54c-.24-6.17-.72-12.34-1.33-18.39-.24-2.78.37-4.84,2.66-6.53a37.28,37.28,0,0,0,4.84-5,5.61,5.61,0,0,0,1.21-3.27c-5.56,2.9-11.13,5.56-16.45,8.71-3.15,1.82-5,5-6.54,8.11-6.17,12.58-12.46,25-18.27,37.63-5.68,12.34-10.77,25.05-16.09,37.63-.24.48-.36,1.21-.73,1.45-.6.49-1.45,1.21-2.17,1.09a3.44,3.44,0,0,1-1.94-1.57c-2.3-4.24-4.48-8.47-6.78-12.71-1.33-2.42-1.33-3.75,0-4.6s2.55-.24,4.12,2.18,2.9,4.84,4.6,7.75c.6-1.46,1.09-2.54,1.57-3.63,9.2-22.39,19.48-44.29,30.37-65.83.85-1.57,1.57-3.14,2.54-4.6a22.69,22.69,0,0,1,9.8-9c2.18-1,4.36-2.18,6.66-3.27a14.72,14.72,0,0,0,0-2.3c-1-7.74-1.94-15.48-3-23.23-.84-6.05-.36-6.65,5.57-7.26,1.09-.12,2.18-.24,3.39-.48-.12-1-.25-1.82-.37-2.66-1-4.72-2.05-9.44-3-14.16a4.92,4.92,0,0,0-2.78-3.75c-4.6-2.42-9.08-5-13.56-7.5a11.28,11.28,0,0,1-2.42-1.7,1.92,1.92,0,0,1-.36-2.66,4.71,4.71,0,0,1,2.54-1c.61-.12,1.21.49,1.82.73,5.32,3,10.77,6.05,16.09,8.95a5.19,5.19,0,0,1,2.78,3.87c1.21,5.93,2.54,11.86,3.87,17.67.13.48.25,1.09.49,1.94l16.09-1.09c.49-1.21.85-2.42,1.33-3.51.73-1.82,1.94-2.66,3.15-2.18,1.57.61,1.69,1.82,1.45,3.27-.12.48-.12.84-.24,1.57a13.34,13.34,0,0,0,2.18.24c2.78.24,4,1.21,4,4.12.12,3.87.12,7.74.12,11.49,0,.85.12,1.7.12,2.78a7.13,7.13,0,0,0,1.45.61,4.9,4.9,0,0,1,4,3.87c1.69,6.78,2.66,13.55,1.33,20.57a13.15,13.15,0,0,1-5.45,8.35c-2,1.45-2.66,3.15-2.78,5.57-.12,3.51-.48,7-.61,10.52a6.16,6.16,0,0,1-2.78,5,32.89,32.89,0,0,1-17.66,5.69h-4.6c-10.53,22.75-21.18,45.5-31.95,68.73,5.57.48,10.53.85,15.61,1.21a19.26,19.26,0,0,1,4.6.48c3.63,1,4.48,4.6,1.69,7.14-1.45,1.33-3.26,2.06-5.32,3.27,2.06,1.33,3.87,2.54,5.81,3.75,1.09.61,2.18,1.09,3.14,1.69,3.39,1.94,3.51,4.84.13,6.78a15.3,15.3,0,0,1-4,1.33c-.84.24-1.57.36-3,.73,1.57,1.09,2.66,1.81,3.75,2.54,2.42,1.69,2.66,4.11.48,6A8.52,8.52,0,0,1,489,501c-4.35.85-8.83.73-12.82-1.57-2.42-1.45-4.72-1.33-7.26-.6-4,1-8,1.69-12,2.42a16.84,16.84,0,0,1-10.29-1.46,4.91,4.91,0,0,0-4.11-.24c-16,5.57-32.55,8.11-48.77,12.83-12.82,3.75-25.77,7.26-38.72,10.89a96.06,96.06,0,0,1-22.74,3.51c-6.66.24-12.1-2.06-16.1-7.26a62.58,62.58,0,0,1-6.41-9.56,280.48,280.48,0,0,1-19.12-45.26c-.12-.36-.48-.84-.36-1.21a4.21,4.21,0,0,1,1.21-2.42,2,2,0,0,1,2.9.73,19.55,19.55,0,0,1,1.58,3.63,280.72,280.72,0,0,0,17.42,41.26,66.86,66.86,0,0,0,6.53,9.92c2.91,3.88,6.78,5.45,11.74,5.45a88.35,88.35,0,0,0,24-3.75c24.68-7,49.37-14.16,74.54-19.73a74.09,74.09,0,0,0,8.83-2.78c3.51-1.33,6.9-1.69,10.53.24,2.78,1.46,5.8,1.09,8.71.49q5.63-1.1,11.25-2.54a9.38,9.38,0,0,1,7.62,1A17.8,17.8,0,0,0,488.41,496.36Zm23.11-128.51c.6,2.67,1,5.09,1.45,7.39.6,3.14.12,4.59-1.57,5s-2.54-1-3.15-3.88c-1.21-6.05-2.42-12.1-3.63-18a9,9,0,0,0-.6-1.94c-2.55,2.66-4.72,5.44-7.26,7.74a4.62,4.62,0,0,0-1.58,4c.49,5.8,1,11.61,1.33,17.42a3.5,3.5,0,0,0,2.18,3.39,14.79,14.79,0,0,0,3.63,1.33c6.66,1.33,12.83-.36,18.51-3.75a3,3,0,0,0,1.46-1.57,44.84,44.84,0,0,0,.48-9.93c-1.21.61-2.06,1.09-3,1.58-1.58.72-3.15,1.33-4.6.12s-1.33-3.15-.85-4.84c.24-1,.61-1.94.85-3A26.22,26.22,0,0,0,511.52,367.85Zm18.75-27c-4.23.49-13.19,7.14-15.36,11.38,1.33-.37,2.29-.61,3.38-.85a12.8,12.8,0,0,1,3.51-1,4.91,4.91,0,0,1,2.91,1c1,.85.6,2.06-.12,3s-1.58,1.82-2.42,2.79c-1.34,1.45-2.79,3-4.6,5.08a6.57,6.57,0,0,0,2-.49c1.34-.6,2.79-1,3.88.37s.36,2.9-.49,4.23c-.72,1.09-1.57,2.3-2.3,3.39a24.92,24.92,0,0,0,8-5.08,9.74,9.74,0,0,0,3.27-6.29,39.17,39.17,0,0,0-.49-12.47C531,344.26,530.64,342.57,530.27,340.87Zm-5.93-8.11c-6.65,3.88-13.06,2.18-20,1.09,1.33,6.17,2.66,12,4,18,2.18-2.42,3.75-4.84,5.81-6.65a77.62,77.62,0,0,1,8.71-6.42c1.21-.84,1.94-1.69,1.7-3.14C524.46,334.82,524.46,334.1,524.34,332.76Zm-25,.13a24.49,24.49,0,0,0-4,1.81,3.48,3.48,0,0,0-1.93,3.15q.72,5.63,1.45,11.25c2.66-1.09,5-1.94,7.38-2.9C501.23,342.08,500.26,337.85,499.3,332.89Zm16.33-10.29c-4.72.36-8.95.61-13.43,1,.48,1.93.85,3.51,1.21,5.08l9.68,1.82C513.82,327.8,514.66,325.63,515.63,322.6Zm-17.42,5.69c-.37-1.45-.61-2.79-1-4.36-1.94.12-3.63.24-5.57.49.25,2.17.61,4,.85,5.92C494.46,329.62,496.15,329,498.21,328.29Zm22.62-6.05c-.84,2.66-1.69,5-2.42,7.26a2,2,0,0,1,.61.48c1.81-1,3.51-1.81,5.32-2.78V322A34.49,34.49,0,0,1,520.83,322.24ZM515,357.45c-2.06-.12-3.63-.36-5.57-.49.36,2.18.85,4.12,1.33,6.66C512.36,361.32,513.57,359.51,515,357.45Z"/><path d="M329.17,326.23c-2.18,2.9-2.9,5.81-1.33,7.74,2.06,2.55,4.48,4.6,8.11,4,2.9-.49,3.75.48,3.38,3.39-.84,6.53-1.57,13.06-2.29,19.6-.13,1.21-.25,2.42-.49,3.63-.36,2.3-1.21,3.26-2.66,3.14s-2.3-1.45-2.06-3.87c.24-2.66.61-5.2.85-7.86q.72-6.18,1.45-12.35c-2.3-1.08-4.48-2-6.53-3.26-5.81-3.75-7.26-9.92-3.51-15.73a6.31,6.31,0,0,0,1-5.45c-1.58-7.74-2.3-15.49,0-23.23a24.43,24.43,0,0,1,1.93-5.2c2.42-4.48,6.05-7.26,11.38-7.26,1.57,0,2.66-.24,3.63-1.7,4.72-6.89,11.49-8.59,19.36-7.5a26.29,26.29,0,0,1,6.05,1.45c2.3.85,3.87.25,5.56-1.33a39,39,0,0,1,6.17-4.47,23.42,23.42,0,0,1,6.05-2.42c3.63-.85,5.45.24,7.51,3.38.24.49.6,1,.84,1.58,1-.37,1.94-.85,3-1.21,3.14-1,5.93.48,6.29,3.75a14.54,14.54,0,0,1-.36,5.56,32.06,32.06,0,0,1-9.2,15.73,7.3,7.3,0,0,0-2.3,6.05c.36,6.9.61,13.8.61,20.82a72.44,72.44,0,0,1-.73,10.16c-1.33,9.92-9.68,20.81-23.72,20.45H363.9c-.24,3.51-.49,6.9-.61,10.16-.12,1.58,0,3-.12,4.6-.12,2.42-1,3.63-2.42,3.63s-2.3-1.21-2.3-3.63c.12-4.48.37-8.95.49-13.55v-1.82c-.73-.24-1.33-.48-2.06-.72-4.84-1.58-9.8-3.27-14.64-4.84a4,4,0,0,1-1.45-.73c-1.21-.72-1.82-1.69-1.33-3a2.27,2.27,0,0,1,3-1.33,20.27,20.27,0,0,1,2.42,1,75.07,75.07,0,0,0,20,5.33c12.46,1.45,20.32-7.63,21.41-17.18a87.66,87.66,0,0,0,.61-9.93c-.12-6.29-.37-12.46-.61-19.36-1.21.61-2.18,1-3.14,1.46-6.78,3.26-13.92,5.56-21.54,5-2.18-.12-4.36-.61-6.66-1-.36.72-.84,1.45-1.21,2.3a17,17,0,0,1-6.77,7.5,3.91,3.91,0,0,0-2.42,3.51c-.12,1.81-.49,3.75-.73,5.56-.24,1.21-.6,2.42-1.93,2.91s-2.3-.24-3.15-1.09c-1.57-1.82-3.15-3.63-5-5.57a5.22,5.22,0,0,0-4.36,2.67C329.53,325.87,329.29,326,329.17,326.23Z"/><path d="M361.84,338.45c.12-1,.12-2.3.36-3.63.37-2.3,1.46-3.14,3.63-2.3a21.34,21.34,0,0,0,8.23,1.7c1.82,0,2.66,1.09,2.78,2.9.25,3.75-3.26,8.23-6.89,8.95C365.23,347,361.72,343.9,361.84,338.45Zm9.56.49c-1.69-.37-3-.61-4.48-.85-.12,2.18,0,2.9.85,3.14C369.58,341.6,370.43,340.63,371.4,338.94Z"/><path d="M373.58,325c-.85-2.3-1.58-4-2.3-5.81l-.73-2.18c-.48-2.17.12-3.5,1.58-3.87s2.29.49,3,2.66c.85,2.42,1.82,4.72,2.78,7,1.09,2.54.85,3.39-1,5.33-1.21,1.09-2.42,2.3-3.63,3.26a2.31,2.31,0,1,1-3.15-3.38Z"/><path d="M329.17,326.23l.48-.48a6.7,6.7,0,0,1,6.3,1.69,2.66,2.66,0,0,1,.84,3.51c-.6,1.09-1.93,1.21-3.51.48-.6-.24-1.08-.84-1.69-1C329.29,329.86,328.81,328.29,329.17,326.23Z"/><path d="M366,318.12a3.32,3.32,0,0,1-3,3.39c-1.57,0-2.9-1.69-2.9-3.75a3,3,0,0,1,2.9-3.27C364.62,314.49,366,316.19,366,318.12Z"/><path d="M384.59,317.64c0,2.06-1,3.39-2.66,3.39s-2.67-1.21-2.79-3.39,1-3.51,2.42-3.63C383.26,313.89,384.47,315.46,384.59,317.64Z"/><path class="cls-1" d="M372,295.92c-1.33.24-2.54.36-3.75.6a11.82,11.82,0,0,1-20,6.54c-3.14,3.14-6.41,6.17-9.56,9.31a7.77,7.77,0,0,0-1.09,2.42c-.36.85-.6,1.7-1,2.42a2.31,2.31,0,0,1-2.67,1.45,2,2,0,0,1-1.57-2.78c.61-3,1.57-5.93,4-8.11l7.63-7.26c1.33-1.21,2.05-2.29,1.69-4.23-.36-2.3.61-3.51,2.91-4.11,4.71-1.21,9.55-2.3,14.39-3.27,2.3-.49,3.39,1.09,4.6,2.78,1.21-.12,2.3-.24,3.75-.36.73-3.63,3.51-4.24,6.66-4.48,3.39-.24,6.77-.85,10.16-1.21s4.72.73,5.08,4a12.63,12.63,0,0,1-6.65,12.59,9.9,9.9,0,0,1-13.07-3.51A31.07,31.07,0,0,0,372,295.92Z"/><path class="cls-3" d="M524.62,295a18.34,18.34,0,0,1,17.18,23.23c-.85,3.15-2.66,4.11-5.69,2.66a6.08,6.08,0,0,0-5.93-.12c-2,1-3.14.36-4-1.93-1.33-3.63-2.54-4.12-6.17-2.91-2.3.73-3.27.24-4-1.93-.24-.61-.24-1.34-.49-1.94a3.39,3.39,0,0,0-3.63-2.3c-4.11.12-5.32-1.94-3.38-5.44A18,18,0,0,1,524.62,295Z"/></g><g id="Table-Set"><path class="cls-2" d="M587.42,466.07a20.88,20.88,0,0,0-2.55-.12c-21.41-.24-42.83-.36-64.37-.48-4.47,0-8.95.36-13.43.48-2.3.12-3.75-1.57-3.63-4,.73-8,2.91-15.61,5.2-23.11,1.58-5.21,3.27-10.29,5-15.37,5.56-16.09,8.71-32.67,12.58-49.13,3.51-14.76,6.9-29.52,13.07-43.44,1.09-2.42,2.18-4.84,3.39-7.14a23.21,23.21,0,0,1,12.7-11,5.9,5.9,0,0,1,2.9-.36c1.7.12,3.51.61,5.21.61q89.84.36,179.56.6h5.57a8.78,8.78,0,0,1,8.71,8.47,5.54,5.54,0,0,1-.36,1.94c-.85,2.05-1.94,3.87-2.67,5.93q-20,61.33-39.93,122.93c-.48,1.7-1.08,3.27-.72,5.08.48,2.06-.85,3.63-2.42,4.72a9.1,9.1,0,0,1-4.24,1.58c-3.14.36-6.41.36-9.56.48-14.52.36-29,.73-43.56,1.21-4.71.12-9.43.48-14.15.36a5.61,5.61,0,0,0-5.93,3.63c-3.63,7.87-7.62,15.61-10.89,23.72-3.63,9.07-6.66,18.39-9.8,27.59-1.33,3.75-1.94,4.35-5.81,4.35-12.22-.12-24.44-.24-36.66-.48-5.45-.12-7.26-2.42-5.21-7.62,2.42-6.18,5.33-12.35,8-18.4,4.6-10.4,9.2-20.93,13.79-31.46A6.07,6.07,0,0,0,587.42,466.07Z"/><path class="cls-2" d="M514.33,524.63H505.5c-17.3.13-34.73.37-52,.49-2.06,0-4.12-.24-6.29-.36-1.58-.13-3-.37-4.48,1.08s-3.39.25-3.63-1.93c-.36-3.15.73-6,3.63-7.5a19,19,0,0,1,7.14-2.3c7.62-.49,15.37-.85,23-.73,12.46.24,25.05.85,37.51,1.33a10.43,10.43,0,0,1,1.93.12c4.72.61,5.69,1.33,6.9,5.93.61,2.06-.12,3.15-2.18,3.39a19.65,19.65,0,0,1-2.66,0Z"/><path class="cls-2" d="M775,541q-232.5.54-465.13,1.21c-.36,2.78-.72,5.32-1.09,8Q305.7,577,302.6,603.89c-2.05,17.78-4.23,35.57-6.29,53.36-1.81,16-3.75,31.94-5.56,47.79s-3.76,31.83-5.57,47.8c-1.69,14-3.39,28.19-4.84,42.23-.36,3.63-.06,6.53-1,9.8-.24.6-3.45,1.33-4.05,1.21a3.5,3.5,0,0,1-2.06-1.7,6,6,0,0,1-.12-2.54c1.09-13.55,2.3-27.22,3.51-40.77,1-11.86,2.06-23.72,3-35.46,1.21-14.27,2.42-28.43,3.63-42.71,1-11.37,1.94-22.75,2.91-34.24,1.21-14.52,2.54-28.92,3.75-43.44,1-10.89,1.81-21.66,2.78-32.55.85-9.56,1.57-19.12,2.42-28.56v-2.05H284.57c-.6,0-1.33-.28-1.93.09-1.57,1-2.91,1-4.12-.37-4.35-4.84-4-10.37-.84-14.12,1.69-2.06,3.14-2.18,5.32-.49.61.49,1.45-.27,2.3-.15a14.72,14.72,0,0,0,2.3,0c173,0,346.06.88,519.09.88,1.69,0,3.27,0,5-.12a8.38,8.38,0,0,1,9.08,7.38,12.25,12.25,0,0,1-.85,5.08c-.85,1.94-2.18,2.18-4,1.21-.61-.36-1.09-.85-1.7-.85H791.81c.24,4,.6,7.75.84,11.38,1.46,18.27,3,36.66,4.48,54.93,1.21,14.52,2.42,28.92,3.63,43.44,1.21,14.88,2.3,29.77,3.63,44.77.73,8.59,1.82,17.3,2.78,25.9a27.13,27.13,0,0,1,.12,7.74c-.48,2.78.25,5.69.49,8.47,1.21,15.49,2.54,30.85,3.75,46.34.48,6.42,1.09,12.71,1.57,19.12.12,1.94.24,4,.37,5.93.12,1.57-.25,2.78-1.94,3.39A6.76,6.76,0,0,0,810,813.1c-1.82,1.33-3.27.84-4-1.33a11.19,11.19,0,0,1-.36-1.94c-1.81-16.34-3.63-32.55-5.44-48.88s-3.76-32.8-5.57-49.13S790.84,679,789,662.69c-1.69-14.4-3.26-28.79-5-43.31-1.81-16.46-3.75-33-5.56-49.49-1-8.47-1.94-17.06-2.91-25.53C775.47,543.51,775.23,542.42,775,541Z"/><path d="M293.11,543.15H282.46c-4.84,0-8.1-2.54-9.68-7.38-1.45-4.36.25-9.93,3.76-12.1a6.51,6.51,0,0,1,3.38-.73l152.83.36H436c.61-2,1.09-4,1.82-5.8a9,9,0,0,1,7.14-6.05c2.18-.37,4.35-.85,6.77-1.34.49-2.66,2.67-3.14,5.21-3,3.14.12,6.41.36,9.56.48a3.71,3.71,0,0,1,3.14,1.94c.73,1.21,1.82,1.33,2.66.24,1.21-1.69,2.91-1.69,4.72-1.69,3,.12,6.17.12,9.2.24a5.88,5.88,0,0,1,3,1c1.46,1.33,2.54,1.45,4,.12a4,4,0,0,1,2.66-1.09c3.14,0,6.41.12,9.56.36a10.61,10.61,0,0,1,3,1.21c2.06,1.09,3.75.85,5.21-.72a4.69,4.69,0,0,1,3.87-1.58c3.39.12,6.77.37,10.16.61.61,0,1.57.12,1.82.6,1.33,2.06,3.38,1.58,5.32,1.7a28.58,28.58,0,0,1,4.6.36c5.08,1.09,7.62,4.48,7.38,9.68a26.14,26.14,0,0,1-.24,2.78H562.7c-.6-5.44,1.69-9.92,3.87-14.52,5.93-12.58,11.62-25.41,17.31-38.11a17.82,17.82,0,0,0,.72-2.3,18,18,0,0,0-2.42-.12c-24.56.12-49,.24-73.57.48-5.8,0-8.47-3.26-6.89-9,1.69-6.17,3.38-12.22,5.2-18.39,10.77-38,20.42-76,31.19-113.86,1.45-5.09,5.11-9.44,9-13.07a15.49,15.49,0,0,1,10.77-4.24c20.69,0,41.38.12,62.07.12H746.62c1.69,0,3.27,0,5,.12,6.41.61,9.44,4.48,7.38,11-13.79,45.49-27.71,90.87-41.38,136.24-1.21,4.24-3.15,7.38-7,9.44a13.79,13.79,0,0,1-6.65,1.57q-31,.36-62.08.85h-3.14c-.61,1.21-1.09,2.18-1.57,3.27C631.79,485,626.35,496.93,621,509c-1,2.17-2,4.35-3.14,6.53a28.83,28.83,0,0,0-1.46,3.39c-1.21,3.87-.6,4.72,3.51,4.72,27,0,53.85,0,80.83.12,36.91.12,73.93.12,110.84.24h2.66a19.92,19.92,0,0,1,2.66.24c5.45,1,9.44,5.33,9.08,10s-4.72,8.23-10.29,8.35-11,0-16.45,0h-3.51c0,1.58-.12,2.79,0,4.12,1.69,20.2,3.38,40.29,5.2,60.5,1.69,19,3.39,37.87,5,56.87,1.69,19.24,3.27,38.6,5,57.84,1.45,16.45,2.91,32.91,4.36,49.24q1.63,19.07,3.26,38.12a4.47,4.47,0,0,1-1.21,3.63,8.22,8.22,0,0,1-12.46-.12,6.86,6.86,0,0,1-1.21-2.91c-.85-7.5-1.57-15.12-2.42-22.62-1.57-14.65-3.27-29.29-5-43.93-1.69-14.4-3.27-28.8-5-43.32s-3.27-29-5-43.56-3.27-28.79-5-43.31-3.27-29-5-43.56c-1-8.23-1.82-16.34-2.79-24.57-.12-.72-.36-1.45-.6-2.42q-230.32.38-460.41.61c-.24,1.09-.48,1.81-.6,2.66-1.57,14.76-3.27,29.52-4.84,44.29-1.7,15-3.39,29.88-5,44.89s-3.27,29.76-4.84,44.65-3.27,29.76-5,44.65c-1.7,15.12-3.27,30.13-5,45.25-1.34,11.49-2.55,23-3.88,34.36a6.09,6.09,0,0,1-4.47,5.21,5.64,5.64,0,0,1-6.05-1.46,6.41,6.41,0,0,1-1.82-5.44c.61-7.62,1.33-15.37,1.94-23,1.21-14.28,2.42-28.44,3.63-42.71,1.21-14.52,2.54-29.16,3.75-43.68,1.21-14.16,2.42-28.32,3.63-42.35,1.21-14.4,2.42-28.68,3.63-43.08,1.21-14,2.42-28.07,3.51-42.11.48-6.41,1.09-12.7,1.57-19.12A13.34,13.34,0,0,0,293.11,543.15Zm348-78.53h3.27c19.48-.24,39-.61,58.44-.85a18.62,18.62,0,0,0,3.63-.36,8,8,0,0,0,6.17-5.69q20.68-68.43,41.5-136.85a14.8,14.8,0,0,0,.61-2.18c.24-1.93-.24-2.9-2.18-3.39a24.17,24.17,0,0,0-4.24-.36H558a11.41,11.41,0,0,0-7.74,3.15A22.92,22.92,0,0,0,543.7,329q-13.43,47.55-27,95.1c-3.39,12-6.78,23.84-10,35.82-.24,1.09-1,2.18.24,3.75.48-1.21.85-2.06,1.09-2.9,1.09-3.63,2.18-7.38,3.27-11q18-61.35,35.93-122.7c.37-1.09.49-2.3,1.21-3a3.37,3.37,0,0,1,2.54-1,3,3,0,0,1,1.58,2.18,6.67,6.67,0,0,1-.61,2.9c-3.27,11.13-6.53,22.39-9.8,33.52q-14.34,48.83-28.68,97.77c-.36,1.33-.6,2.66-1,4.11h74.77c1.33-2.9,2.67-5.69,3.88-8.47,2.05-4.48,4.11-8.95,6.29-13.43a9.24,9.24,0,0,1,8.83-5.33c12.46-.12,24.81-.48,37.27-.6a15.17,15.17,0,0,1,3.27.36c3,.85,4.35,2.91,3.87,5.93a17.85,17.85,0,0,1-1.58,4.72c-2.17,5.08-4.47,10-6.77,15A10.84,10.84,0,0,0,641.11,464.62ZM548.06,528v-.36H280.77c-1.57-.12-2.42.73-3.15,1.94-1.81,3.5.61,8.83,5.21,8.71,9.19-.37,18.51-.12,27.71-.12q251.91-.18,503.84-.49a15.17,15.17,0,0,0,3.27-.36c1.81-.48,3.26-1.45,3.63-3.39a4.34,4.34,0,0,0-2.91-4.35,18.67,18.67,0,0,0-5.8-1Q680.44,528.27,548.06,528Zm98-87.36c-1.45-.12-2.54-.36-3.51-.36-4.23,0-8.59.24-12.83.24-7.62.12-15.12.24-22.74.24a6.28,6.28,0,0,0-6.17,4.12l-.73,1.45c-10.41,22.62-20.81,45.37-31.1,68a26.67,26.67,0,0,0-1.45,4c-.85,3.63,0,5,3.75,5h37.27a21.86,21.86,0,0,0,2.66-.24c-.24-4.48,1.33-8.35,3.51-12,.36-.6.48-1.21.85-1.81Q630.1,477,644.5,444.65A28.89,28.89,0,0,0,646.07,440.66ZM778.44,542.78c.12,1.58.12,2.91.37,4.36q2.54,22.14,5.08,44.29c1.57,14.27,3.27,28.55,4.84,43,1.69,14.64,3.39,29.28,5,43.92,1.69,14.4,3.27,28.8,5,43.2s3.27,29,5,43.56,3.27,28.8,4.84,43.32a2.47,2.47,0,0,0,1.82,2.42c2.3.6,3.51-.48,3.26-2.9-1.21-14.16-2.42-28.32-3.63-42.35l-3.63-42.11c-1.21-14.28-2.42-28.44-3.63-42.71L799,639c-1.45-16.58-2.78-33-4.23-49.61-1.21-14.4-2.42-28.68-3.75-43.08-.12-1.21-.37-2.3-.49-3.63H780.38A5.59,5.59,0,0,0,778.44,542.78Zm-480.37.49c-.48,5.44-1,10.65-1.45,16-1.21,14.16-2.42,28.31-3.63,42.35-1.21,14.52-2.54,29.16-3.75,43.68-1.21,13.92-2.3,27.83-3.51,41.75-1.21,14.52-2.42,29.16-3.75,43.68-1,11.73-2.06,23.47-3,35.21l-2.91,35.21c-.12,1.09-1,3,1.09,3.15s1.57-1.7,1.69-3c1-8.11,1.82-16.21,2.67-24.2,1.93-16.94,3.75-33.88,5.68-50.82s3.63-33.88,5.57-50.82c2.3-20.81,4.6-41.74,7-62.56l6.53-59c.36-3.51.73-6.9,1.09-10.53Zm218.77-20.21c1.33-5.69-.36-7.86-5.56-7.86-19.49,0-39,0-58.45.12a29,29,0,0,0-5.56.48c-4.12.73-5.45,2.54-5.69,7.26Z"/><path d="M684.31,436.91H700.4a11.33,11.33,0,0,1,2.9.24,2.28,2.28,0,0,1,1.58,3.15,7.11,7.11,0,0,1-.37.84c-3.14,7-3.14,7.14-10.89,7.39-8.71.36-17.3.48-26,.84h-1.94c-3.27-.48-4.23-1.93-3.51-5.2.37-1.33.61-2.78,1.09-4.11.85-2.79,1.33-3.15,4.24-3.15,5.56-.12,11.25-.12,16.82,0ZM667,444.29c1.09,0,1.7.12,2.42.12l17.43-.36,9.8-.36c1.09,0,1.93-.25,1.69-1.82H667.73A20.64,20.64,0,0,1,667,444.29Z"/><path d="M621.51,387.42c0-8.59,7.5-16.09,16-16a14.13,14.13,0,0,1,14.16,14.28c0,8.47-7.63,16.09-16.1,16A14,14,0,0,1,621.51,387.42Zm14,9.44a11.34,11.34,0,0,0,11.26-11.38,9,9,0,0,0-9.2-9.19,11.41,11.41,0,0,0-11.25,11.37A9,9,0,0,0,635.54,396.86Z"/><path d="M573.11,436.79a5.93,5.93,0,0,1,5.56,5.81,5.63,5.63,0,1,1-11.25.12C567.66,439.57,570.32,436.67,573.11,436.79Z"/><path d="M559.92,441.39a4.33,4.33,0,0,1-4.36,4.35c-2.06,0-3.51-1.57-3.51-3.87s2.06-4.72,4.12-4.6A4,4,0,0,1,559.92,441.39Z"/><path d="M618.24,448.89c1.69,0,3.51-.12,5.2,0,2.79.24,3.87,2.06,2.91,4.6-.85,2.17-1.82,4.23-2.79,6.29a3.26,3.26,0,0,1-3.38,2.06c-3.15-.13-6.3-.13-9.56-.49-2.54-.24-3.39-1.45-3.15-4V457c1.57-8,1-8,8.83-8.35.73.12,1.33.12,1.94.24Zm2.54,4.6h-3.15a18.07,18.07,0,0,0-2.54.12c-2.05.24-2.05.24-2.05,3a2.26,2.26,0,0,0,1,.24c1.09,0,2.18.13,3.27.13C619.81,457,619.81,457,620.78,453.49Z"/></g></g></g></g></g></svg>